<svg xmlns="http://www.w3.org/2000/svg" width="26.186" height="24.004" viewBox="0 0 26.186 24.004">
  <path id="Union_117" data-name="Union 117" d="M6,22.392A12,12,0,1,1,18,1.61s0,0,.01,0v0h0l0,0h.006l0,0h.01v0c.006,0,.006,0,.006,0h0s.006,0,.006,0h0a.014.014,0,0,0,.01,0s0,0,.01,0v0h.01v0s0,0,0,0H18.1s0,0,0,0h.006s0,0,0,0h0l.006,0h0s.006,0,.006,0h0s.006,0,.01.01a.014.014,0,0,1,.01,0s.006,0,.006,0h0l0,0h.006l0,0s.006,0,.006,0h0a.005.005,0,0,0,.006,0s0,0,0,0,.01,0,.01,0h0l.006,0h0s.006,0,.006,0h0s.006,0,.006,0,0,0,0,0h.006l0,0h.006s0,0,0,0,0,0,0,0,.006,0,.01,0,.006,0,.01,0a.005.005,0,0,0,.006,0h0s0,0,.006,0l0,0c.006,0,.006,0,.01,0s0,0,0,0h.006s0,0,0,0h.006a.029.029,0,0,0,.01.009s0,0,.01,0,0,0,0,0h0l.006,0s0,0,0,0h.006l0,0h.006l0,0s.006,0,.006,0h0l.006,0h0l0,0c.006,0,.006,0,.006,0s0,0,0,0h.006l0,0h.006l0,0c.006,0,.006,0,.01,0s.006,0,.01,0v0s0,0,.01,0a.014.014,0,0,0,.01,0,.014.014,0,0,0,.01,0l0,0,.006,0s0,0,0,0h0s.006,0,.006,0h0l.006,0a.014.014,0,0,0,.01,0h0s.006,0,.006.01h0l.006,0h0s0,0,0,0h.006s0,0,0,0v0h.006l0,0c.006,0,.006,0,.01,0a.022.022,0,0,0,.01,0,.084.084,0,0,0,.02.015s0,0,0,0h.006s0,0,0,0h.006s0,0,0,0,.006,0,.01,0v0s0,0,.01,0a.024.024,0,0,0,.02.01v0s0,0,.01,0,0,0,0,0H18.7s0,0,0,0h0s.006,0,.006,0v0s.01,0,.01,0,.014.01.02.01,0,0,0,0l.006,0s0,0,0,0h0a.005.005,0,0,1,.006,0h0s.006,0,.006,0h0s.006,0,.006,0l0,0c.006,0,.01.009.014.009l.01.01c.006,0,.006,0,.01,0s.006,0,.01,0,.006,0,.01,0v0h.006l0,0,0,0a.1.1,0,0,1,.02.014c.006,0,.006,0,.01,0s.006,0,.01,0,.006,0,.01,0v0s0,0,0,0h.006l0,0c.006,0,.016.01.02.014s.006,0,.01,0,.006,0,.01,0v0h0l.006,0s0,0,0,0h.006l0,0a.082.082,0,0,0,.029.019s0,0,.01.01,0,0,0,0h.006l0,0a.017.017,0,0,0,.01,0v0l.029.015v0s0,0,0,0h.006l0,0a.017.017,0,0,0,.01,0v0c.006,0,.006,0,.01,0a.043.043,0,0,1,.023.02h.006l0,0a.02.02,0,0,0,.01,0v0s0,0,.01,0l0,0h.006a.083.083,0,0,0,.023.02c.006,0,.006,0,.01,0v0a.02.02,0,0,1,.01,0l0,0h.006s0,0,0,.01a.067.067,0,0,1,.033.024h.006s0,0,0,0,.01,0,.01.009.006,0,.01,0a.253.253,0,0,0,.033.029c.006,0,.006,0,.01,0a.022.022,0,0,0,.01,0v0s.006,0,.006,0l.037.024s.006,0,.006.01,0,0,.01,0,0,0,.008,0a.186.186,0,0,0,.035.029l0,0h0s.006,0,.006.01a.022.022,0,0,1,.01,0c.014.009.029.023.043.033a.014.014,0,0,0,.01,0s0,0,0,.01l.053.038s.006,0,.01.01a.421.421,0,0,1,.059.048,11.724,11.724,0,0,1,2.3,2.542L20.291,6.408A9.88,9.88,0,0,0,17,3.343,10,10,0,1,0,20.659,17l1.734,1A11.988,11.988,0,0,1,6,22.392Zm4.109-9.348a2.821,2.821,0,0,1,2.883-2.883,2.694,2.694,0,0,1,2.625,1.7H14.506A1.612,1.612,0,0,0,12.993,11a1.891,1.891,0,0,0-1.934,2.04,1.9,1.9,0,0,0,1.934,2.05,1.7,1.7,0,0,0,1.8-1.57H12.676v-.738h3.113v.724a2.791,2.791,0,0,1-2.8,2.423A2.819,2.819,0,0,1,10.11,13.044Zm6.59,2.835V10.224h3.117v.757H17.623v1.656h1.949v.757H17.623v1.733h2.193v.752Zm-8.137,0-.406-1.154H5.8l-.406,1.154H4.42l2.021-5.655H7.514l2.025,5.655Zm-2.51-1.906H7.9l-.914-2.624ZM22.871,12.3a.44.44,0,0,1-.441-.44V9.87H20.444A.443.443,0,0,1,20,9.429v-.44a.448.448,0,0,1,.445-.445H22.43V6.556a.44.44,0,0,1,.441-.44h.441a.438.438,0,0,1,.439.44V8.543h1.992a.444.444,0,0,1,.441.445v.44a.44.44,0,0,1-.441.44H23.752v1.987a.438.438,0,0,1-.439.44Z" fill="rgba(76,77,85,0.3)"/>
</svg>
