<svg xmlns="http://www.w3.org/2000/svg" width="22.5" height="22.5" viewBox="0 0 22.5 22.5">
  <path id="Age_18_" data-name="Age 18+" d="M-13095.314,167.5h-16.871a2.818,2.818,0,0,1-2.814-2.814V152.031h22.5v12.656A2.818,2.818,0,0,1-13095.314,167.5Zm-5.667-11.655a2.832,2.832,0,0,0-.936.148,2.38,2.38,0,0,0-.74.415,1.825,1.825,0,0,0-.487.622,1.771,1.771,0,0,0-.171.78,1.794,1.794,0,0,0,.24.948,1.655,1.655,0,0,0,.734.616,2.2,2.2,0,0,0-.554.283,1.54,1.54,0,0,0-.375.385,1.528,1.528,0,0,0-.217.477,2.184,2.184,0,0,0-.069.553,2.044,2.044,0,0,0,.188.879,1.862,1.862,0,0,0,.523.678,2.522,2.522,0,0,0,.813.431,3.452,3.452,0,0,0,1.051.155,3.423,3.423,0,0,0,1.05-.155,2.519,2.519,0,0,0,.816-.431,1.952,1.952,0,0,0,.523-.678,2.044,2.044,0,0,0,.188-.879,2.183,2.183,0,0,0-.072-.553,1.524,1.524,0,0,0-.215-.477,1.52,1.52,0,0,0-.375-.385,2.163,2.163,0,0,0-.553-.283,1.635,1.635,0,0,0,.734-.616,1.794,1.794,0,0,0,.24-.948,1.762,1.762,0,0,0-.172-.78,1.87,1.87,0,0,0-.486-.622,2.415,2.415,0,0,0-.737-.415A2.884,2.884,0,0,0-13100.981,155.846Zm-7.518,6.181v1.109h4.107v-1.109h-1.188v-6.109h-1.267l-2.248,1.886.486.645a.394.394,0,0,0,.109.1.53.53,0,0,0,.167.066.624.624,0,0,0,.1.007.78.78,0,0,0,.1-.007.491.491,0,0,0,.214-.1l.823-.685c-.006.075-.009.151-.012.225l0,.061c-.006.092-.006.188-.006.28v3.637h-1.386Zm7.518.03a1.139,1.139,0,0,1-.448-.079.9.9,0,0,1-.306-.214.828.828,0,0,1-.178-.323,1.293,1.293,0,0,1-.057-.4,1.7,1.7,0,0,1,.05-.428.832.832,0,0,1,.161-.329.743.743,0,0,1,.307-.211,1.227,1.227,0,0,1,.471-.079,1.236,1.236,0,0,1,.474.079.771.771,0,0,1,.306.211.829.829,0,0,1,.162.329,1.781,1.781,0,0,1,.049.428,1.44,1.44,0,0,1-.056.4.954.954,0,0,1-.178.323.878.878,0,0,1-.31.214A1.158,1.158,0,0,1-13100.981,162.057Zm0-3.229a.905.905,0,0,1-.418-.082.652.652,0,0,1-.257-.224.78.78,0,0,1-.132-.316,1.85,1.85,0,0,1-.033-.365,1.245,1.245,0,0,1,.043-.329.724.724,0,0,1,.148-.28.736.736,0,0,1,.26-.194.905.905,0,0,1,.389-.076.911.911,0,0,1,.388.076.722.722,0,0,1,.264.194.752.752,0,0,1,.148.28,1.2,1.2,0,0,1,.042.329,1.66,1.66,0,0,1-.036.365.771.771,0,0,1-.125.316.715.715,0,0,1-.26.224A.913.913,0,0,1-13100.981,158.828Zm8.481-8.2h-22.5V149.22a2.818,2.818,0,0,1,2.814-2.814h1.405v-.7a.7.7,0,0,1,.7-.7.7.7,0,0,1,.7.7v.7h11.25v-.7a.7.7,0,0,1,.7-.7.7.7,0,0,1,.7.7v.7h1.405a2.816,2.816,0,0,1,2.814,2.811v1.408Z" transform="translate(13115 -145.001)" fill="#79b1bd"/>
</svg>
