<svg xmlns="http://www.w3.org/2000/svg" width="22.501" height="22.498" viewBox="0 0 22.501 22.498">
  <path id="Subtraction_558" data-name="Subtraction 558" d="M-4964.311,12007.5h-16.875a2.817,2.817,0,0,1-2.814-2.812v-12.656h22.5v12.656A2.815,2.815,0,0,1-4964.311,12007.5Zm-13.118-5.692v1.064h3.941v-1.064h-1.142v-5.861h-1.214l-2.158,1.809.467.618a.335.335,0,0,0,.105.093.438.438,0,0,0,.16.063.669.669,0,0,0,.093.007.843.843,0,0,0,.1-.007.471.471,0,0,0,.208-.1l.787-.653c0,.05-.006.1-.008.149s0,.075-.006.113v.011c0,.088,0,.179,0,.266v3.492Zm7.647-1.863v0l-.016.021-.014.019c-.026.035-.053.071-.082.107l-.014.018c-.038.045-.075.091-.112.139l-2.2,2.622h1.359a1.045,1.045,0,0,0,.458-.094.728.728,0,0,0,.3-.235l1.492-2.118a4.373,4.373,0,0,0,.545-1.01,3.318,3.318,0,0,0,.205-1.217,2.61,2.61,0,0,0-.163-.937,2.089,2.089,0,0,0-.47-.735,2.188,2.188,0,0,0-.748-.479,2.763,2.763,0,0,0-1-.172,2.654,2.654,0,0,0-1,.185,2.308,2.308,0,0,0-.769.5,2.2,2.2,0,0,0-.494.729,2.327,2.327,0,0,0-.172.889,2.118,2.118,0,0,0,.172.889,1.826,1.826,0,0,0,.443.621,1.791,1.791,0,0,0,.612.37,2.022,2.022,0,0,0,.672.121A2.1,2.1,0,0,0-4969.781,11999.943Zm-.458-.843c-.636,0-.958-.349-.958-1.036a1.266,1.266,0,0,1,.063-.407.974.974,0,0,1,.184-.325.917.917,0,0,1,.3-.217.962.962,0,0,1,.4-.078,1.2,1.2,0,0,1,.4.068.827.827,0,0,1,.313.193.87.87,0,0,1,.205.322,1.167,1.167,0,0,1,.075.443,1.068,1.068,0,0,1-.256.753A.928.928,0,0,1-4970.239,11999.1Zm8.739-8.477H-4984v-1.4a2.818,2.818,0,0,1,2.814-2.814h1.4v-.7a.7.7,0,0,1,.705-.7.7.7,0,0,1,.7.7v.7h11.25v-.7a.7.7,0,0,1,.705-.7.7.7,0,0,1,.7.7v.7h1.407a2.816,2.816,0,0,1,2.812,2.814v1.4Z" transform="translate(4984.001 -11985.001)" fill="#79b1bd"/>
</svg>
