<svg xmlns="http://www.w3.org/2000/svg" width="22.501" height="22.498" viewBox="0 0 22.501 22.498">
  <path id="Subtraction_562" data-name="Subtraction 562" d="M-4964.311,12007.5h-16.875a2.817,2.817,0,0,1-2.814-2.812v-12.656h22.5v12.656A2.815,2.815,0,0,1-4964.311,12007.5Zm-7.413-5.7v1.064h3.941v-1.064h-1.139v-5.861h-1.217l-2.158,1.812.467.618a.365.365,0,0,0,.105.093.487.487,0,0,0,.16.061.49.49,0,0,0,.094.009.561.561,0,0,0,.1-.009.49.49,0,0,0,.208-.1l.786-.657c-.006.091-.009.18-.012.266v.006c-.006.094-.006.185-.006.271v3.489Zm-3.815-4.73a.764.764,0,0,1,.6.223.92.92,0,0,1,.2.633,1.728,1.728,0,0,1-.063.476,2.2,2.2,0,0,1-.184.452,3.257,3.257,0,0,1-.313.461c-.114.14-.256.295-.446.488l-2,2.008a.717.717,0,0,0-.2.286.931.931,0,0,0-.058.295v.474h4.864v-.854a.45.45,0,0,0-.135-.344.527.527,0,0,0-.377-.132h-1.29a3.021,3.021,0,0,0-.477.042,4.249,4.249,0,0,0-.518.123l1.353-1.386c.2-.206.373-.387.521-.555a4.048,4.048,0,0,0,.428-.563,2.857,2.857,0,0,0,.3-.614,2.335,2.335,0,0,0,.105-.705,2.116,2.116,0,0,0-.154-.812,1.83,1.83,0,0,0-.446-.633,2.141,2.141,0,0,0-.7-.415,2.687,2.687,0,0,0-.925-.148,3.041,3.041,0,0,0-.886.124,2.236,2.236,0,0,0-.735.383,2.241,2.241,0,0,0-.537.642,2.6,2.6,0,0,0-.292.9l.777.136a1.264,1.264,0,0,0,.2.019.549.549,0,0,0,.259-.055.631.631,0,0,0,.262-.347.886.886,0,0,1,.311-.431A.886.886,0,0,1-4975.54,11997.073Zm14.04-6.449H-4984v-1.4a2.818,2.818,0,0,1,2.814-2.814h1.4v-.7a.7.7,0,0,1,.705-.7.7.7,0,0,1,.7.7v.7h11.25v-.7a.7.7,0,0,1,.705-.7.7.7,0,0,1,.7.7v.7h1.407a2.816,2.816,0,0,1,2.812,2.814v1.4Z" transform="translate(4984.001 -11985.001)" fill="#79b1bd"/>
</svg>
