<svg xmlns="http://www.w3.org/2000/svg" width="22.501" height="22.498" viewBox="0 0 22.501 22.498">
  <path id="Subtraction_561" data-name="Subtraction 561" d="M-4964.311,12007.5h-16.875a2.817,2.817,0,0,1-2.814-2.812v-12.656h22.5v12.656A2.815,2.815,0,0,1-4964.311,12007.5Zm-5.72-11.626a2.435,2.435,0,0,0-1.019.214,2.143,2.143,0,0,0-.811.648,3.253,3.253,0,0,0-.533,1.1,5.764,5.764,0,0,0-.193,1.573,5.764,5.764,0,0,0,.193,1.573,3.315,3.315,0,0,0,.533,1.1,2.2,2.2,0,0,0,.811.648,2.393,2.393,0,0,0,1.019.214,2.459,2.459,0,0,0,1.025-.214,2.172,2.172,0,0,0,.816-.648,3.257,3.257,0,0,0,.54-1.1,5.672,5.672,0,0,0,.2-1.573,5.672,5.672,0,0,0-.2-1.573,3.223,3.223,0,0,0-.54-1.1,2.119,2.119,0,0,0-.816-.648A2.5,2.5,0,0,0-4970.031,11995.873Zm-5.509,1.2a.764.764,0,0,1,.6.22.925.925,0,0,1,.2.636,1.777,1.777,0,0,1-.063.477,2.206,2.206,0,0,1-.184.451,3.114,3.114,0,0,1-.313.458c-.114.142-.255.3-.446.491l-2,2.008a.717.717,0,0,0-.2.286.893.893,0,0,0-.058.295v.474h4.864v-.856a.459.459,0,0,0-.135-.344.527.527,0,0,0-.377-.129h-1.29a3.021,3.021,0,0,0-.477.042,3.56,3.56,0,0,0-.518.124l1.353-1.387c.21-.213.376-.39.521-.555a4.048,4.048,0,0,0,.428-.563,2.832,2.832,0,0,0,.3-.617,2.289,2.289,0,0,0,.105-.7,2.074,2.074,0,0,0-.154-.811,1.812,1.812,0,0,0-.446-.633,2.014,2.014,0,0,0-.7-.416,2.7,2.7,0,0,0-.925-.151,3.037,3.037,0,0,0-.886.127,2.185,2.185,0,0,0-.735.383,2.241,2.241,0,0,0-.537.642,2.608,2.608,0,0,0-.292.9l.777.139a1.259,1.259,0,0,0,.195.016.571.571,0,0,0,.266-.055.619.619,0,0,0,.262-.347.914.914,0,0,1,.311-.431A.881.881,0,0,1-4975.54,11997.076Zm5.509,4.688a.833.833,0,0,1-.383-.1.861.861,0,0,1-.331-.361,2.5,2.5,0,0,1-.232-.72,6.583,6.583,0,0,1-.087-1.179,6.543,6.543,0,0,1,.087-1.175,2.466,2.466,0,0,1,.232-.721.863.863,0,0,1,.331-.358.833.833,0,0,1,.383-.1.848.848,0,0,1,.386.1.877.877,0,0,1,.341.358,2.422,2.422,0,0,1,.238.721,6.219,6.219,0,0,1,.09,1.175,6.183,6.183,0,0,1-.09,1.179,2.453,2.453,0,0,1-.238.719.877.877,0,0,1-.341.362A.848.848,0,0,1-4970.031,12001.765Zm8.531-11.141H-4984v-1.4a2.818,2.818,0,0,1,2.814-2.814h1.4v-.7a.7.7,0,0,1,.705-.7.7.7,0,0,1,.7.7v.7h11.25v-.7a.7.7,0,0,1,.705-.7.7.7,0,0,1,.7.7v.7h1.407a2.816,2.816,0,0,1,2.812,2.814v1.4Z" transform="translate(4984.001 -11985.001)" fill="#79b1bd"/>
</svg>
