<svg xmlns="http://www.w3.org/2000/svg" width="94.001" height="64.001" viewBox="0 0 94.001 64.001">
  <path id="Link_coefficients_to_employee_types" data-name="Link coefficients to employee types" d="M12657-3388h-72a10.927,10.927,0,0,1-7.778-3.222A10.931,10.931,0,0,1,12574-3399v-42a10.931,10.931,0,0,1,3.222-7.778A10.927,10.927,0,0,1,12585-3452h72a10.927,10.927,0,0,1,7.779,3.222A10.931,10.931,0,0,1,12668-3441v42a10.931,10.931,0,0,1-3.222,7.778A10.928,10.928,0,0,1,12657-3388Zm-48.441-28.038h0l-1.822,1.819a9.356,9.356,0,0,0,0,13.216,9.285,9.285,0,0,0,6.609,2.737,9.278,9.278,0,0,0,6.606-2.737l9.913-9.91a9.284,9.284,0,0,0,2.738-6.608,9.284,9.284,0,0,0-2.738-6.608,9.281,9.281,0,0,0-6.607-2.74,9.281,9.281,0,0,0-6.608,2.74l-1.266,1.262a8.746,8.746,0,0,0,1.271,2.047,8.436,8.436,0,0,0,2.032,1.259l1.265-1.265a4.642,4.642,0,0,1,3.306-1.368,4.641,4.641,0,0,1,3.3,1.368,4.679,4.679,0,0,1,0,6.607l-9.913,9.913a4.64,4.64,0,0,1-3.3,1.369,4.648,4.648,0,0,1-3.306-1.369,4.641,4.641,0,0,1-1.369-3.3,4.641,4.641,0,0,1,1.369-3.3l1.821-1.822h0l-.026-.018a17.86,17.86,0,0,1-1.795-1.467,18.588,18.588,0,0,1-1.481-1.819Zm19.655-25.7a9.284,9.284,0,0,0-6.608,2.737l-9.912,9.913a9.284,9.284,0,0,0-2.738,6.608,9.284,9.284,0,0,0,2.738,6.608,9.278,9.278,0,0,0,6.606,2.737,9.285,9.285,0,0,0,6.609-2.737l1.176-1.176a7.328,7.328,0,0,0-1.176-2.13,7.35,7.35,0,0,0-2.13-1.173l-1.174,1.173a4.641,4.641,0,0,1-3.3,1.369,4.641,4.641,0,0,1-3.3-1.369,4.641,4.641,0,0,1-1.369-3.3,4.641,4.641,0,0,1,1.369-3.3l9.913-9.913a4.641,4.641,0,0,1,3.3-1.369,4.641,4.641,0,0,1,3.3,1.369,4.642,4.642,0,0,1,1.369,3.3,4.643,4.643,0,0,1-1.369,3.3l-1.653,1.65h0a.09.09,0,0,1,.017.01,13.909,13.909,0,0,1,1.85,1.456,13.2,13.2,0,0,1,1.438,1.841l1.653-1.653a9.356,9.356,0,0,0,0-13.216A9.284,9.284,0,0,0,12628.214-3441.735Z" transform="translate(-12574 3452.001)" fill="#79b1bd"/>
</svg>
