<svg xmlns="http://www.w3.org/2000/svg" width="112.652" height="72.932" viewBox="0 0 112.652 72.932">
  <path id="Manage_coefficients_per_PC" data-name="Manage coefficients per PC" d="M30.927,72.932l-7.9-.144a1.59,1.59,0,0,1-1.491-1.33l-.987-8.327A22.172,22.172,0,0,1,15.5,59.939L7.917,62.946a1.454,1.454,0,0,1-.517.094,1.526,1.526,0,0,1-1.33-.8L.2,51.264a1.62,1.62,0,0,1,.379-2.012l6.491-5.094a25.092,25.092,0,0,1-.165-3.1,23.652,23.652,0,0,1,.266-3.047L.853,32.68a1.621,1.621,0,0,1-.312-2.026L6.78,19.9a1.51,1.51,0,0,1,1.3-.755,1.457,1.457,0,0,1,.567.115l7.474,3.277a23.168,23.168,0,0,1,5.157-3l1.265-8.285a1.592,1.592,0,0,1,1.537-1.32l6.845.125V30.62a10.422,10.422,0,0,0-1.135-.086l-.188,0A10.774,10.774,0,0,0,19.093,41.275a11.089,11.089,0,0,0,2.951,7.786A10.265,10.265,0,0,0,29.428,52.4c.063,0,.125,0,.188,0a10.342,10.342,0,0,0,1.313-.084V72.932Zm2.3-2.411V9.925h4.258V66.263h69.025v4.258ZM77.1,54.868,59.958,26.211l-16,14.524-2.861-3.154,19.85-18.018,1.336,2.231,16.586,27.73L103.056,6.274,94,8.888,92.819,4.8,109.438,0l3.214,16.309-4.178.822-1.723-8.737L78.99,58.027Zm7.2-17.263H73.057l-4.191-7a1.672,1.672,0,0,1,1.152-.962c.493-.128,1.089-.282,1.69-.435,1.021-.263,2.072-.533,2.625-.684l3.917,2.691,3.942-2.691c.952.289,3.335.88,4.316,1.119a1.745,1.745,0,0,1,1.28,1.439q.014.109.029.236L84.3,37.605ZM74.04,23.725l-.613-3.384A4.523,4.523,0,0,1,77.9,15.2h.772a4.523,4.523,0,0,1,4.477,5.142l-.667,3.384a4.27,4.27,0,0,1-4.208,3.49A4.335,4.335,0,0,1,74.04,23.725Z" transform="translate(0)" fill="#79b1bd"/>
</svg>
