<svg xmlns="http://www.w3.org/2000/svg" width="62.245" height="72.932" viewBox="0 0 62.245 72.932">
  <path id="Indexation_of_salary" data-name="Indexation of salary" d="M31.85,67.737a3.062,3.062,0,0,1,.45-1.569c1.258,2.11,5,3.679,9.42,3.679,2.919,0,7.775-.871,9.42-3.643a3.026,3.026,0,0,1,.449,1.558c-.025,2.855-4.438,5.171-9.869,5.171C36.274,72.932,31.85,70.6,31.85,67.737ZM3.578,66.568a3.745,3.745,0,0,1,.551-1.906c1.563,2.584,6.127,4.463,11.547,4.463,3.575,0,9.521-1.063,11.538-4.463a3.7,3.7,0,0,1,.554,1.906l-.011-.008c0,3.53-5.419,6.364-12.093,6.364S3.578,70.078,3.578,66.568ZM51.59,67.761c0-.008,0-.016,0-.024v.034S51.59,67.765,51.59,67.761ZM31.85,61.933a2.9,2.9,0,0,1,.418-1.5c1.216,2.137,4.986,3.7,9.453,3.7,2.922,0,7.849-.883,9.452-3.7a3,3,0,0,1,.418,1.49l0,.016c0,2.867-4.423,5.2-9.87,5.2S31.85,64.8,31.85,61.933Zm-28.2-1.992a3.733,3.733,0,0,1,.551-1.9C5.738,60.623,10.326,62.5,15.741,62.5c3.58,0,9.527-1.063,11.542-4.459a3.733,3.733,0,0,1,.551,1.9l-.011-.009c0,3.53-5.416,6.365-12.093,6.365S3.649,63.455,3.649,59.942Zm28.2-4.016c0-2.792,4.2-5.074,9.448-5.189H42.2l.012.008c5.223.133,9.377,2.409,9.377,5.189,0,2.866-4.423,5.191-9.87,5.191S31.85,58.792,31.85,55.926Zm-28.2-2.82a3.565,3.565,0,0,1,.512-1.827c1.488,2.62,6.106,4.537,11.58,4.537,3.583,0,9.617-1.082,11.581-4.537a3.659,3.659,0,0,1,.512,1.827c0,3.53-5.415,6.361-12.093,6.361S3.649,56.616,3.649,53.106Zm0-7.089c0-3.51,5.341-6.341,11.956-6.364h.281c6.607,0,11.948,2.873,11.948,6.364s-5.415,6.364-12.093,6.364S3.649,49.526,3.649,46.017Zm27.672,1.916L16.41,22.9,2.489,35.586,0,32.83,17.266,17.09l1.162,1.949L32.856,43.264,53.9,5.481,46.02,7.765,44.993,4.19,59.449,0l2.8,14.247-3.634.718-1.5-7.633L32.964,50.692Zm11.45-.261c.09-.053-.021.041-.141.137a2.494,2.494,0,0,1-.2.152A4.381,4.381,0,0,1,42.771,47.672Z" fill="#79b1bd"/>
</svg>
