<svg xmlns="http://www.w3.org/2000/svg" width="71.352" height="55.334" viewBox="0 0 71.352 55.334">
  <path id="Union_50" data-name="Union 50" d="M21136.4,23768.576l-9.074-4.684v-21.441h9.641c4.092.729,8.18,2.947,12.266,5.518h7.494c3.389.2,5.166,3.646,1.867,5.9-2.625,1.928-6.092,1.82-9.648,1.5-2.445-.119-2.553,3.174,0,3.186.891.072,1.855-.143,2.7-.143,4.439-.006,8.084-.854,10.322-4.355l1.121-2.619,11.139-5.518c5.578-1.838,9.539,3.99,5.43,8.053a145.784,145.784,0,0,1-24.814,14.605,17.406,17.406,0,0,1-9.137,2.756A18.254,18.254,0,0,1,21136.4,23768.576Zm-26.4-2.529v-25.654h14.42v25.654Zm47.7-27.951a2.386,2.386,0,0,1,.352-1.234c.99,1.658,3.938,2.893,7.41,2.893,2.3,0,6.121-.686,7.41-2.863a2.408,2.408,0,0,1,.357,1.221c-.018,2.248-3.488,4.07-7.768,4.07S21157.7,23740.352,21157.7,23738.1Zm-22.248-.918a2.985,2.985,0,0,1,.436-1.5c1.229,2.027,4.82,3.508,9.086,3.508,2.811,0,7.488-.836,9.074-3.508a2.872,2.872,0,0,1,.436,1.5l-.006-.006c0,2.773-4.266,5-9.516,5S21135.453,23739.939,21135.453,23737.178Zm37.777.934v0Zm-15.529-4.58a2.293,2.293,0,0,1,.328-1.182c.953,1.684,3.92,2.912,7.434,2.912,2.3,0,6.18-.691,7.439-2.912a2.407,2.407,0,0,1,.328,1.176v.012c0,2.256-3.479,4.088-7.762,4.088S21157.7,23735.787,21157.7,23733.531Zm-22.189-1.568a2.976,2.976,0,0,1,.43-1.5c1.211,2.035,4.822,3.508,9.082,3.508,2.814,0,7.5-.834,9.08-3.508a2.906,2.906,0,0,1,.436,1.5l-.012-.006c0,2.773-4.26,5.006-9.512,5.006S21135.512,23734.725,21135.512,23731.963Zm22.189-3.162c0-2.2,3.3-3.992,7.434-4.08h.709l.012.006c4.111.107,7.375,1.9,7.375,4.086,0,2.25-3.479,4.08-7.762,4.08S21157.7,23731.057,21157.7,23728.8Zm-22.189-2.213a2.779,2.779,0,0,1,.4-1.437c1.17,2.057,4.809,3.566,9.111,3.566,2.82,0,7.564-.854,9.115-3.566a2.9,2.9,0,0,1,.4,1.438c0,2.773-4.26,5-9.516,5S21135.512,23729.344,21135.512,23726.588Zm0-5.578a3.384,3.384,0,0,1,.932-2.178c1.223-1.559,4.564-2.816,8.473-2.834h.221c5.2,0,9.4,2.266,9.4,5.012s-4.26,5-9.516,5S21135.512,23723.766,21135.512,23721.01Zm30.779,1.3c.066-.043-.018.029-.113.105-.074.059-.154.117-.158.117S21166.082,23722.477,21166.291,23722.311Z" transform="translate(-21110.002 -23715.998)" fill="#79b1bd"/>
</svg>
