<svg xmlns="http://www.w3.org/2000/svg" width="22.311" height="27.366" viewBox="0 0 22.311 27.366">
  <path id="Revise" d="M-16172.992-8238.634v-21.606h22.293v21.606Zm1.486-4.63h4.459v-4.628h-4.459Zm10.813-2.747a4.414,4.414,0,0,0,2.281.639,4.557,4.557,0,0,0,3.967-2.378,4.856,4.856,0,0,0,.463-3.595,4.748,4.748,0,0,0-2.129-2.891,4.487,4.487,0,0,0-2.283-.628,4.546,4.546,0,0,0-3.965,2.367l1.316.795a3.024,3.024,0,0,1,2.641-1.586,3,3,0,0,1,1.525.428,3.245,3.245,0,0,1,1.115,4.321,3.056,3.056,0,0,1-2.645,1.582,2.953,2.953,0,0,1-1.527-.431l-.77-.478.607-.163-.4-1.527-3.129.872.844,3.245,1.469-.414-.154-.625Zm-10.812-4.969h4.459v-4.63h-4.459Zm10.033,4.5Zm-11.537-14.49v-2.363h2.973v1.54h4.459v-1.54h7.432v1.54h4.459v-1.54h2.971v2.363Zm15.6-1.18V-8266h3.223v3.859Zm-11.891,0V-8266h3.223v3.859Z" transform="translate(16173.01 8266)" fill="#79b1bd"/>
</svg>
