<svg xmlns="http://www.w3.org/2000/svg" width="20.284" height="22.13" viewBox="0 0 20.284 22.13">
  <g id="notification" transform="translate(-3.05 -1.775)">
    <path id="Path_32774" data-name="Path 32774" d="M23.334,19.714l-.231-.2a9.781,9.781,0,0,1-1.709-1.994,8.6,8.6,0,0,1-.919-3.274V10.879A7.358,7.358,0,0,0,14.05,3.562V2.684a.909.909,0,1,0-1.817,0v.892a7.358,7.358,0,0,0-6.351,7.3v3.363a8.6,8.6,0,0,1-.919,3.274A9.8,9.8,0,0,1,3.281,19.51l-.231.2v1.92H23.334Z" fill="#7761a7"/>
    <path id="Path_32775" data-name="Path 32775" d="M15.32,32a1.8,1.8,0,0,0,3.574,0Z" transform="translate(-3.918 -9.651)" fill="#7761a7"/>
  </g>
</svg>
