<svg xmlns="http://www.w3.org/2000/svg" width="21.245" height="22.13" viewBox="0 0 21.245 22.13">
  <g id="notification" transform="translate(-3.05 -1)">
    <path id="Path_32753" data-name="Path 32753" d="M17.1,33.516A1.775,1.775,0,0,0,18.818,32h-3.5A1.775,1.775,0,0,0,17.1,33.516Z" transform="translate(-4.111 -10.387)" fill="#7761a7"/>
    <path id="Path_32754" data-name="Path 32754" d="M22.865,19.3l-.226-.2a9.555,9.555,0,0,1-1.669-1.948,8.4,8.4,0,0,1-.9-3.2V10.669a7.261,7.261,0,0,0-.106-1.19,4.987,4.987,0,0,1-3.983-4.894V4.165A7.028,7.028,0,0,0,13.776,3.5V2.663a.888.888,0,1,0-1.775,0v.871a7.188,7.188,0,0,0-6.184,7.135v3.285a8.4,8.4,0,0,1-.9,3.2A9.575,9.575,0,0,1,3.276,19.1l-.226.2v1.875H22.865Z" transform="translate(0 -0.26)" fill="#7761a7"/>
    <path id="Path_32755" data-name="Path 32755" d="M31.649,4.325A3.325,3.325,0,1,1,28.325,1,3.325,3.325,0,0,1,31.649,4.325Z" transform="translate(-7.354)" fill="#7761a7"/>
  </g>
</svg>
