<svg xmlns="http://www.w3.org/2000/svg" width="24.488" height="23.161" viewBox="0 0 24.488 23.161">
  <g id="Done" transform="translate(-114.802 -50.396)">
    <path id="Path_31724" data-name="Path 31724" d="M249.259,105.068a1.723,1.723,0,0,0-2.4,0l-9.744,9.744-2.994-3.418a1.7,1.7,0,0,0-2.542,2.26l4.209,4.773a1.7,1.7,0,0,0,1.214.565h.057a1.581,1.581,0,0,0,1.186-.508l11.016-11.016a1.671,1.671,0,0,0,0-2.4Z" transform="translate(-110.478 -51.452)" fill="#4c4d55"/>
    <path id="Path_31725" data-name="Path 31725" d="M132.907,50.4H117.033a2.218,2.218,0,0,0-2.231,2.231v18.7a2.218,2.218,0,0,0,2.231,2.231h18.7a2.218,2.218,0,0,0,2.231-2.231V62.6a1.695,1.695,0,0,0-3.39,0v7.57H118.191V53.786h14.716a1.695,1.695,0,1,0,0-3.39Z" fill="#4c4d55"/>
  </g>
</svg>
