<svg xmlns="http://www.w3.org/2000/svg" width="27.236" height="22.13" viewBox="0 0 27.236 22.13">
  <g id="download" transform="translate(0 -2.25)">
    <path id="Path_32750" data-name="Path 32750" d="M.851,18a.851.851,0,0,1,.851.851v5.958a1.7,1.7,0,0,0,1.7,1.7H23.832a1.7,1.7,0,0,0,1.7-1.7V18.851a.851.851,0,0,1,1.7,0v5.958a3.4,3.4,0,0,1-3.4,3.4H3.4a3.4,3.4,0,0,1-3.4-3.4V18.851A.851.851,0,0,1,.851,18Z" transform="translate(0 -3.834)" fill="#79b1bd" fill-rule="evenodd"/>
    <path id="Path_32751" data-name="Path 32751" d="M11.17,16.795a.851.851,0,0,1,1.2,0l3.9,3.9,3.9-3.9a.851.851,0,0,1,1.2,1.2l-4.5,4.506a.851.851,0,0,1-1.205,0L11.17,18a.851.851,0,0,1,0-1.2Z" transform="translate(-2.658 -3.48)" fill="#79b1bd" fill-rule="evenodd"/>
    <path id="Path_32752" data-name="Path 32752" d="M17.726,2.25a.851.851,0,0,1,.851.851V16.719a.851.851,0,1,1-1.7,0V3.1A.851.851,0,0,1,17.726,2.25Z" transform="translate(-4.108)" fill="#79b1bd" fill-rule="evenodd"/>
  </g>
</svg>
