<svg xmlns="http://www.w3.org/2000/svg" width="61" height="79" viewBox="0 0 61 79">
  <path id="My_todo_" data-name="My todo " d="M59,79H2a2,2,0,0,1-2-2V2A2,2,0,0,1,2,0H59a2,2,0,0,1,2,2V77A2,2,0,0,1,59,79ZM9.036,51.5a1.257,1.257,0,0,0-1.258,1.254v7.52a1.257,1.257,0,0,0,1.258,1.254h7.548a1.257,1.257,0,0,0,1.258-1.254v-7.52A1.257,1.257,0,0,0,16.584,51.5ZM23.79,59.25v1.823h18.3V59.25Zm0-4.861v1.823H51.85V54.389ZM9.036,30.84a1.257,1.257,0,0,0-1.258,1.254v7.52a1.257,1.257,0,0,0,1.258,1.254h7.548a1.257,1.257,0,0,0,1.258-1.254v-7.52a1.257,1.257,0,0,0-1.258-1.254ZM23.79,38.588v1.823h18.3V38.588Zm0-4.862V35.55H51.85V33.727ZM9.036,10.179a1.257,1.257,0,0,0-1.258,1.254v7.52a1.257,1.257,0,0,0,1.258,1.254h7.548a1.257,1.257,0,0,0,1.258-1.254v-7.52a1.257,1.257,0,0,0-1.258-1.254ZM23.79,17.927V19.75h18.3V17.927Zm0-4.862v1.823H51.85V13.065ZM12.5,58.552H12.5a.474.474,0,0,1-.335-.139L10.5,56.756a.469.469,0,0,1,.2-.8.452.452,0,0,1,.115-.014.474.474,0,0,1,.346.152L12.481,57.4l2.185-2.773.005-.005.006-.008a.474.474,0,0,1,.668-.007.469.469,0,0,1,.006.665L12.84,58.4A.472.472,0,0,1,12.5,58.552Zm0-20.662H12.5a.476.476,0,0,1-.335-.138L10.5,36.094a.469.469,0,0,1,.2-.8.452.452,0,0,1,.115-.014.471.471,0,0,1,.346.152l1.318,1.311,2.185-2.773.005-.005.006-.009a.475.475,0,0,1,.668-.006.469.469,0,0,1,.006.665L12.84,37.741A.467.467,0,0,1,12.5,37.89Zm0-20.661H12.5a.476.476,0,0,1-.335-.138L10.5,15.432a.464.464,0,0,1-.139-.462.473.473,0,0,1,.343-.34.494.494,0,0,1,.115-.014.472.472,0,0,1,.346.153l1.318,1.311,2.185-2.773.005-.006.006-.008a.475.475,0,0,1,.668-.006.462.462,0,0,1,.141.331.469.469,0,0,1-.135.334L12.84,17.078A.465.465,0,0,1,12.5,17.229Z" fill="#79b1bd"/>
</svg>
