<svg xmlns="http://www.w3.org/2000/svg" width="24.489" height="22.509" viewBox="0 0 24.489 22.509">
  <g id="Open" transform="translate(-170.801 -112.956)">
    <path id="Path_31762" data-name="Path 31762" d="M175.392,150.227h12.244a4.591,4.591,0,0,0,4.591-4.591v-4.591h-3.061v4.591a1.531,1.531,0,0,1-1.531,1.531H175.392a1.53,1.53,0,0,1-1.53-1.531V133.392a1.53,1.53,0,0,1,1.53-1.53h4.591V128.8h-4.591a4.592,4.592,0,0,0-4.591,4.591v12.244a4.591,4.591,0,0,0,4.591,4.591Z" transform="translate(0 -14.762)" fill="#4c4d55"/>
    <path id="Path_31763" data-name="Path 31763" d="M294.6,124.3l4.591-4.591a1.53,1.53,0,0,0,0-2.166l-4.591-4.591-2.166,2.166,1.978,1.978h-2.426a9.182,9.182,0,0,0-9.183,9.183v3.061h3.061v-3.061a6.122,6.122,0,0,1,6.122-6.122h2.426l-1.978,1.978Z" transform="translate(-104.349 0)" fill="#4c4d55"/>
  </g>
</svg>
