<svg xmlns="http://www.w3.org/2000/svg" width="73.227" height="68.437" viewBox="0 0 73.227 68.437">
  <g id="Add_employee" data-name="Add employee" transform="translate(7985 -24056)">
    <path id="Subtraction_72" data-name="Subtraction 72" d="M49.132,65.111H0c0-.012.008-.1.022-.262C.4,60.565,1.347,50.165,1.858,46.142a4.858,4.858,0,0,1,3.716-4.18c1.38-.359,3.008-.777,4.731-1.22,3.031-.779,6.166-1.584,7.811-2.032L29.5,46.53l11.458-7.819c2.506.76,8.368,2.224,11.638,3.03a13.379,13.379,0,0,0-4.847,3.106A13.556,13.556,0,0,0,43.8,54.377a13.381,13.381,0,0,0,5.328,10.732ZM29.574,34.917A12.528,12.528,0,0,1,17.265,24.775l-1.781-9.832A13.139,13.139,0,0,1,28.49,0h2.245A13.139,13.139,0,0,1,43.742,14.943l-1.935,9.832A12.385,12.385,0,0,1,29.574,34.917Z" transform="translate(-7985 24056)" fill="#79b1bd"/>
    <path id="add-user" d="M91.713,74.55a13.431,13.431,0,1,1-9.507,3.932A13.437,13.437,0,0,1,91.713,74.55Zm-2.434,7.068c0-.717-.066-1.205.825-1.205L93,80.449c.934,0,1.205.289,1.169,1.163v3.947h3.923c.717,0,1.205-.066,1.205.825l-.036,2.892c0,.934-.289,1.205-1.163,1.169H94.147v3.941c0,.88-.235,1.205-1.169,1.169l-2.892.036c-.892,0-.825-.506-.825-1.205V90.427H85.338c-.88,0-1.205-.235-1.169-1.169l-.036-2.892c0-.892.5-.825,1.205-.825H89.26V81.618Z" transform="translate(-8016.917 24023.014)" fill="#79b1bd" fill-rule="evenodd"/>
  </g>
</svg>
