<svg xmlns="http://www.w3.org/2000/svg" width="89.001" height="68.665" viewBox="0 0 89.001 68.665">
  <path id="Add_Paritair_comite" data-name="Add Paritair comite" d="M15933-3001.832a13.5,13.5,0,0,1,13.5-13.5,13.5,13.5,0,0,1,13.5,13.5,13.5,13.5,0,0,1-13.5,13.5A13.5,13.5,0,0,1,15933-3001.832Zm5.628-1.122v2.251a1.122,1.122,0,0,0,1.121,1.122h4.5v4.5a1.126,1.126,0,0,0,1.125,1.126h2.251a1.122,1.122,0,0,0,1.126-1.126v-4.5h4.5a1.12,1.12,0,0,0,1.121-1.122v-2.255a1.122,1.122,0,0,0-1.121-1.121h-4.507v-4.5a1.125,1.125,0,0,0-1.121-1.125h-2.251a1.122,1.122,0,0,0-1.126,1.125v4.5h-4.5A1.121,1.121,0,0,0,15938.628-3002.953Zm-15.285,11.62H15912.4v-61.027a4.644,4.644,0,0,1,4.639-4.638h25.742a4.641,4.641,0,0,1,4.639,4.638v35.184a15.25,15.25,0,0,0-1.719-.1,14.741,14.741,0,0,0-14.724,14.724,14.766,14.766,0,0,0,.753,4.654h-8.388v6.565Zm4.382-17.508h4.378v-4.378h-4.378Zm-8.756,0h4.378v-4.378h-4.378Zm17.513-10.947h4.373v-4.378h-4.373Zm-8.757,0h4.378v-4.378h-4.378Zm-8.756,0h4.378v-4.378h-4.378Zm17.513-10.943h4.373v-4.382h-4.373Zm-8.757,0h4.378v-4.382h-4.378Zm-8.756,0h4.378v-4.382h-4.378Zm17.513-10.947h4.373v-4.374h-4.373Zm-8.757,0h4.378v-4.374h-4.378Zm-8.756,0h4.378v-4.374h-4.378Zm-23.892,50.344v-6.565h-13.134v6.565H15871v-61.027a4.64,4.64,0,0,1,4.643-4.638h25.739a4.639,4.639,0,0,1,4.642,4.638v61.027Zm0-17.508h4.378v-4.382h-4.378Zm-8.752,0h4.374v-4.382h-4.374Zm-8.756,0h4.374v-4.382h-4.374Zm17.508-10.947h4.378v-4.378h-4.378Zm-8.752,0h4.374v-4.378h-4.374Zm-8.756,0h4.374v-4.378h-4.374Zm17.508-10.943h4.378v-4.378h-4.378Zm-8.752,0h4.374v-4.378h-4.374Zm-8.756,0h4.374v-4.378h-4.374Zm17.508-10.947h4.378v-4.378h-4.378Zm-8.752,0h4.374v-4.378h-4.374Zm-8.756,0h4.374v-4.378h-4.374Z" transform="translate(-15871 3056.999)" fill="#79b1bd"/>
</svg>
