<svg xmlns="http://www.w3.org/2000/svg" width="30.797" height="30.797" viewBox="0 0 30.797 30.797">
  <path id="Age_21" data-name="Age 21" d="M-4969.253,12016.517l-.088-.009a15.348,15.348,0,0,1-8.736-3.843.411.411,0,0,1-.042-.039h0l-.018-.018a15.343,15.343,0,0,1-4.593-7.591,15.543,15.543,0,0,1-.461-3.028,15.351,15.351,0,0,1,3.936-11.109,15.337,15.337,0,0,1,10.636-5.073h.015s.006,0,.012,0h.048c.006,0,.009,0,.015,0h.048l.012,0h.061c.006,0,.009,0,.015,0h.06a.034.034,0,0,0,.015,0h.084a.02.02,0,0,0,.012,0h.111a.027.027,0,0,0,.015,0h.588a.029.029,0,0,0,.015,0h.112a.011.011,0,0,0,.009,0h.091a.011.011,0,0,0,.009,0h.063a.011.011,0,0,1,.009,0h.063l.012,0h.045a.041.041,0,0,1,.019,0h.045l.027,0h.036a.011.011,0,0,0,.009,0h.037a.064.064,0,0,1,.027,0h.045a.038.038,0,0,0,.018,0h.021a.14.14,0,0,1,.015,0h.021a.023.023,0,0,1,.015,0h.036c.006,0,.009,0,.012,0h.027a.011.011,0,0,1,.009,0h.036a.07.07,0,0,0,.024,0h.012a.07.07,0,0,0,.024,0h.012a.07.07,0,0,0,.024,0h.012a.062.062,0,0,0,.024,0h.012a.058.058,0,0,0,.024,0h.009l0,0h.036a.052.052,0,0,0,.021,0h.012a.038.038,0,0,0,.018,0h.009s.009,0,.009,0h.027a.012.012,0,0,0,.009,0h.018s.006,0,.009,0h.009a.039.039,0,0,1,.018,0h.018c.006,0,.012,0,.018,0h.018a.035.035,0,0,0,.015,0h.012s0,0,.006,0h.018c.006,0,.009,0,.012,0a.04.04,0,0,1,.021,0h.012a.06.06,0,0,1,.024,0h.012c.009,0,.015,0,.024,0h.009s0,0,0,0h.024a.011.011,0,0,0,.009,0h0c.009,0,.015,0,.024,0h.009a.04.04,0,0,0,.018,0h.006c.006,0,.009,0,.012,0h.015a.012.012,0,0,0,.009,0h.012s.009,0,.015,0h.009a.011.011,0,0,0,.009,0,.038.038,0,0,1,.018,0h.019c.006,0,.012,0,.015,0h.012a.012.012,0,0,1,.009,0h.015l.009,0h.012a.119.119,0,0,0,.015,0h.009s.006,0,.012,0a.035.035,0,0,1,.015,0h.009a.024.024,0,0,1,.012,0h.012l.012,0h.009a.027.027,0,0,0,.015,0,.025.025,0,0,1,.012,0h.009a.034.034,0,0,1,.015,0h.009s.009,0,.012,0h.015s.006,0,.009,0h.009a.14.14,0,0,1,.015,0,.019.019,0,0,1,.012,0h.009a.119.119,0,0,1,.015,0h.012a.011.011,0,0,0,.009,0,.027.027,0,0,1,.015,0h.009c.006,0,.009,0,.012,0s.009,0,.012,0h.012s.006,0,.012,0h.012a.019.019,0,0,0,.012,0,.009.009,0,0,1,.009,0h.015a.011.011,0,0,1,.009,0h.012a.022.022,0,0,0,.012,0c.006,0,.009,0,.012,0h.012l.012,0a.023.023,0,0,1,.012,0h.012s.006,0,.012,0a.011.011,0,0,1,.009,0h.012a.022.022,0,0,0,.012,0c.006,0,.009,0,.012,0h.012a.018.018,0,0,0,.012,0s.006,0,.012,0h.012s.006,0,.012,0a.011.011,0,0,1,.009,0h.012a.023.023,0,0,0,.012,0c.009,0,.015,0,.024,0a.019.019,0,0,0,.012,0,.2.2,0,0,1,.021.006h.015l.033.009c.32.058.636.127.947.205l-.736,2.91a12.328,12.328,0,0,0-3.688-.358,12.323,12.323,0,0,0-8.565,4.086,12.3,12.3,0,0,0-3.167,8.945,12.309,12.309,0,0,0,4.083,8.564,12.309,12.309,0,0,0,8.945,3.167,12.3,12.3,0,0,0,8.565-4.084,12.324,12.324,0,0,0,3.169-8.947c-.009-.151-.021-.308-.033-.459l2.989-.268c0,.048.009.1.012.142h0a.09.09,0,0,0,0,.027v.039s0,0,0,.006v.036a.011.011,0,0,1,0,.009v.027s0,.006,0,.012v.036s0,0,0,0v.037s0,.006,0,.012v.036a.018.018,0,0,1,0,.012v.039a.012.012,0,0,0,0,.01v.051h0v.039a15.4,15.4,0,0,1-14.572,16.183c-.273.015-.546.021-.817.021C-4968.31,12016.583-4968.785,12016.561-4969.253,12016.517Zm4.979-9.518v-9.373h-1.4v-1.56h3.121V12007Zm-9.961-.148v-1.245c2.582-2.265,5.3-4.246,5.3-6.391,0-1.14-.495-1.921-1.771-1.921-1.2,0-1.846.842-1.891,2.072h-1.65a3.317,3.317,0,0,1,3.526-3.525,3.146,3.146,0,0,1,3.48,3.3c0,2.654-2.7,4.681-4.454,6.285h4.752v1.426Z" transform="translate(4983.216 -11985.786)" fill="#79b1bd"/>
</svg>
