<svg xmlns="http://www.w3.org/2000/svg" width="88.398" height="88.398" viewBox="0 0 88.398 88.398">
  <path id="Category" d="M60.3,88.4a10,10,0,0,1-10-10v-18.1a10,10,0,0,1,10-10H78.4a10,10,0,0,1,10,10V78.4a10,10,0,0,1-10,10ZM10,88.4a10,10,0,0,1-10-10v-18.1a10,10,0,0,1,10-10H28.1a10,10,0,0,1,10,10V78.4a10,10,0,0,1-10,10ZM60.3,38.1a10,10,0,0,1-10-10V10a10,10,0,0,1,10-10H78.4a10,10,0,0,1,10,10V28.1a10,10,0,0,1-10,10ZM10,38.1a10,10,0,0,1-10-10V10A10,10,0,0,1,10,0H28.1a10,10,0,0,1,10,10V28.1a10,10,0,0,1-10,10Z" transform="translate(0.001 0.001)" fill="#79b1bd"/>
</svg>
