<svg xmlns="http://www.w3.org/2000/svg" width="46.321" height="45" viewBox="0 0 46.321 45">
  <g id="Configurations_and_settings" data-name="Configurations and settings" transform="translate(0 51.85) rotate(-90)">
    <g id="Group_27051" data-name="Group 27051" transform="translate(6.85)">
      <path id="Path_32578" data-name="Path 32578" d="M180.058,22.577V1.3a1.3,1.3,0,1,0-2.6,0V22.577a6.611,6.611,0,0,0,0,12.962v9.471a1.3,1.3,0,1,0,2.6,0V35.539a6.611,6.611,0,0,0,0-12.962Zm-1.3,10.483a4,4,0,1,1,4-4A4,4,0,0,1,178.756,33.06Z" transform="translate(-156.208)" fill="#79b1bd"/>
      <path id="Path_32579" data-name="Path 32579" d="M14.758,11.66V1.3a1.3,1.3,0,1,0-2.6,0V11.66a6.611,6.611,0,0,0,0,12.962V45.009a1.3,1.3,0,1,0,2.6,0v-20.4a6.606,6.606,0,0,0,0-12.952Zm-1.3,10.483a4,4,0,1,1,4-4A4,4,0,0,1,13.456,22.143Z" transform="translate(-6.85)" fill="#79b1bd"/>
      <path id="Path_32580" data-name="Path 32580" d="M344.358,11.66V1.3a1.3,1.3,0,0,0-2.6,0V11.66a6.611,6.611,0,0,0,0,12.962v20.4a1.3,1.3,0,0,0,2.6,0V24.612a6.606,6.606,0,0,0,0-12.952Zm-1.3,10.483a4,4,0,1,1,4-4A4,4,0,0,1,343.056,22.143Z" transform="translate(-304.663)" fill="#79b1bd"/>
    </g>
  </g>
</svg>
