<svg xmlns="http://www.w3.org/2000/svg" width="61.872" height="65.156" viewBox="0 0 61.872 65.156">
  <g id="cooperation_agreement" data-name="cooperation agreement" transform="translate(-166.038 -69.884)">
    <path id="Path_31552" data-name="Path 31552" d="M397.77,249.2h0l-15.781,19.732-2.539,8.924,7.607-5.108,9.444-13.365h0l3.222-4.561.01-.015,4.514-6.1-3.8-2.864Z" transform="translate(-181.086 -148.702)" fill="#79b1bd"/>
    <path id="Path_31554" data-name="Path 31554" d="M437.31,75.7v5.451h6.541Z" transform="translate(-229.982 -4.917)" fill="#79b1bd"/>
    <path id="Path_31555" data-name="Path 31555" d="M206.977,125.287l-9.521,6.393,0,0,0,0-.009.005a.889.889,0,0,1-.084.048l-.013.007-.02.008c-.022.01-.045.018-.068.026l-.024.008-.016,0a.687.687,0,0,1-.07.015l-.029.005h-.008a.821.821,0,0,1-.1.007H197l-.036,0c-.025,0-.05,0-.076-.006l-.007,0c-.013,0-.025-.006-.038-.008s-.048-.01-.071-.018l-.009,0c-.013,0-.026-.011-.039-.016s-.043-.016-.064-.026l-.01,0c-.013-.007-.026-.016-.039-.024s-.031-.016-.045-.026c-.044-.03-4.421-2.941-7.141-1.582a5.709,5.709,0,0,1-2.554.52c-3.418,0-7.469-2-7.684-2.108a.794.794,0,1,1,.71-1.421c1.67.833,6.509,2.743,8.818,1.588,2.68-1.341,6.172.222,7.816,1.13l2.893-10.166a.814.814,0,0,1,.075-.173.788.788,0,0,1,.068-.106l15.708-19.639v-21.9h-8.734a.794.794,0,0,1-.794-.794V69.884h-39.7v62.729c0,.068.05,2.364,0,2.427,0,0,49.23-.045,49.23-.045V113.643l-8.086,11.443a.8.8,0,0,1-.206.2ZM190.653,73.853h3.176v3.176h-3.176Zm-6.352,0h3.176v3.176H184.3Zm-6.353,0h3.176v3.176h-3.176Zm-6.352,0h3.176v3.176H171.6Zm0,7.147H201.77a.794.794,0,0,1,0,1.588H171.6a.794.794,0,1,1,0-1.588Zm0,4.764h34.938a.794.794,0,0,1,0,1.588H171.6a.794.794,0,0,1,0-1.589Zm0,4.765h27a.794.794,0,0,1,0,1.588h-27a.794.794,0,1,1,0-1.588Zm0,4.765h23.821a.794.794,0,1,1,0,1.588H171.6a.794.794,0,1,1,0-1.588Zm0,4.764h19.058a.794.794,0,1,1,0,1.588H171.6a.794.794,0,1,1,0-1.588Zm0,4.765h27a.794.794,0,0,1,0,1.588h-27a.794.794,0,1,1,0-1.588Zm-.794,5.558a.794.794,0,0,1,.794-.794h27a.794.794,0,0,1,0,1.588h-27A.794.794,0,0,1,170.8,110.379Z" fill="#79b1bd"/>
    <path id="Path_31556" data-name="Path 31556" d="M525,204.89l-3.763,5.087,1.5,1.132,2.275,1.716,3.8-5.086Z" transform="translate(-300.908 -114.088)" fill="#79b1bd"/>
  </g>
</svg>
