<svg xmlns="http://www.w3.org/2000/svg" width="106.452" height="88.397" viewBox="0 0 106.452 88.397">
  <path id="Function" d="M62,92.354a.669.669,0,0,1-.632-.542l-.418-3.4a9.438,9.438,0,0,1-2.141-1.3l-3.212,1.226a.648.648,0,0,1-.783-.288l-2.488-4.474a.646.646,0,0,1,.161-.821l2.75-2.076a9.715,9.715,0,0,1-.07-1.265,9.21,9.21,0,0,1,.113-1.243L52.6,76a.646.646,0,0,1-.132-.826l2.644-4.386a.648.648,0,0,1,.792-.261l3.167,1.337a9.835,9.835,0,0,1,2.185-1.225l.536-3.378a.665.665,0,0,1,.651-.538l5.132.09a.669.669,0,0,1,.632.542l.418,3.4a9.431,9.431,0,0,1,2.144,1.3l3.209-1.226a.648.648,0,0,1,.783.288l2.489,4.475a.646.646,0,0,1-.161.821l-2.75,2.076a9.748,9.748,0,0,1,.069,1.264h0A9.227,9.227,0,0,1,74.294,81l2.676,2.171a.646.646,0,0,1,.132.826l-2.644,4.386a.648.648,0,0,1-.792.261L70.5,87.3a9.836,9.836,0,0,1-2.185,1.225l-.536,3.379a.665.665,0,0,1-.651.538ZM60.327,79.506a4.458,4.458,0,1,0,4.535-4.38h-.079A4.458,4.458,0,0,0,60.327,79.506ZM30.168,73.678A1.817,1.817,0,0,1,28.452,72.2l-1.135-9.224A25.624,25.624,0,0,1,21.5,59.445l-8.727,3.33a1.761,1.761,0,0,1-2.127-.782L3.886,49.837a1.755,1.755,0,0,1,.437-2.23l7.471-5.641a26.433,26.433,0,0,1-.19-3.438,25.071,25.071,0,0,1,.307-3.378l-7.27-5.9a1.755,1.755,0,0,1-.359-2.244l7.182-11.915a1.761,1.761,0,0,1,2.153-.71l8.6,3.632a26.725,26.725,0,0,1,5.936-3.329l1.457-9.178a1.806,1.806,0,0,1,1.767-1.462l13.942.243A1.817,1.817,0,0,1,47.04,5.764l1.135,9.224A25.631,25.631,0,0,1,54,18.524l8.719-3.33a1.761,1.761,0,0,1,2.127.782l6.762,12.158a1.755,1.755,0,0,1-.437,2.23L63.7,36a26.416,26.416,0,0,1,.188,3.434v0a25.072,25.072,0,0,1-.307,3.378l7.27,5.9a1.755,1.755,0,0,1,.359,2.244L64.027,62.875a1.761,1.761,0,0,1-2.153.71l-8.6-3.632a26.72,26.72,0,0,1-5.936,3.329L45.878,72.46a1.806,1.806,0,0,1-1.767,1.461Zm-4.531-34.9a12.11,12.11,0,1,0,12.32-11.9l-.215,0A12.111,12.111,0,0,0,25.637,38.773ZM87.976,65.787,86.83,60.834a14.019,14.019,0,0,1-3.367-1.591l-4.558,2.311a.963.963,0,0,1-1.2-.3l-4.373-6.227a.96.96,0,0,1,.11-1.238l3.742-3.5a14.448,14.448,0,0,1-.3-1.86,13.7,13.7,0,0,1-.026-1.855l-4.292-2.793a.96.96,0,0,1-.324-1.2l3.226-6.893a.963.963,0,0,1,1.131-.509l4.888,1.484a14.622,14.622,0,0,1,3.039-2.151l.268-5.077a.988.988,0,0,1,.878-.9l7.6-.665a.994.994,0,0,1,1.018.7l1.145,4.953a14.018,14.018,0,0,1,3.371,1.591l4.553-2.31a.963.963,0,0,1,1.2.3l4.374,6.228a.96.96,0,0,1-.11,1.238l-3.742,3.5a14.45,14.45,0,0,1,.3,1.857h0a13.716,13.716,0,0,1,.026,1.855l4.292,2.793a.96.96,0,0,1,.324,1.2L106.8,58.677a.963.963,0,0,1-1.131.509L100.778,57.7a14.618,14.618,0,0,1-3.039,2.151l-.268,5.077a.988.988,0,0,1-.878.9l-7.6.665-.067,0A.994.994,0,0,1,87.976,65.787Zm2.579-25.205a6.64,6.64,0,1,0,.566-.024Q90.84,40.558,90.555,40.582Z" transform="translate(-3.662 -4.047)" fill="#79b1bd"/>
</svg>
