<svg xmlns="http://www.w3.org/2000/svg" width="46.198" height="68.657" viewBox="0 0 46.198 68.657">
  <g id="Manage_location" data-name="Manage location" transform="translate(7815 -24053.232)">
    <path id="Ellipse_244" data-name="Ellipse 244" d="M23.1,1.743a42.625,42.625,0,0,0-8.637.854A29.3,29.3,0,0,0,7.533,4.884a13.929,13.929,0,0,0-4.4,3.175,5.033,5.033,0,0,0-1.392,3.272A5.033,5.033,0,0,0,3.136,14.6a13.929,13.929,0,0,0,4.4,3.175,29.3,29.3,0,0,0,6.929,2.287,42.625,42.625,0,0,0,8.637.854,42.625,42.625,0,0,0,8.637-.854,29.3,29.3,0,0,0,6.929-2.287,13.929,13.929,0,0,0,4.4-3.175,5.033,5.033,0,0,0,1.392-3.272,5.033,5.033,0,0,0-1.392-3.272,13.929,13.929,0,0,0-4.4-3.175A29.3,29.3,0,0,0,31.736,2.6,42.625,42.625,0,0,0,23.1,1.743M23.1,0C35.856,0,46.2,5.073,46.2,11.332S35.856,22.663,23.1,22.663,0,17.59,0,11.332,10.342,0,23.1,0Z" transform="translate(-7815 24099.227)" fill="#79b1bd"/>
    <path id="Subtraction_73" data-name="Subtraction 73" d="M18.426,57.327h0A163.131,163.131,0,0,1,9.213,43.251a99.148,99.148,0,0,1-6.334-12.7C.969,25.774,0,21.7,0,18.426A18.427,18.427,0,0,1,31.456,5.4a18.305,18.305,0,0,1,5.4,13.029c0,3.269-.969,7.348-2.879,12.124a99.147,99.147,0,0,1-6.334,12.7,163.164,163.164,0,0,1-9.213,14.075ZM14.75,22.912h0a5.787,5.787,0,0,0,1.316.8l.257,2.088a.409.409,0,0,0,.388.333l3.156.056a.409.409,0,0,0,.4-.331l.33-2.077a6.008,6.008,0,0,0,1.343-.753l1.947.822a.4.4,0,0,0,.148.029.4.4,0,0,0,.339-.189L26,20.991a.4.4,0,0,0-.081-.508l-1.646-1.334a5.706,5.706,0,0,0,.07-.765,6.155,6.155,0,0,0-.042-.777l1.691-1.276a.4.4,0,0,0,.1-.5l-1.531-2.751a.4.4,0,0,0-.481-.177l-1.973.754a5.81,5.81,0,0,0-1.319-.8l-.257-2.087a.41.41,0,0,0-.389-.333l-3.155-.055a.409.409,0,0,0-.4.33l-.329,2.077a6.041,6.041,0,0,0-1.343.753l-1.947-.822a.4.4,0,0,0-.488.161l-1.625,2.7a.4.4,0,0,0,.082.508l1.645,1.335a5.68,5.68,0,0,0-.069.764,6.02,6.02,0,0,0,.043.778l-1.691,1.276a.4.4,0,0,0-.1.5l1.53,2.751a.4.4,0,0,0,.482.177l1.975-.753Zm3.678-1.889h-.049a2.741,2.741,0,0,1,.046-5.481h.049a2.756,2.756,0,0,1,2.693,2.788,2.741,2.741,0,0,1-2.74,2.693Z" transform="translate(-7810.328 24053.232)" fill="#79b1bd"/>
  </g>
</svg>
