<svg xmlns="http://www.w3.org/2000/svg" width="79.502" height="71.235" viewBox="0 0 79.502 71.235">
  <path id="Manage_cost_center" data-name="Manage cost center" d="M14171.332,12860.4a16.5,16.5,0,1,1,11.667,4.832A16.394,16.394,0,0,1,14171.332,12860.4Zm16.164-2.665h4v-11h-4Zm-6.5,0h4v-14h-4Zm-6.5,0h4v-17h-4Zm-11.083-5.3H14130.5v-31.167l25.633-17.4,25.366,17.4v6.475a34.115,34.115,0,0,0-5.186,2.071,23.918,23.918,0,0,0-8.577,6.7,24.505,24.505,0,0,0-3.853,10.277,34.964,34.964,0,0,0-.463,5.645Zm-23.416-16.7h3.884a11.95,11.95,0,0,0,2.406,3.941,10.562,10.562,0,0,0,15.814,0l-2.213-2.028a7.563,7.563,0,0,1-11.393,0,8.77,8.77,0,0,1-1.3-1.913h6.3v-3h-7.291a9.7,9.7,0,0,1-.132-1.5,9.6,9.6,0,0,1,.132-1.5h7.291v-3h-6.3a8.821,8.821,0,0,1,1.3-1.91,7.562,7.562,0,0,1,11.4,0l2.213-2.028a10.559,10.559,0,0,0-15.818,0,11.977,11.977,0,0,0-2.406,3.938H14140v3h3.172a11.662,11.662,0,0,0,0,3H14140Zm-19.668-16.442a2,2,0,0,1,.563-2.772l33.448-22.187a2,2,0,0,1,2.227.011l32.774,22.188a2,2,0,1,1-2.241,3.311l-31.666-21.436-32.333,21.446a1.968,1.968,0,0,1-1.1.335A2,2,0,0,1,14120.333,12819.293Z" transform="translate(-14120 -12793.999)" fill="#79b1bd"/>
</svg>
