<svg xmlns="http://www.w3.org/2000/svg" width="48.307" height="49.51" viewBox="0 0 48.307 49.51">
  <path id="Union_32" data-name="Union 32" d="M-6726.769,194.834a1.286,1.286,0,0,1-1.216-1.043l-.8-6.536a18.154,18.154,0,0,1-4.122-2.506l-6.185,2.36a1.247,1.247,0,0,1-1.507-.554l-4.791-8.613a1.243,1.243,0,0,1,.311-1.58l5.294-4a18.8,18.8,0,0,1-.136-2.436,18.031,18.031,0,0,1,.219-2.394l-5.152-4.179a1.245,1.245,0,0,1-.254-1.591l5.089-8.442a1.248,1.248,0,0,1,1.526-.5l6.1,2.573a18.941,18.941,0,0,1,4.207-2.359l1.031-6.5a1.282,1.282,0,0,1,1.254-1.035l9.879.173a1.285,1.285,0,0,1,1.217,1.043l.8,6.536a18.157,18.157,0,0,1,4.129,2.506l6.178-2.36a1.246,1.246,0,0,1,1.506.554l4.793,8.614a1.246,1.246,0,0,1-.31,1.58l-5.295,4a18.593,18.593,0,0,1,.133,2.434h0a17.866,17.866,0,0,1-.217,2.394l5.151,4.179a1.245,1.245,0,0,1,.255,1.591l-5.09,8.442a1.247,1.247,0,0,1-1.525.5l-6.1-2.573a18.9,18.9,0,0,1-4.207,2.359l-1.032,6.5a1.279,1.279,0,0,1-1.252,1.035Zm5.221-16a8.585,8.585,0,0,0,8.02-5.153h-2.977l-.028-.272a2.553,2.553,0,0,0-.678-1.478,2.547,2.547,0,0,0-1.434-.767l-.244-.041a1.651,1.651,0,0,1,.364-.107l1.418-.239.551.287a.19.19,0,0,0,.175,0l.55-.287,1.418.239a1.611,1.611,0,0,1,.912.486,1.618,1.618,0,0,1,.421.867,8.582,8.582,0,0,0,.262-1.967,8.606,8.606,0,0,0-8.43-8.73,8.581,8.581,0,0,0-8.73,8.431,8.542,8.542,0,0,0,.263,2.27,1.609,1.609,0,0,1,.422-.872,1.612,1.612,0,0,1,.911-.486l1.418-.239.551.287a.188.188,0,0,0,.174,0l.55-.287,1.418.239a1.621,1.621,0,0,1,.364.107l-.244.041h0a2.547,2.547,0,0,0-1.434.767,2.547,2.547,0,0,0-.678,1.478h0l-.028.272h-2.979A8.584,8.584,0,0,0-6721.548,178.832Zm-4.511-3.707.171-1.679a2.167,2.167,0,0,1,.577-1.259,2.168,2.168,0,0,1,1.221-.653l.742-.124h0l1.127-.189.734.385a.19.19,0,0,0,.175,0l.735-.385,1.126.189h0l.743.124a2.168,2.168,0,0,1,1.22.653,2.161,2.161,0,0,1,.577,1.259l.171,1.679Zm3.4-4.936a2.11,2.11,0,0,1-.506-1.362V168a1.6,1.6,0,0,1,.47-1.134,1.6,1.6,0,0,1,1.134-.47h.334a1.6,1.6,0,0,1,1.134.47,1.606,1.606,0,0,1,.472,1.134v.829a2.107,2.107,0,0,1-.506,1.361,2.111,2.111,0,0,1-1.264.715A2.113,2.113,0,0,1-6722.663,170.188Zm5.254-.209a1.578,1.578,0,0,1-.375-1.012v-.636a1.191,1.191,0,0,1,.348-.838,1.194,1.194,0,0,1,.838-.348h.256a1.194,1.194,0,0,1,.839.348,1.185,1.185,0,0,1,.348.838v.636a1.569,1.569,0,0,1-.374,1.012,1.581,1.581,0,0,1-.938.534A1.578,1.578,0,0,1-6717.409,169.979Zm-9.855,0a1.57,1.57,0,0,1-.375-1.012v-.636a1.191,1.191,0,0,1,.348-.838,1.194,1.194,0,0,1,.838-.348h.256a1.194,1.194,0,0,1,.839.348,1.192,1.192,0,0,1,.349.838v.636a1.579,1.579,0,0,1-.376,1.012,1.587,1.587,0,0,1-.939.534A1.576,1.576,0,0,1-6727.265,169.979Z" transform="translate(6745.551 -145.497)" fill="#79b1bd"/>
</svg>
