<svg xmlns="http://www.w3.org/2000/svg" width="74.714" height="67.999" viewBox="0 0 74.714 67.999">
  <path id="Manage_employee" data-name="Manage employee" d="M54.579,67.882a.879.879,0,0,1-.83-.711L53.2,62.713A12.36,12.36,0,0,1,50.39,61l-4.218,1.609a.85.85,0,0,1-1.027-.378l-3.268-5.874a.85.85,0,0,1,.211-1.078L45.7,52.558a12.836,12.836,0,0,1-.091-1.662,12.237,12.237,0,0,1,.148-1.632l-3.513-2.849a.848.848,0,0,1-.174-1.084l3.471-5.758a.851.851,0,0,1,1.04-.343l4.158,1.755a12.939,12.939,0,0,1,2.869-1.608l.7-4.435a.873.873,0,0,1,.855-.707l6.738.118a.877.877,0,0,1,.829.712l.549,4.457A12.392,12.392,0,0,1,66.1,41.231l4.213-1.609A.85.85,0,0,1,71.337,40l3.268,5.874a.847.847,0,0,1-.211,1.078l-3.611,2.725a12.81,12.81,0,0,1,.091,1.659h0a12.235,12.235,0,0,1-.148,1.632l3.513,2.851a.848.848,0,0,1,.174,1.084l-3.471,5.757A.852.852,0,0,1,69.9,63l-4.157-1.755a12.9,12.9,0,0,1-2.869,1.608l-.7,4.436a.872.872,0,0,1-.855.706Zm-2.19-16.866a5.852,5.852,0,1,0,5.954-5.749h-.1A5.852,5.852,0,0,0,52.389,51.015ZM49.7,61.7h-.641l.422-.17c.073.057.146.112.22.168l0,0Zm-6.7,0H0c0-.011.008-.1.021-.248.363-4.06,1.257-13.915,1.74-17.727a4.605,4.605,0,0,1,3.521-3.961c1.308-.34,2.851-.736,4.484-1.155,2.872-.738,5.843-1.5,7.4-1.926l10.785,7.41,10.858-7.41c1,.3,2.673.757,4.985,1.352a.809.809,0,0,0-.045.068l-3.7,6.386a.926.926,0,0,0,.211,1.186l3.911,3.061a13.26,13.26,0,0,0-.132,1.794,14.014,14.014,0,0,0,.133,1.822l-3.911,3.061a.928.928,0,0,0-.211,1.187l2.955,5.1v0Zm6.476-22.148h0l-.564-.226.651.16-.085.066ZM20.46,30.374a11.976,11.976,0,0,1-4.1-6.9L14.673,14.16A12.452,12.452,0,0,1,27,0h2.128A12.452,12.452,0,0,1,41.452,14.16l-1.834,9.317a11.735,11.735,0,0,1-11.593,9.611A11.892,11.892,0,0,1,20.46,30.374Z" fill="#79b1bd"/>
</svg>
