<svg xmlns="http://www.w3.org/2000/svg" width="48.261" height="61.631" viewBox="0 0 48.261 61.631">
  <path id="Manage_project" data-name="Manage project" d="M37.157,61.631a.494.494,0,0,1-.474-.394l-.352-2.51a6.943,6.943,0,0,1-1.6-.937l-2.355.95a.477.477,0,0,1-.581-.2l-1.893-3.283a.479.479,0,0,1,.108-.61l2-1.574a7.156,7.156,0,0,1-.068-.937,6.808,6.808,0,0,1,.067-.922l-2-1.574a.48.48,0,0,1-.108-.61L31.8,45.743a.478.478,0,0,1,.581-.2l2.354.95a7.278,7.278,0,0,1,1.6-.936l.352-2.51a.491.491,0,0,1,.473-.407h3.788a.494.494,0,0,1,.474.394l.352,2.51a6.931,6.931,0,0,1,1.6.937l2.353-.95a.477.477,0,0,1,.581.2L48.2,49.014a.48.48,0,0,1-.108.61l-2,1.574a7.26,7.26,0,0,1,.067.936,6.811,6.811,0,0,1-.067.923l2,1.574a.479.479,0,0,1,.108.61L46.3,58.524a.478.478,0,0,1-.581.2l-2.354-.95a7.278,7.278,0,0,1-1.6.936l-.352,2.51a.491.491,0,0,1-.473.407Zm-1.4-9.5a3.29,3.29,0,1,0,3.29-3.3A3.3,3.3,0,0,0,35.761,52.133Zm-5.073.143h0Zm0,0H0V0H40.044V41.227l-3.213-.056a.563.563,0,0,0-.549.456l-.453,2.864a8.353,8.353,0,0,0-1.845,1.039L31.311,44.4a.548.548,0,0,0-.67.221L28.41,48.335a.546.546,0,0,0,.111.7l2.26,1.841a7.9,7.9,0,0,0-.1,1.055c0,.114,0,.23,0,.345ZM5.3,43.43H34.932V41.017H5.3Zm0-4.022H34.932V37H5.3Zm0-4.021H34.932V32.975H5.3Zm0-4.022H34.932V28.953H5.3Zm20.323-7.64h3.09V9.406h-3.09Zm-5.4,0h3.091V14.988H20.225Zm-5.4,0h3.09V11.833h-3.09Zm-5.047,0h2.738V16.2H9.78ZM9.116,11.591a1.526,1.526,0,1,0,3.051,0A1.6,1.6,0,0,0,11.9,10.7l3.049-2.616A1.492,1.492,0,0,0,17.2,8l2.79,1.875a1.618,1.618,0,0,0-.078.5,1.526,1.526,0,1,0,3.051,0,1.607,1.607,0,0,0-.234-.84l3.22-3.458a1.474,1.474,0,0,0,.887.294A1.578,1.578,0,1,0,25.31,4.795a1.6,1.6,0,0,0,.3.944l-3.194,3.43a1.491,1.491,0,0,0-2.211.276L17.446,7.589a1.6,1.6,0,0,0,.118-.61,1.526,1.526,0,1,0-3.051,0,1.6,1.6,0,0,0,.161.706l-3.1,2.659a1.472,1.472,0,0,0-.934-.331A1.555,1.555,0,0,0,9.116,11.591Z" fill="#79b1bd"/>
</svg>
