<svg id="My_account" data-name="My account" xmlns="http://www.w3.org/2000/svg" width="59.072" height="65.11" viewBox="0 0 59.072 65.11">
  <path id="Subtraction_72" data-name="Subtraction 72" d="M59.072,65.111H0c0-.01.006-.082.017-.208.382-4.288,1.325-14.7,1.84-18.76a4.862,4.862,0,0,1,3.716-4.181c1.361-.354,2.964-.765,4.662-1.2l.012,0c3.055-.784,6.214-1.6,7.869-2.047L29.5,46.53l11.459-7.82c2.791.847,9.7,2.556,12.542,3.252a5.068,5.068,0,0,1,3.716,4.181c.614,4.828,1.846,18.826,1.858,18.966h0Zm-29.5-30.194A12.528,12.528,0,0,1,17.265,24.774l-1.781-9.832A13.119,13.119,0,0,1,28.49,0h2.245A13.132,13.132,0,0,1,43.742,14.943l-1.935,9.832A12.384,12.384,0,0,1,29.574,34.916Z" transform="translate(0 0)" fill="#79b1bd"/>
</svg>
