<svg xmlns="http://www.w3.org/2000/svg" width="71.997" height="84" viewBox="0 0 71.997 84">
  <path id="My_contract" data-name="My contract" d="M2,84a2,2,0,0,1-2-2V2A2,2,0,0,1,2,0H59a2,2,0,0,1,2,2V82a2,2,0,0,1-2,2ZM30.8,73.034a.5.5,0,0,0-.257.659l.005.013a30.838,30.838,0,0,0,1.446,2.814c1.186,2.03,2.211,3.137,3.135,3.388a1.57,1.57,0,0,0,.4.055,1.386,1.386,0,0,0,.825-.273,1.411,1.411,0,0,0,.653-1.067c.049-.843-.763-1.595-1.55-2.322l0,0c-.445-.411-1.273-1.177-1.129-1.42a1.619,1.619,0,0,1,1.516-.653,9.472,9.472,0,0,1,3.112.715,23.8,23.8,0,0,1,4.885,2.722l.005,0a6.841,6.841,0,0,0,2.808,1.448H46.7a.971.971,0,0,0,.9-.429c.382-.619-.1-1.534-.663-2.593l-.014-.026a7.431,7.431,0,0,1-.653-1.463c1.288.007,5.459,2.713,7.786,4.415a.5.5,0,0,0,.59-.807c-.012-.009-1.581-1.155-3.35-2.274C47.607,73.6,46.6,73.6,46.263,73.6a.932.932,0,0,0-.87.426c-.362.6.109,1.492.654,2.525l0,.005a7.066,7.066,0,0,1,.685,1.554h-.056a7.935,7.935,0,0,1-2.264-1.271l-.011-.007A24.63,24.63,0,0,0,39.306,74a10.7,10.7,0,0,0-3.359-.778h-.105a2.54,2.54,0,0,0-2.374,1.145c-.555.94.437,1.855,1.312,2.663.529.49,1.255,1.161,1.233,1.533-.005.1-.087.2-.243.316a.4.4,0,0,1-.238.083.536.536,0,0,1-.142-.022c-1.2-.324-3.048-3.638-3.932-5.651a.5.5,0,0,0-.659-.257ZM9.471,66.507H48.008V64.685H9.471Zm0-4.861H48.008V59.823H9.471Zm0-8.8H48.008V51.023H9.471Zm0-4.862H48.008V46.161H9.471Zm0-8.8H48.008V37.362H9.471Zm0-4.861H48.008V32.5H9.471ZM26.355,22.274l-2.116,2.161a2.292,2.292,0,0,0,1.734,1.246,2.066,2.066,0,0,0,1.595-.767,3.591,3.591,0,0,0-.424-2.4.891.891,0,0,0-.612-.265A.71.71,0,0,0,26.355,22.274ZM26.007,20a1.767,1.767,0,0,1,.608,1.375,1.678,1.678,0,0,1,1.073.478c.938.87.684,3.284.679,3.306a2.557,2.557,0,0,0,.832.114,2.765,2.765,0,0,0,2.267-.907L28.68,22.131a.461.461,0,0,1-.08-.617.4.4,0,0,1,.33-.175.389.389,0,0,1,.248.089l3.262,2.622a3.882,3.882,0,0,0,1.2-.293,2.241,2.241,0,0,0,1.056-.925l-3.581-2.878a.457.457,0,0,1-.081-.615.407.407,0,0,1,.33-.176.393.393,0,0,1,.248.089l3.774,3.033a4.539,4.539,0,0,0,1.114-.7,2.483,2.483,0,0,0,.657-.975l-3.553-2.855a.458.458,0,0,1-.081-.616.4.4,0,0,1,.579-.086l3.8,3.052a2.662,2.662,0,0,0,1.068-.591,2.071,2.071,0,0,0,.5-.808l-.073-.073c-1.411-1.413-6.08-6.072-6.9-6.682a6.561,6.561,0,0,0-1.816-.636,7.6,7.6,0,0,1-3.605,1.315,2.271,2.271,0,0,1-1.641-.612,4.218,4.218,0,0,1-.958-3.175l.029-.264,1.372-.572-.218-.243L18.806,6.325l-2.1,12.013c.516.046.947.082,1.146.1l1.953-1.665a1.619,1.619,0,0,1,.956-.311,1.5,1.5,0,0,1,.883.289,3.06,3.06,0,0,1,1.006,1.177,1.8,1.8,0,0,1,.508-.077,1.262,1.262,0,0,1,.859.314,2.187,2.187,0,0,1,.846,1.535c.065-.005.125-.008.189-.008A1.442,1.442,0,0,1,26.007,20Zm-1.394.626-2.271,2.148a1.817,1.817,0,0,0,.428.74,1.669,1.669,0,0,0,.747.436l2.247-2.3a.9.9,0,0,0-.271-.966.823.823,0,0,0-.508-.168A.647.647,0,0,0,24.613,20.629Zm-1.708-1.813-2.461,2.257a1.718,1.718,0,0,0,.433.832,1.561,1.561,0,0,0,.709.412c.149-.142,2.387-2.286,2.4-2.306.056-.075.293-.481-.5-1.173a.446.446,0,0,0-.3-.1A.552.552,0,0,0,22.905,18.816ZM20.29,17.483l-1.454,1.239a2.115,2.115,0,0,0,.57,1.213,1.9,1.9,0,0,0,.574.4l1.992-1.885a2.087,2.087,0,0,0-.787-.976.822.822,0,0,0-.473-.182A.6.6,0,0,0,20.29,17.483ZM13.155,5.634,11.374,16.628a.561.561,0,0,0,.095.417c.094.113.572.679.7.69l.27.024.407.036h.006c.737.066,1.852.165,2.734.24l2.1-12.014-3.837-.8-.017,0C13.674,5.216,13.176,5.5,13.155,5.634Zm19.819,5.6c.863.643,5.3,5.072,6.645,6.415,0-.011,0-.023,0-.033a.45.45,0,0,0,0-.049L42.029,16.1,39.476,7.35a12.553,12.553,0,0,0-4.622-1.47,5.449,5.449,0,0,0-.619-.031,13.534,13.534,0,0,0-4.6.839A23.379,23.379,0,0,1,25.293,9.2a3.1,3.1,0,0,0,.7,2.172,1.518,1.518,0,0,0,1.1.387,6.93,6.93,0,0,0,3.286-1.271l.14-.1A9.369,9.369,0,0,1,32.974,11.229Zm10.1,4.149a5.727,5.727,0,0,0,.551,1l.475.222a.485.485,0,0,0,.2.045.471.471,0,0,0,.17-.031l4.609-1.746a2.98,2.98,0,0,0,.554-1.151l-2.479-9a.971.971,0,0,0-.615-.362.1.1,0,0,0-.041.006l-.154.059c-2.2.841-5.886,2.255-5.92,2.284l-.011-.006L40.4,6.7l2.554,8.746.112-.068h0ZM63.51,77.188C63.4,77,63.1,31.4,63.1,31.4c0-.3,1.565-1.352,4.6-1.45,3.06-.1,4.3,1.091,4.3,1.394,0,0,.026,45.5-.146,45.8l-1.5,2.627c-2.054,3.442-2.39,3.479-2.533,3.543h0l-.018.008Zm1.3-.657,2.927,4.791L70.549,76.5Z" fill="#79b1bd"/>
</svg>
