<svg xmlns="http://www.w3.org/2000/svg" width="51.277" height="61.765" viewBox="0 0 51.277 61.765">
  <path id="Union_35" data-name="Union 35" d="M-6711.317,206.21l-.572-3.608a10.076,10.076,0,0,1-2.333-1.309l-3.383,1.427a.692.692,0,0,1-.846-.278l-2.822-4.683a.688.688,0,0,1,.142-.88l2.856-2.319a10.275,10.275,0,0,1-.12-1.348,9.713,9.713,0,0,1,.075-1.331l-2.937-2.216a.69.69,0,0,1-.171-.877l2.656-4.778a.691.691,0,0,1,.836-.308l3.43,1.309a10.513,10.513,0,0,1,2.285-1.39l.447-3.625a.707.707,0,0,1,.674-.6l5.48-.1a.715.715,0,0,1,.694.555l.572,3.608a10.029,10.029,0,0,1,2.336,1.309l3.379-1.427a.691.691,0,0,1,.846.278l2.822,4.683a.688.688,0,0,1-.141.882l-2.857,2.318a10.536,10.536,0,0,1,.122,1.346,9.96,9.96,0,0,1-.074,1.332l2.938,2.216a.69.69,0,0,1,.171.877l-2.658,4.778a.69.69,0,0,1-.836.308l-3.428-1.309a10.573,10.573,0,0,1-2.287,1.39l-.445,3.625a.709.709,0,0,1-.674.6l-5.48.1A.717.717,0,0,1-6711.317,206.21Zm3.113-17.936a4.759,4.759,0,0,0-4.676,4.842,4.76,4.76,0,0,0,4.842,4.678,4.763,4.763,0,0,0,4.676-4.844,4.776,4.776,0,0,0-4.773-4.677ZM-6720.788,194H-6746V145h38v32.277l-4.04-.069a.811.811,0,0,0-.787.652l-.65,4.092a11.914,11.914,0,0,0-2.646,1.485l-3.836-1.62a.778.778,0,0,0-.291-.056.777.777,0,0,0-.669.372l-3.2,5.313a.78.78,0,0,0,.161,1l3.242,2.629a11.281,11.281,0,0,0-.137,1.507,11.525,11.525,0,0,0,.071,1.415v0Zm5.223-25.08a2.121,2.121,0,0,0-.7.567,2.717,2.717,0,0,0-.454.86,3.6,3.6,0,0,0-.159,1.078,4.019,4.019,0,0,0,.143,1.122,2.664,2.664,0,0,0,.393.833,1.766,1.766,0,0,0,.6.52,1.612,1.612,0,0,0,.75.179,2.305,2.305,0,0,0,.493-.052,1.966,1.966,0,0,0,.423-.151,2.148,2.148,0,0,0,.369-.232,3.087,3.087,0,0,0,.323-.3l.121.394a.369.369,0,0,0,.381.261h.96v-7.485h-1.551v2.624a1.721,1.721,0,0,0-.5-.31,1.787,1.787,0,0,0-.681-.115A1.969,1.969,0,0,0-6715.565,168.92Zm-5.233.02a2.414,2.414,0,0,0-.8.555,2.4,2.4,0,0,0-.51.814,2.728,2.728,0,0,0-.178.985,3.289,3.289,0,0,0,.207,1.211,2.562,2.562,0,0,0,.565.87,2.422,2.422,0,0,0,.835.527,2.97,2.97,0,0,0,1.022.178,4.76,4.76,0,0,0,.557-.037,3.226,3.226,0,0,0,.585-.135,2.8,2.8,0,0,0,.571-.269,2.291,2.291,0,0,0,.516-.449l-.448-.555a.316.316,0,0,0-.281-.134.573.573,0,0,0-.268.064l-.083.042c-.019.008-.037.019-.056.029l-.024.012-.117.063a2.753,2.753,0,0,1-.349.144,1.447,1.447,0,0,1-.464.066,1.2,1.2,0,0,1-.826-.293,1.478,1.478,0,0,1-.395-.943h2.99a.552.552,0,0,0,.173-.024.213.213,0,0,0,.108-.091.473.473,0,0,0,.054-.174,2.286,2.286,0,0,0,.015-.284,2.719,2.719,0,0,0-.173-1,2.037,2.037,0,0,0-.481-.748,1.993,1.993,0,0,0-.734-.466,2.621,2.621,0,0,0-.941-.159A2.632,2.632,0,0,0-6720.8,168.94Zm-4.271-1.39-.307,1.265-.824.161v.6a.3.3,0,0,0,.084.227.289.289,0,0,0,.205.078h.44v2.68a1.9,1.9,0,0,0,.1.625,1.294,1.294,0,0,0,.293.477,1.327,1.327,0,0,0,.476.306,1.913,1.913,0,0,0,.652.107,2.815,2.815,0,0,0,.775-.112,2.18,2.18,0,0,0,.675-.339l-.471-.735a.344.344,0,0,0-.088-.1.175.175,0,0,0-.112-.034.177.177,0,0,0-.088.019l0,0-.022.01a.5.5,0,0,0-.053.027.883.883,0,0,1-.1.041.592.592,0,0,1-.142.017.3.3,0,0,1-.252-.117.5.5,0,0,1-.088-.3v-2.575h1.285v-1.06h-1.285V167.31h-.811A.306.306,0,0,0-6725.069,167.55Zm-3.371,6.45h1.551v-5.186h-1.551Zm-3.96,0h1.41l2.009-5.186h-1.229a.422.422,0,0,0-.261.078.387.387,0,0,0-.15.193l-.75,2.325a8.622,8.622,0,0,0-.3,1.1c-.029-.151-.066-.312-.127-.54-.051-.185-.1-.366-.167-.555l-.719-2.325a.374.374,0,0,0-.152-.193.476.476,0,0,0-.278-.078h-1.29Zm-4.065-3.887a.908.908,0,0,1,.175.593V174h1.551v-3.295a2.63,2.63,0,0,0-.115-.789,1.782,1.782,0,0,0-.34-.625,1.545,1.545,0,0,0-.552-.41,1.825,1.825,0,0,0-.753-.147,2.019,2.019,0,0,0-.462.047,2.034,2.034,0,0,0-.395.13,1.815,1.815,0,0,0-.344.2,3.083,3.083,0,0,0-.308.261l-.091-.3a.363.363,0,0,0-.379-.261h-.96V174h1.549v-3.7a1.768,1.768,0,0,1,.434-.291,1.045,1.045,0,0,1,.477-.108A.628.628,0,0,1-6736.465,170.113Zm-5.829,3.887h1.7v-7.285h-1.7Zm14.258-7.446a.926.926,0,0,0-.293.195.9.9,0,0,0-.2.291.877.877,0,0,0-.073.354.87.87,0,0,0,.073.349.9.9,0,0,0,.2.284,1.049,1.049,0,0,0,.293.195.9.9,0,0,0,.355.073.919.919,0,0,0,.368-.073.982.982,0,0,0,.3-.195.949.949,0,0,0,.205-.284.84.84,0,0,0,.075-.349.858.858,0,0,0-.075-.354.936.936,0,0,0-.205-.291.924.924,0,0,0-.3-.195.949.949,0,0,0-.368-.069A.882.882,0,0,0-6728.036,166.555Zm13.241,6.261a.692.692,0,0,1-.259-.247,1.5,1.5,0,0,1-.168-.454,3.622,3.622,0,0,1-.059-.689,3.115,3.115,0,0,1,.075-.725,1.45,1.45,0,0,1,.208-.488.794.794,0,0,1,.313-.273.872.872,0,0,1,.395-.086,1.2,1.2,0,0,1,.43.078.945.945,0,0,1,.379.273v2.2a2.44,2.44,0,0,1-.2.212,1.078,1.078,0,0,1-.218.152,1.144,1.144,0,0,1-.252.093,1.464,1.464,0,0,1-.306.032A.756.756,0,0,1-6714.794,172.815Zm-4-2.03h-1.93a1.29,1.29,0,0,1,.331-.728.929.929,0,0,1,.689-.252.945.945,0,0,1,.427.085.732.732,0,0,1,.281.223.816.816,0,0,1,.156.312,1.4,1.4,0,0,1,.047.359l0,0Z" transform="translate(6746 -145.001)" fill="#79b1bd"/>
</svg>
