<svg xmlns="http://www.w3.org/2000/svg" width="45.83" height="68" viewBox="0 0 45.83 68">
  <path id="My_invoice" data-name="My invoice" d="M32.463,68H0V0H45.83V52.006H32.463V68ZM2.7,59.083a.626.626,0,0,0-.5.24.871.871,0,0,0-.2.575.837.837,0,0,0,.2.569.636.636,0,0,0,.5.234h.765A4.982,4.982,0,0,0,4.883,63.59a3.748,3.748,0,0,0,5.249.164,4.9,4.9,0,0,0,1.5-2.534.9.9,0,0,0-.038-1.087.623.623,0,0,0-.491-.24.64.64,0,0,0-.5.24.848.848,0,0,0-.207.569A3.132,3.132,0,0,1,9.367,62.44a2.656,2.656,0,0,1-1.769.688,2.492,2.492,0,0,1-1.714-.682A3.272,3.272,0,0,1,4.889,60.7H6.9a.637.637,0,0,0,.5-.234.845.845,0,0,0,.2-.569.867.867,0,0,0-.2-.575.629.629,0,0,0-.5-.24H4.8V57.465H6.9a.637.637,0,0,0,.5-.234.845.845,0,0,0,.2-.569.867.867,0,0,0-.2-.575.629.629,0,0,0-.5-.24H4.889A3.272,3.272,0,0,1,5.883,54.1,2.492,2.492,0,0,1,7.6,53.42a2.656,2.656,0,0,1,1.769.688,3.132,3.132,0,0,1,1.027,1.739.841.841,0,0,0,.207.575.647.647,0,0,0,.5.234.628.628,0,0,0,.491-.234.854.854,0,0,0,.2-.575.867.867,0,0,0-.164-.518,4.9,4.9,0,0,0-1.5-2.535,3.75,3.75,0,0,0-5.249.165,4.983,4.983,0,0,0-1.414,2.889H2.7a.626.626,0,0,0-.5.24.871.871,0,0,0-.2.575.837.837,0,0,0,.2.569.636.636,0,0,0,.5.234h.7v1.618ZM4.791,45.463v1.744H37.443V45.463Zm0-5.223v1.744H37.443V40.24ZM3.711,18.719V30.907h10.53V18.719Zm14.878,8.962v1.742H38.331V27.681Zm0-4.063v1.742H38.331V23.619Zm0-4.064V21.3H38.331V19.554Zm.228-14.973a1.438,1.438,0,1,0,0,2.875,1.407,1.407,0,0,0,1.436-1.44A1.4,1.4,0,0,0,18.816,4.581Zm4.292.008A1.361,1.361,0,0,0,21.7,6.021a1.359,1.359,0,0,0,1.412,1.428,1.308,1.308,0,0,0,1.332-.98h-.751a.622.622,0,0,1-.589.36.714.714,0,0,1-.707-.808.714.714,0,0,1,.707-.808.622.622,0,0,1,.589.36h.751A1.31,1.31,0,0,0,23.108,4.589Zm1.752.031V7.429h1.72V6.881H25.545V6.265h.916V5.737h-.916V5.169h1.036V4.621Zm-4.228,0V7.429h.684V4.621Zm-6.276,0,1,2.808h.856l1-2.808h-.724l-.7,2.12-.7-2.12h-.728ZM12.245,5.7l0,0,1.142,1.729h.684V4.621h-.684V6.361L12.245,4.621h-.684V7.429h.684V5.7ZM10.381,4.621V7.429h.684V4.621ZM33.856,67.687v0l-.108-14.564h.1c1.495.041,5.277.135,8.109.135a21.773,21.773,0,0,0,3.472-.138l.026,0a.026.026,0,0,1,.027.014c.234.5-11.506,14.415-11.624,14.555ZM18.816,6.833a.733.733,0,0,1-.743-.816.745.745,0,1,1,1.483,0A.732.732,0,0,1,18.816,6.833Z" fill="#79b1bd"/>
</svg>
