<svg xmlns="http://www.w3.org/2000/svg" width="55" height="68" viewBox="0 0 55 68">
  <path id="My_todo" data-name="My todo" d="M55,68H0V0H55V68ZM16.6,56.492v1.046H48.773V56.492ZM7.87,50.214a.608.608,0,0,0-.605.61v6.1a.608.608,0,0,0,.605.61h6.054a.608.608,0,0,0,.605-.61v-6.1a.608.608,0,0,0-.605-.61ZM16.6,54.4v1.046H48.773V54.4Zm0-4.185v3.139H37.358V50.214Zm0-5.23V46.03H48.773V44.984ZM7.87,38.707a.608.608,0,0,0-.605.61v6.1a.608.608,0,0,0,.605.61h6.054a.608.608,0,0,0,.605-.61v-6.1a.608.608,0,0,0-.605-.61ZM16.6,42.892v1.046H48.773V42.892Zm0-4.185v3.138H37.358V38.707Zm0-5.23v1.046H48.773V33.477ZM7.87,27.2a.608.608,0,0,0-.605.61v6.1a.608.608,0,0,0,.605.61h6.054a.608.608,0,0,0,.605-.61v-6.1a.608.608,0,0,0-.605-.61ZM16.6,31.384V32.43H48.773V31.384Zm0-4.184v3.138H37.358V27.2ZM7.87,15.692a.608.608,0,0,0-.605.61v6.1a.608.608,0,0,0,.605.61h6.054a.608.608,0,0,0,.605-.61V16.3a.608.608,0,0,0-.605-.61ZM16.6,21.969v1.046H48.773V21.969Zm0-2.092v1.046H48.773V19.877Zm0-4.184v3.138H37.358V15.692ZM7.264,5.231v6.276H48.773V5.231Zm6.659,51.7H7.87v-6.1h6.054v6.1ZM9.259,53.571h0l-.482.47,1.514,1.513,2.723-2.722-.481-.481-2.242,2.243L9.259,53.571Zm4.664-8.151H7.87v-6.1h6.054v6.1ZM9.259,42.064h0l-.482.47,1.514,1.513,2.723-2.722-.481-.481-2.242,2.243L9.259,42.064Zm4.664-8.151H7.87v-6.1h6.054v6.1ZM9.259,30.556h0l-.482.47,1.514,1.513,2.723-2.722-.481-.481-2.242,2.243L9.259,30.556Zm4.664-8.151H7.87V16.3h6.054v6.1ZM9.259,19.049h0l-.482.47,1.514,1.513,2.723-2.722-.481-.481-2.242,2.243L9.259,19.049Z" fill="#79b1bd"/>
</svg>
