<svg xmlns="http://www.w3.org/2000/svg" width="54.92" height="80.1" viewBox="0 0 54.92 80.1">
  <g id="Pin_code" data-name="Pin code" transform="translate(-22.021 -2.775)">
    <path id="Path_31538" data-name="Path 31538" d="M70.782,44.658h4.831a1.234,1.234,0,0,1,1.234,1.234v4.831a1.234,1.234,0,0,1-1.234,1.234H70.782a1.234,1.234,0,0,1-1.234-1.234V45.891a1.234,1.234,0,0,1,1.234-1.234Z" transform="translate(-16.437 -14.485)" fill="#79b1bd"/>
    <path id="Path_31539" data-name="Path 31539" d="M33.836,2.775H28.99a1.235,1.235,0,0,0-1.234,1.234V8.84a1.235,1.235,0,0,0,1.234,1.234h4.831A1.235,1.235,0,0,0,35.055,8.84V4.009A1.228,1.228,0,0,0,33.836,2.775Z" transform="translate(-1.984 0)" fill="#79b1bd"/>
    <rect id="Rectangle_2200" data-name="Rectangle 2200" width="7.299" height="7.299" rx="1.886" transform="translate(39.449 2.775)" fill="#79b1bd"/>
    <path id="Path_31540" data-name="Path 31540" d="M33.836,23.751H28.99a1.235,1.235,0,0,0-1.234,1.234v4.831a1.235,1.235,0,0,0,1.234,1.234h4.831a1.235,1.235,0,0,0,1.234-1.234V24.984A1.228,1.228,0,0,0,33.836,23.751Z" transform="translate(-1.984 -7.254)" fill="#79b1bd"/>
    <path id="Path_31541" data-name="Path 31541" d="M33.836,44.658H28.99a1.235,1.235,0,0,0-1.234,1.234v4.831a1.235,1.235,0,0,0,1.234,1.234h4.831a1.235,1.235,0,0,0,1.234-1.234V45.891a1.228,1.228,0,0,0-1.219-1.234Z" transform="translate(-1.984 -14.485)" fill="#79b1bd"/>
    <path id="Path_31542" data-name="Path 31542" d="M75.613,2.775H70.782a1.235,1.235,0,0,0-1.234,1.234V8.84a1.25,1.25,0,0,0,1.234,1.234h4.831A1.235,1.235,0,0,0,76.847,8.84V4.009a1.235,1.235,0,0,0-1.234-1.234Z" transform="translate(-16.437 0)" fill="#79b1bd"/>
    <path id="Path_31543" data-name="Path 31543" d="M75.613,23.75H70.782a1.235,1.235,0,0,0-1.234,1.234v4.831a1.25,1.25,0,0,0,1.234,1.234h4.831a1.235,1.235,0,0,0,1.234-1.234V24.984a1.235,1.235,0,0,0-1.234-1.234Z" transform="translate(-16.437 -7.254)" fill="#79b1bd"/>
    <path id="Path_31544" data-name="Path 31544" d="M76.941,58.689A4.713,4.713,0,0,0,73.6,54.24L49.06,46.69,46.907,26.749a3.976,3.976,0,0,0-1.22-2.931l-.05-.048a4.213,4.213,0,0,0-7.227,2.979l.414,38.973-.242,4.212L32.121,64.4c-.2-.19-4.876-4.645-9.59-1.655l-.01.006a1.1,1.1,0,0,0-.263,1.6c3.1,3.946,14.979,18.409,14.979,18.409a18.976,18.976,0,0,0,14.7,6.929h8.447A12.965,12.965,0,0,0,73.124,79.118Z" transform="translate(0 -6.822)" fill="#79b1bd"/>
  </g>
</svg>
