<svg xmlns="http://www.w3.org/2000/svg" width="100.857" height="94.072" viewBox="0 0 100.857 94.072">
  <path id="My_planning" data-name="My planning" d="M56.542,71.711A22.159,22.159,0,1,1,78.7,94.072,22.26,22.26,0,0,1,56.542,71.711Zm11.078.942,7.914,7.986L89.787,66.258l-2.526-2.533L75.534,75.56l-5.4-5.446ZM55.942,78.367H4.531A4.636,4.636,0,0,1,0,73.639V15.177A4.7,4.7,0,0,1,1.342,11.82,4.543,4.543,0,0,1,4.6,10.45H15.015v7.836a5.695,5.695,0,1,0,11.389,0V10.45H56.56v7.836a5.695,5.695,0,1,0,11.389,0V10.45H78.3a4.551,4.551,0,0,1,3.233,1.416,4.642,4.642,0,0,1,1.3,3.312V48.169A23.692,23.692,0,0,0,55.014,71.711a24.141,24.141,0,0,0,.93,6.655h0ZM46.594,62.693h5.177V57.469H46.594Zm-15.531,0h5.178V57.469H31.063Zm-15.53,0h5.177V57.469H15.533ZM62.126,49.633H67.3V44.409H62.126Zm-15.531,0h5.177V44.409H46.594Zm-15.531,0h5.178V44.409H31.063Zm-15.53,0h5.177V44.409H15.533ZM62.126,36.571H67.3V31.347H62.126Zm-15.531,0h5.177V31.347H46.594Zm-15.531,0h5.178V31.347H31.063Zm-15.53,0h5.177V31.347H15.533Zm44-18.285V2.612a2.589,2.589,0,1,1,5.178,0V18.286a2.589,2.589,0,1,1-5.178,0Zm-41.415,0V2.612a2.588,2.588,0,1,1,5.177,0V18.286a2.588,2.588,0,1,1-5.177,0Z" transform="translate(0)" fill="#79b1bd"/>
</svg>
