<svg version="1.1" id="Layer_1" xmlns="http://www.w3.org/2000/svg" xmlns:xlink="http://www.w3.org/1999/xlink" x="0px" y="0px"
	 width="100%" viewBox="0 0 500 500" enable-background="new 0 0 500 500" xml:space="preserve">
<path fill="#010101" opacity="1.000000" stroke="none" 
	d="
M139.000000,1.000000 
	C167.687561,1.000000 196.375122,1.000000 225.531876,1.468008 
	C226.001068,7.333838 226.001068,12.731660 226.001068,18.468281 
	C237.676880,18.468281 248.738525,18.468281 260.019318,18.468281 
	C260.019318,24.577349 260.019318,30.333683 259.555603,36.110115 
	C253.847794,36.130215 248.603668,36.130215 243.375977,36.130215 
	C243.375977,42.036686 243.375977,47.401203 243.375977,52.630898 
	C249.056473,52.630898 254.426208,52.630898 259.853607,52.630898 
	C259.853607,46.833958 259.853607,41.379147 260.325562,35.846153 
	C266.372620,35.767971 271.947723,35.767971 277.922485,35.767971 
	C277.922485,41.849449 277.922485,47.248928 277.922485,53.112438 
	C289.521606,53.112438 300.714233,53.112438 312.278198,53.112438 
	C312.278198,58.995018 312.278198,64.393219 312.278198,70.119324 
	C318.085693,70.119324 323.511230,70.119324 329.091827,70.119324 
	C329.091827,75.896599 329.091827,81.335365 329.043945,87.104462 
	C328.985535,87.657051 328.974945,87.879318 328.499207,88.074577 
	C322.822113,88.047562 317.610199,88.047562 312.141998,88.047562 
	C312.141998,94.022156 312.141998,99.572853 311.661346,105.169800 
	C305.932770,105.216049 300.684875,105.216049 295.214294,105.216049 
	C295.214294,110.874283 295.214294,116.231590 295.214294,121.605789 
	C300.777802,121.605789 306.101410,121.605789 311.995941,121.605789 
	C311.995941,115.824715 311.995941,110.401299 312.458008,104.898666 
	C318.284576,104.884644 323.649078,104.949852 329.020020,105.028442 
	C329.026428,105.041832 329.054199,105.059570 329.143921,105.516991 
	C329.233643,116.904243 329.233643,127.834076 329.233643,139.240143 
	C335.429077,139.240143 340.996155,139.240143 346.945679,139.240143 
	C346.945679,145.136703 346.945679,150.554703 346.945679,156.054474 
	C352.440399,156.054474 357.532104,156.054474 363.152344,156.054474 
	C363.152344,150.334702 363.152344,144.779236 363.152344,139.317841 
	C369.423950,139.317841 375.161041,139.317841 380.729431,139.317841 
	C380.729431,145.371231 380.729431,151.107849 380.729431,157.222183 
	C375.003815,157.222183 369.592957,157.222183 363.821289,157.222183 
	C363.821289,163.029190 363.821289,168.450974 363.821289,174.197876 
	C352.192688,174.197876 340.936340,174.197876 329.111176,174.197876 
	C329.111176,179.979813 329.111176,185.429245 329.035583,190.954895 
	C328.960022,191.031128 328.820587,191.194397 328.370239,191.270416 
	C311.308716,191.346436 294.697510,191.346436 278.045349,191.346436 
	C278.045349,202.895721 278.045349,213.833038 278.045349,225.321014 
	C289.471436,225.321014 300.687378,225.321014 311.750488,225.321014 
	C311.750488,237.309265 311.750488,248.742737 311.750488,260.581787 
	C306.018585,260.581787 300.597931,260.581787 295.065033,260.581787 
	C295.065033,266.320831 295.065033,271.647125 294.851440,277.059753 
	C294.361023,277.307861 294.165985,277.538727 293.580872,277.832642 
	C282.166840,277.826599 271.224731,277.826599 260.215149,277.826599 
	C260.215149,271.587189 260.215149,265.863708 260.215149,259.744324 
	C265.918427,259.744324 271.332550,259.744324 276.679504,259.744324 
	C276.679504,248.281540 276.679504,237.222916 276.679504,226.318222 
	C259.630768,226.318222 242.899490,226.318222 226.305481,226.318222 
	C226.305481,231.881821 226.305481,237.128189 226.305481,242.811188 
	C231.995377,242.811188 237.398880,242.811188 242.824982,242.811188 
	C242.824982,248.847763 242.824982,254.431473 242.824982,259.948914 
	C236.855911,259.948914 231.148880,259.948914 225.017853,259.948914 
	C225.017853,254.188766 225.017853,248.776077 225.017853,243.005829 
	C219.175949,243.005829 213.755127,243.005829 208.308746,243.005829 
	C208.308746,236.897415 208.308746,231.177353 208.308746,225.061249 
	C214.022995,225.061249 219.440948,225.061249 224.993622,225.061249 
	C224.993622,213.728622 224.993622,202.798416 224.993622,191.672516 
	C219.580841,191.672516 214.351944,191.672516 208.655823,191.672516 
	C208.655823,197.551636 208.655823,203.130661 208.655823,208.986832 
	C202.736221,208.986832 197.285431,208.986832 191.448715,208.986832 
	C191.448715,214.698975 191.448715,220.126785 191.448715,226.064926 
	C185.504608,226.064926 179.933258,226.064926 174.417755,226.064926 
	C174.417755,237.639267 174.417755,248.692673 174.417755,260.085175 
	C185.989822,260.085175 197.247787,260.085175 208.914276,260.085175 
	C208.914276,265.826447 208.914276,271.238281 208.914276,277.175720 
	C214.864151,277.175720 220.417191,277.175720 226.337982,277.175720 
	C226.337982,288.951141 226.337982,300.183411 226.337982,311.961151 
	C232.207092,311.961151 237.672043,311.961151 243.106049,312.426636 
	C243.032440,318.278961 242.989761,323.665863 242.977661,329.029144 
	C243.008224,329.005554 243.055893,328.944855 242.602875,329.085999 
	C236.896942,329.227173 231.644028,329.227173 226.035751,329.227173 
	C226.035751,335.137177 226.035751,340.562500 225.841980,346.052673 
	C225.392365,346.243500 225.207764,346.437347 224.621948,346.728882 
	C219.042587,346.817322 213.935669,346.875977 208.633057,346.817993 
	C208.204437,346.491058 208.049637,346.233734 207.984467,345.465271 
	C207.995926,328.407074 207.995926,311.812988 207.995926,295.283752 
	C202.188339,295.283752 196.947159,295.283752 191.260620,295.283752 
	C191.260620,300.960632 191.260620,306.365875 191.260620,312.124023 
	C167.846085,312.124023 144.884964,312.124023 121.863495,311.650024 
	C121.803131,305.811035 121.803131,300.446014 121.803131,294.796082 
	C115.837715,294.796082 110.440475,294.796082 104.905548,294.796082 
	C104.905548,289.068665 104.905548,283.649872 104.955338,277.882568 
	C105.025093,277.300232 105.045052,277.066376 105.526382,276.888763 
	C111.426102,276.945038 116.864471,276.945038 122.676514,276.945038 
	C122.676514,283.038177 122.676514,288.468292 122.676514,293.830017 
	C128.310760,293.830017 133.549850,293.830017 139.152954,293.830017 
	C139.152954,288.110870 139.152954,282.688995 139.152954,276.781128 
	C145.066544,276.781128 150.621750,276.781128 155.878418,276.781128 
	C155.878418,271.030945 155.878418,265.791779 155.878418,260.139557 
	C138.713882,260.139557 121.913185,260.139557 105.089401,260.075317 
	C105.066322,260.011108 104.944389,259.949799 104.880211,259.490204 
	C104.873436,253.687103 104.930840,248.343613 105.436432,242.873032 
	C111.131966,242.745956 116.379318,242.745956 121.625397,242.745956 
	C121.625397,236.826843 121.625397,231.475250 121.625397,226.383423 
	C115.911659,226.383423 110.544731,226.383423 105.136497,226.383423 
	C105.136497,232.235580 105.136497,237.693451 104.659737,243.147369 
	C98.836670,243.143387 93.490364,243.143387 88.079926,243.143387 
	C88.079926,249.149612 88.079926,254.560898 87.739655,259.989319 
	C87.174911,260.041168 86.950439,260.075897 86.281616,260.196838 
	C75.229622,260.283051 64.621971,260.283051 53.562927,260.283051 
	C53.562927,266.229919 53.562927,271.814606 53.562927,277.913605 
	C47.559948,277.913605 41.999413,277.913605 36.366928,277.913605 
	C36.366928,283.521790 36.366928,288.603668 36.366928,294.161682 
	C53.612762,294.161682 70.643837,294.161682 88.092361,294.161682 
	C88.092361,306.080170 88.092361,317.522705 87.766037,328.990540 
	C87.222542,329.036957 87.005363,329.058136 86.338982,329.157928 
	C80.755928,329.236572 75.622093,329.236572 69.956268,329.236572 
	C69.956268,323.425354 69.956268,317.858551 69.956268,312.022278 
	C52.621681,312.022278 35.822044,312.022278 18.929626,311.918579 
	C18.836845,311.814880 18.617531,311.643555 18.505516,311.216980 
	C18.393501,305.586395 18.393501,300.382355 18.393501,295.000000 
	C12.181610,295.000000 6.590805,295.000000 1.000000,295.000000 
	C1.000000,289.311951 1.000000,283.623932 1.468649,277.464844 
	C13.178382,276.993805 24.419466,276.993805 35.585182,276.993805 
	C35.585182,265.319458 35.585182,254.391464 35.585182,242.964386 
	C29.805490,242.964386 24.244543,242.964386 18.291451,242.964386 
	C18.291451,231.393372 18.291451,220.318161 18.291451,209.000000 
	C12.255492,209.000000 6.627746,209.000000 1.000000,209.000000 
	C1.000000,203.311966 1.000000,197.623917 1.467573,191.440338 
	C7.531730,190.944794 13.128314,190.944794 19.094997,190.944794 
	C19.094997,196.837692 19.094997,202.248047 19.094997,207.668732 
	C24.852713,207.668732 30.220648,207.668732 36.011215,207.668732 
	C36.011215,201.947815 36.011215,196.553192 36.011215,190.807297 
	C41.846043,190.807297 47.260204,190.807297 52.644157,190.807297 
	C52.644157,185.050125 52.644157,179.673111 52.644157,174.000000 
	C35.215492,174.000000 18.107746,174.000000 1.000000,174.000000 
	C1.000000,162.645767 1.000000,151.291550 1.468648,139.471817 
	C24.850166,139.006317 47.763035,139.006317 71.035286,139.006317 
	C71.035286,150.791626 71.035286,162.042740 71.035286,173.713898 
	C76.790184,173.713898 82.201714,173.713898 88.132912,173.713898 
	C88.132912,179.682388 88.132912,185.232437 88.132912,190.973969 
	C94.145065,190.973969 99.621239,190.973969 105.150085,191.437241 
	C105.202751,197.169540 105.202751,202.438568 105.202751,207.673370 
	C111.045242,207.673370 116.434319,207.673370 121.921761,207.673370 
	C121.921761,201.850388 121.921761,196.369873 122.393463,190.842773 
	C128.134781,190.796173 133.404404,190.796173 138.696671,190.796173 
	C138.696671,185.076202 138.696671,179.693207 138.696671,174.093445 
	C132.910385,174.093445 127.443405,174.093445 121.917351,173.623108 
	C121.897102,167.791733 121.935928,162.430679 122.022987,156.711609 
	C122.105156,156.115158 122.139091,155.876724 122.588638,155.845947 
	C128.252640,156.053619 133.501038,156.053619 139.080505,156.053619 
	C139.080505,150.232346 139.080505,144.800659 139.080505,139.218384 
	C145.162018,139.218384 150.898743,139.218384 156.793854,139.218384 
	C156.793854,145.167007 156.793854,150.902878 156.793854,157.017838 
	C151.172729,157.017838 145.750519,157.017838 140.263428,157.017838 
	C140.263428,162.764023 140.263428,168.123108 140.263428,173.398804 
	C157.336609,173.398804 174.058609,173.398804 190.975250,173.398804 
	C190.975250,167.724030 190.975250,162.397598 191.008118,156.731369 
	C191.072449,156.166199 191.103943,155.940796 191.563660,155.896454 
	C197.574493,156.077499 203.157089,156.077499 209.035858,156.077499 
	C209.035858,162.425720 209.035858,167.874802 209.035858,173.385498 
	C214.564468,173.385498 219.770004,173.385498 225.305817,173.385498 
	C225.305817,167.580612 225.305817,162.133316 225.305817,156.108887 
	C236.999512,156.108887 248.365433,156.108887 259.664948,156.108887 
	C259.664948,150.422577 259.664948,145.330872 259.664948,139.866241 
	C253.980743,139.866241 248.542526,139.866241 242.598511,139.866241 
	C242.598511,128.104019 242.598511,116.714142 242.598511,105.390907 
	C236.815247,105.390907 231.559418,105.390907 225.805740,105.390907 
	C225.805740,111.214333 225.805740,116.774628 225.805740,122.265198 
	C219.675980,122.265198 214.051926,122.265198 208.322495,122.265198 
	C208.322495,116.357735 208.322495,110.625099 208.322495,104.537827 
	C214.080963,104.537827 219.523239,104.537827 224.944626,104.537827 
	C224.944626,98.906296 224.944626,93.640121 224.944626,87.844940 
	C196.174896,87.844940 167.637177,87.844940 139.294952,87.844940 
	C139.294952,70.210869 139.294952,53.113747 139.294952,36.138805 
	C145.321030,36.138805 151.053268,36.138805 157.141205,36.138805 
	C157.141205,47.532223 157.141205,58.619766 157.141205,69.710136 
	C168.571518,69.710136 179.633575,69.710136 191.002472,69.710136 
	C191.002472,64.276016 191.002472,59.135090 191.107330,53.791916 
	C191.393677,53.334599 191.629654,53.148697 192.392944,53.001556 
	C203.601456,52.971161 214.337158,52.971161 224.991211,52.971161 
	C224.991211,41.339546 224.991211,30.405851 224.991211,19.290916 
	C219.584076,19.290916 214.366364,19.290916 208.757233,19.290916 
	C208.757233,24.965240 208.757233,30.382317 208.757233,36.002201 
	C202.913376,36.002201 197.459732,36.002201 191.737823,35.984894 
	C191.290375,35.969814 191.111176,35.972050 190.912933,35.508110 
	C190.893890,29.780895 190.893890,24.519857 190.893890,18.846207 
	C173.313965,18.846207 156.258362,18.846207 139.000000,18.846207 
	C139.000000,12.616287 139.000000,6.808144 139.000000,1.000000 
M87.301537,214.493164 
	C87.301537,206.898773 87.301537,199.304398 87.301537,191.585587 
	C81.615089,191.585587 76.517700,191.585587 70.957199,191.585587 
	C70.957199,197.356918 70.957199,202.931915 70.957199,209.017349 
	C59.132168,209.017349 47.760963,209.017349 36.400017,209.017349 
	C36.400017,214.640472 36.400017,219.727951 36.400017,225.339050 
	C42.193779,225.339050 47.745079,225.339050 53.772278,225.339050 
	C53.772278,231.431702 53.772278,237.002884 53.772278,242.450989 
	C59.384041,242.450989 64.496315,242.450989 70.073257,242.450989 
	C70.073257,236.651825 70.073257,231.077240 70.073257,224.998230 
	C76.090874,224.998230 81.651192,224.998230 87.301544,224.998230 
	C87.301544,221.476288 87.301544,218.482819 87.301537,214.493164 
M277.002228,128.477051 
	C277.002228,115.078865 277.002228,101.680687 277.002228,88.237473 
	C271.226196,88.237473 265.984985,88.237473 260.521606,88.237473 
	C260.521606,105.158569 260.521606,121.854881 260.521606,138.698654 
	C266.105499,138.698654 271.465088,138.698654 277.002228,138.698654 
	C277.002228,135.415390 277.002228,132.440964 277.002228,128.477051 
M277.003662,169.510132 
	C277.003662,165.407822 277.003662,161.305511 277.003662,157.273438 
	C271.168823,157.273438 265.918915,157.273438 260.610046,157.273438 
	C260.610046,168.606552 260.610046,179.668259 260.610046,190.679626 
	C266.189240,190.679626 271.448029,190.679626 277.003662,190.679626 
	C277.003662,183.780991 277.003662,177.144394 277.003662,169.510132 
M234.475403,174.082184 
	C231.715195,174.082184 228.955002,174.082184 226.361115,174.082184 
	C226.361115,180.099365 226.361115,185.485291 226.361115,190.623779 
	C231.977921,190.623779 237.217621,190.623779 242.498520,190.623779 
	C242.498520,185.037109 242.498520,179.783279 242.498520,174.082184 
	C240.002640,174.082184 237.719223,174.082184 234.475403,174.082184 
M152.303467,242.703522 
	C155.193466,243.153214 156.535797,242.273300 156.312424,239.004028 
	C156.023636,234.777512 156.242004,230.516357 156.242004,226.319214 
	C150.465805,226.319214 145.256256,226.319214 140.203644,226.319214 
	C140.203644,231.881180 140.203644,237.117096 140.203644,242.703568 
	C144.107422,242.703568 147.730148,242.703568 152.303467,242.703522 
M310.135559,139.931381 
	C305.211945,139.931381 300.288330,139.931381 295.246460,139.931381 
	C295.246460,145.552124 295.246460,150.762070 295.246460,156.018127 
	C300.735504,156.018127 305.968323,156.018127 311.874146,156.018127 
	C311.589630,150.571915 311.317444,145.362091 310.135559,139.931381 
M156.241898,204.424927 
	C156.241898,200.181854 156.241898,195.938797 156.241898,191.733124 
	C150.461639,191.733124 145.281479,191.733124 140.201675,191.733124 
	C140.201675,197.334717 140.201675,202.554413 140.201675,208.005814 
	C144.936905,208.005814 149.392593,208.140045 153.826370,207.888367 
	C154.675385,207.840179 155.438141,206.272568 156.241898,204.424927 
M122.429169,214.641479 
	C122.429169,218.074493 122.429169,221.507507 122.429169,224.874115 
	C128.314667,224.874115 133.551132,224.874115 138.803833,224.874115 
	C138.803833,219.459106 138.803833,214.358002 138.803833,209.081223 
	C133.354523,209.081223 128.112534,209.081223 122.429214,209.081223 
	C122.429214,210.761810 122.429214,212.228424 122.429169,214.641479 
z"/>
<path fill="#010101" opacity="1.000000" stroke="none" 
	d="
M485.000000,501.000000 
	C433.312439,501.000000 381.624878,501.000000 329.424072,500.535156 
	C328.933594,495.065399 328.956360,490.060455 329.015839,484.734192 
	C329.068451,484.197906 329.084320,483.982880 329.559326,483.828278 
	C340.948425,483.888672 351.878387,483.888672 362.704651,483.888672 
	C362.704651,478.075073 362.704651,472.705719 362.704651,467.091919 
	C351.180481,467.091919 340.041595,467.091919 328.892487,466.617554 
	C328.882233,454.880859 328.882233,443.618561 328.882233,431.966095 
	C334.838470,431.966095 340.255402,431.966095 345.652100,431.966095 
	C345.652100,420.524811 345.652100,409.484253 345.652100,398.086731 
	C339.842468,398.086731 334.369934,398.086731 328.894348,397.612854 
	C328.891327,391.702972 328.891327,386.266998 328.891327,380.453796 
	C334.823669,380.453796 340.238953,380.453796 345.704742,380.453796 
	C345.704742,369.028229 345.704742,357.991089 345.704742,347.223724 
	C339.974823,347.223724 334.534607,347.223724 329.062073,346.892212 
	C329.007019,346.339813 328.984253,346.118927 328.940674,345.437378 
	C328.951965,339.645447 328.984039,334.314209 329.030701,328.978577 
	C329.045319,328.974152 329.063660,328.947113 329.526062,328.897278 
	C341.237885,328.847443 352.487244,328.847443 364.111450,328.847443 
	C364.111450,334.866821 364.111450,340.284119 364.111450,346.060181 
	C387.211060,346.060181 409.931152,346.060181 433.044891,346.060181 
	C433.044891,357.669800 433.044891,368.907623 433.044891,380.265686 
	C444.507294,380.265686 455.569122,380.265686 466.547791,380.265686 
	C466.547791,374.720001 466.547791,369.475189 466.547791,363.926422 
	C460.799683,363.926422 455.355408,363.926422 449.687531,363.926422 
	C449.687531,346.513794 449.687531,329.413147 449.822144,312.183350 
	C449.956787,312.054230 450.210388,311.780579 450.660706,311.719360 
	C456.421204,311.724823 461.731354,311.791534 467.103455,312.333130 
	C467.165344,318.065826 467.165344,323.323639 467.165344,329.046082 
	C473.221039,329.046082 478.768707,329.046082 484.719055,329.046082 
	C484.719055,334.901764 484.719055,340.292236 484.719055,346.000000 
	C490.427917,346.000000 495.713959,346.000000 501.000000,346.000000 
	C501.000000,357.354218 501.000000,368.708466 500.532593,380.552612 
	C495.008942,381.042542 489.952698,381.042542 484.398438,381.042542 
	C484.398438,386.860229 484.398438,392.244049 484.248047,397.741241 
	C484.097626,397.854614 483.854553,398.142426 483.395935,398.173401 
	C466.346649,398.204376 449.756012,398.204376 433.253784,398.204376 
	C433.253784,404.165771 433.253784,409.433167 433.253784,415.048096 
	C444.602081,415.048096 455.695831,415.048096 467.208557,415.048096 
	C467.208557,420.803406 467.208557,426.218079 467.208557,432.000000 
	C478.753754,432.000000 489.876862,432.000000 501.000000,432.000000 
	C501.000000,443.354218 501.000000,454.708466 500.538452,466.611938 
	C494.998138,467.161163 489.919373,467.161163 485.000000,467.161163 
	C485.000000,478.859894 485.000000,489.929962 485.000000,501.000000 
M467.870209,466.856110 
	C473.120148,466.856110 478.370056,466.856110 483.718872,466.856110 
	C483.718872,461.017334 483.718872,455.653198 483.718872,450.360229 
	C478.086945,450.360229 472.728699,450.360229 467.085327,450.360229 
	C467.085327,456.142181 467.085327,461.588928 466.145569,467.147827 
	C460.808807,467.111511 455.472046,467.075195 449.553802,466.263672 
	C449.553802,460.967194 449.553802,455.670715 449.553802,449.927368 
	C443.443207,449.927368 437.866364,449.927368 431.910339,449.927368 
	C431.910339,444.071655 431.910339,438.659546 431.910339,433.277893 
	C414.776642,433.277893 398.047607,433.277893 380.915192,433.277893 
	C380.915192,438.962189 380.915192,444.375092 380.915192,450.162872 
	C375.103149,450.162872 369.687744,450.162872 364.367249,450.162872 
	C364.367249,455.948059 364.367249,461.326660 364.367249,466.625549 
	C375.668121,466.625549 386.596375,466.625549 397.983826,466.625549 
	C397.983826,460.821228 397.983826,455.236267 397.983826,449.727264 
	C404.059723,449.727264 409.669617,449.727264 415.844116,449.727264 
	C415.844116,455.530151 415.844116,461.081604 415.844116,466.883575 
	C427.705170,466.883575 438.994293,466.883575 450.112305,467.832031 
	C450.112305,473.195496 450.112305,478.558960 450.112305,483.590576 
	C456.093079,483.590576 461.447052,483.590576 466.924988,483.590576 
	C466.924988,477.754547 466.924988,472.314148 467.870209,466.856110 
M363.995178,397.498718 
	C363.995178,403.258667 363.995178,409.018646 363.995178,414.688629 
	C381.322937,414.688629 398.050903,414.688629 414.685852,414.688629 
	C414.685852,397.663849 414.685852,380.935272 414.685852,364.289429 
	C397.657562,364.289429 380.928253,364.289429 363.995178,364.289429 
	C363.995178,375.221497 363.995178,385.860413 363.995178,397.498718 
z"/>
<path fill="#FAFAFA" opacity="1.000000" stroke="none" 
	d="
M138.532394,1.000000 
	C139.000000,6.808144 139.000000,12.616287 139.000000,18.846207 
	C156.258362,18.846207 173.313965,18.846207 190.893890,18.846207 
	C190.893890,24.519857 190.893890,29.780895 190.454254,35.436390 
	C184.629303,35.830845 179.243973,35.830845 174.016724,35.830845 
	C174.016724,42.065529 174.016724,47.619324 174.016724,53.994164 
	C179.862854,53.994164 185.432663,53.994164 191.002472,53.994164 
	C191.002472,59.135090 191.002472,64.276016 191.002472,69.710136 
	C179.633575,69.710136 168.571518,69.710136 157.141205,69.710136 
	C157.141205,58.619766 157.141205,47.532223 157.141205,36.138805 
	C151.053268,36.138805 145.321030,36.138805 139.294952,36.138805 
	C139.294952,53.113747 139.294952,70.210869 139.294952,87.844940 
	C167.637177,87.844940 196.174896,87.844940 224.944626,87.844940 
	C224.944626,93.640121 224.944626,98.906296 224.944626,104.537827 
	C219.523239,104.537827 214.080963,104.537827 208.322495,104.537827 
	C208.322495,110.625099 208.322495,116.357735 208.322495,122.265198 
	C214.051926,122.265198 219.675980,122.265198 225.805740,122.265198 
	C225.805740,116.774628 225.805740,111.214333 225.805740,105.390907 
	C231.559418,105.390907 236.815247,105.390907 242.598511,105.390907 
	C242.598511,116.714142 242.598511,128.104019 242.598511,139.866241 
	C248.542526,139.866241 253.980743,139.866241 259.664948,139.866241 
	C259.664948,145.330872 259.664948,150.422577 259.664948,156.108887 
	C248.365433,156.108887 236.999512,156.108887 225.305817,156.108887 
	C225.305817,162.133316 225.305817,167.580612 225.305817,173.385498 
	C219.770004,173.385498 214.564468,173.385498 209.035858,173.385498 
	C209.035858,167.874802 209.035858,162.425720 209.035858,156.077499 
	C203.157089,156.077499 197.574493,156.077499 191.661133,155.455536 
	C191.330383,138.256882 191.330383,121.680199 191.330383,105.073395 
	C185.191803,105.073395 179.624054,105.073395 173.937286,105.073395 
	C173.937286,122.425140 173.937286,139.497559 173.937286,157.071152 
	C179.735016,157.071152 185.355133,157.071152 190.975250,157.071152 
	C190.975250,162.397598 190.975250,167.724030 190.975250,173.398804 
	C174.058609,173.398804 157.336609,173.398804 140.263428,173.398804 
	C140.263428,168.123108 140.263428,162.764023 140.263428,157.017838 
	C145.750519,157.017838 151.172729,157.017838 156.793854,157.017838 
	C156.793854,150.902878 156.793854,145.167007 156.793854,139.218384 
	C150.898743,139.218384 145.162018,139.218384 139.080505,139.218384 
	C139.080505,144.800659 139.080505,150.232346 139.080505,156.053619 
	C133.501038,156.053619 128.252640,156.053619 122.708893,155.415314 
	C122.413544,149.672089 122.413544,144.567169 122.413544,139.252197 
	C116.471298,139.252197 110.767807,139.252197 104.997871,139.252197 
	C104.997871,145.212296 104.997871,150.919006 104.997871,157.069641 
	C110.796242,157.069641 116.385498,157.069641 121.974754,157.069641 
	C121.935928,162.430679 121.897102,167.791733 121.962288,173.592285 
	C122.066299,174.031799 122.049026,173.924194 121.583099,173.847015 
	C115.761604,173.769852 110.406029,173.769852 104.922455,173.769852 
	C104.922455,179.926071 104.922455,185.490219 104.977844,191.059601 
	C105.033226,191.064850 105.097420,190.973969 105.097420,190.973969 
	C99.621239,190.973969 94.145065,190.973969 88.132912,190.973969 
	C88.132912,185.232437 88.132912,179.682388 88.132912,173.713898 
	C82.201714,173.713898 76.790184,173.713898 71.035286,173.713898 
	C71.035286,162.042740 71.035286,150.791626 71.035286,139.006317 
	C47.763035,139.006317 24.850166,139.006317 1.468648,139.003159 
	C1.000000,133.645065 1.000000,128.290146 1.435229,122.656250 
	C41.945305,122.377289 82.020149,122.377289 122.429497,122.377289 
	C122.429497,120.805008 122.429489,119.834404 122.429497,118.863800 
	C122.429733,80.715500 122.433701,42.567188 122.412148,4.418899 
	C122.411507,3.279189 122.143402,2.139629 122.000000,1.000000 
	C127.354927,1.000000 132.709854,1.000000 138.532394,1.000000 
M156.960907,121.437759 
	C156.960907,116.010628 156.960907,110.583496 156.960907,104.980438 
	C150.860687,104.980438 145.151718,104.980438 139.286163,104.980438 
	C139.286163,110.873596 139.286163,116.580681 139.286163,122.290131 
	C145.191315,122.290131 150.819916,122.290131 156.960907,121.437759 
z"/>
<path fill="#FBFBFB" opacity="1.000000" stroke="none" 
	d="
M329.111176,190.878662 
	C329.111176,185.429245 329.111176,179.979813 329.111176,174.197876 
	C340.936340,174.197876 352.192688,174.197876 363.821289,174.197876 
	C363.821289,168.450974 363.821289,163.029190 363.821289,157.222183 
	C369.592957,157.222183 375.003815,157.222183 380.729431,157.222183 
	C380.729431,151.107849 380.729431,145.371231 380.729431,139.317841 
	C375.161041,139.317841 369.423950,139.317841 363.152344,139.317841 
	C363.152344,144.779236 363.152344,150.334702 363.152344,156.054474 
	C357.532104,156.054474 352.440399,156.054474 346.945679,156.054474 
	C346.945679,150.554703 346.945679,145.136703 346.945679,139.240143 
	C340.996155,139.240143 335.429077,139.240143 329.233643,139.240143 
	C329.233643,127.834076 329.233643,116.904243 329.601379,105.579956 
	C335.259308,105.141472 340.549530,105.097435 345.888794,105.516174 
	C345.937866,111.417572 345.937866,116.856201 345.937866,122.139755 
	C352.270172,122.139755 357.997772,122.139755 363.756470,122.139755 
	C363.756470,116.264481 363.756470,110.685738 363.756470,104.911484 
	C358.080933,104.911484 352.637329,104.911484 347.049164,104.468674 
	C346.904633,98.594994 346.904633,93.164108 346.904633,87.602318 
	C340.575012,87.308029 334.833405,87.041077 329.091827,86.774124 
	C329.091827,81.335365 329.091827,75.896599 329.091827,70.119324 
	C323.511230,70.119324 318.085693,70.119324 312.278198,70.119324 
	C312.278198,64.393219 312.278198,58.995018 312.278198,53.112438 
	C300.714233,53.112438 289.521606,53.112438 277.922485,53.112438 
	C277.922485,47.248928 277.922485,41.849449 277.922485,35.767971 
	C271.947723,35.767971 266.372620,35.767971 260.362549,35.891998 
	C259.927612,36.016022 260.019318,36.090019 260.019318,36.090019 
	C260.019318,30.333683 260.019318,24.577349 260.019318,18.468281 
	C248.738525,18.468281 237.676880,18.468281 226.001068,18.468281 
	C226.001068,12.731660 226.001068,7.333838 226.000534,1.468008 
	C242.687561,1.000000 259.375122,1.000000 276.531433,1.468248 
	C277.000183,7.532316 277.000183,13.128137 277.000183,19.068823 
	C282.888306,19.068823 288.302582,19.068823 294.266754,19.068823 
	C294.266754,24.939060 294.266754,30.475412 294.266754,35.944336 
	C300.433563,35.944336 306.032776,35.944336 312.000000,35.944336 
	C312.000000,24.168228 312.000000,12.584114 312.000000,1.000000 
	C317.354919,1.000000 322.709869,1.000000 328.489532,1.466590 
	C328.914276,7.517179 328.914276,13.101177 328.914276,18.696615 
	C340.865845,18.696615 352.353546,18.696615 364.000000,18.696615 
	C364.000000,12.581451 364.000000,6.790726 364.000000,1.000000 
	C369.354919,1.000000 374.709869,1.000000 380.342560,1.434795 
	C380.620331,41.945362 380.620331,82.021133 380.620331,122.432106 
	C382.192810,122.432106 383.163361,122.432098 384.133942,122.432106 
	C421.949982,122.432327 459.766022,122.436363 497.582062,122.414635 
	C498.721436,122.413979 499.860687,122.144264 501.000000,122.000000 
	C501.000000,127.354927 501.000000,132.709854 500.531830,138.534241 
	C494.792877,139.003708 489.522064,139.003708 483.762085,139.003708 
	C483.762085,145.046066 483.762085,150.599915 483.762085,155.929260 
	C478.001099,155.929260 472.748657,155.929260 467.131073,155.929260 
	C467.131073,150.217117 467.131073,144.797516 467.131073,139.307434 
	C449.555450,139.307434 432.360565,139.307434 414.841278,139.307434 
	C414.841278,145.040665 414.841278,150.476318 414.841278,156.310745 
	C409.110840,156.310745 403.696381,156.310745 397.930786,156.310745 
	C397.930786,162.505997 397.930786,168.291260 397.950775,174.020477 
	C397.970764,173.964432 398.039978,173.867645 397.571838,173.811157 
	C391.681763,173.754669 386.259857,173.754669 380.324036,173.754669 
	C380.324036,185.499237 380.324036,196.668243 380.324036,207.668442 
	C374.563538,207.668442 369.338257,207.668442 363.770203,207.668442 
	C363.770203,201.933533 363.770203,196.530502 363.770203,190.878662 
	C351.977905,190.878662 340.544525,190.878662 329.111176,190.878662 
M345.992188,68.300117 
	C346.781891,69.184952 347.537659,70.796951 348.366882,70.835670 
	C353.453247,71.073151 358.556183,70.954613 363.670227,70.954613 
	C363.670227,58.967052 363.670227,47.448040 363.670227,36.159256 
	C357.620972,36.159256 351.900085,36.159256 345.991730,36.159256 
	C345.991730,46.769489 345.991730,57.049709 345.992188,68.300117 
z"/>
<path fill="#FBFBFB" opacity="1.000000" stroke="none" 
	d="
M121.923851,312.124023 
	C144.884964,312.124023 167.846085,312.124023 191.260620,312.124023 
	C191.260620,306.365875 191.260620,300.960632 191.260620,295.283752 
	C196.947159,295.283752 202.188339,295.283752 207.995926,295.283752 
	C207.995926,311.812988 207.995926,328.407074 207.518723,345.493408 
	C201.768555,345.985626 196.495605,345.985626 190.850815,345.985626 
	C190.850815,351.897369 190.850815,357.315430 190.850815,362.754578 
	C185.084808,362.754578 179.710556,362.754578 173.964661,362.754578 
	C173.964661,351.356903 173.964661,340.282776 173.964661,329.266235 
	C167.876694,329.266235 162.175598,329.266235 156.070312,329.266235 
	C156.070312,340.687134 156.070312,351.749054 156.070312,363.160675 
	C150.243362,363.160675 144.818634,363.160675 139.235260,363.160675 
	C139.235260,369.253601 139.235260,374.983246 139.235260,380.820099 
	C145.199875,380.820099 150.931442,380.820099 157.046967,380.820099 
	C157.046967,375.191345 157.046967,369.776276 157.046967,364.356262 
	C162.802399,364.356262 168.163177,364.356262 173.974579,364.356262 
	C173.974579,370.097961 173.974579,375.483978 173.974579,381.218750 
	C179.848679,381.218750 185.270142,381.218750 190.592499,381.218750 
	C190.592499,386.976807 190.592499,392.360291 190.592499,398.093445 
	C184.824188,398.093445 179.400970,398.093445 173.580048,398.093445 
	C173.580048,403.870148 173.580048,409.284821 173.580048,415.170837 
	C167.612213,415.170837 162.046249,415.170837 156.016113,415.170837 
	C156.016113,421.114441 156.016113,426.578339 155.548126,432.042114 
	C150.048828,432.099945 145.017517,432.157928 139.731506,432.158386 
	C139.381836,432.394714 139.286865,432.688568 139.105377,433.445129 
	C139.012573,456.271881 139.006287,478.635925 139.000000,501.000000 
	C133.645065,501.000000 128.290146,501.000000 122.657593,500.565247 
	C122.379967,460.387817 122.379967,420.645111 122.379967,380.567566 
	C120.807076,380.567566 119.836449,380.567566 118.865822,380.567566 
	C80.716492,380.567352 42.567150,380.563354 4.417831,380.585083 
	C3.278476,380.585724 2.139273,380.855621 1.000000,381.000000 
	C1.000000,363.979095 1.000000,346.958221 1.454933,329.588745 
	C7.493356,329.240143 13.076845,329.240143 19.022408,329.240143 
	C19.022408,323.227661 19.022408,317.624969 19.022408,312.022278 
	C35.822044,312.022278 52.621681,312.022278 69.956268,312.022278 
	C69.956268,317.858551 69.956268,323.425354 69.956268,329.236572 
	C75.622093,329.236572 80.755928,329.236572 86.527229,329.587646 
	C87.164688,335.190186 87.164688,340.441650 87.164688,345.810303 
	C75.829361,345.810303 64.905411,345.810303 53.585693,345.810303 
	C53.585693,340.213837 53.585693,334.785370 53.585693,329.203857 
	C47.469082,329.203857 41.752167,329.203857 35.632877,329.203857 
	C35.632877,334.913727 35.632877,340.323853 35.632877,346.229156 
	C29.682991,346.229156 24.134056,346.229156 18.592684,346.229156 
	C18.592684,352.342163 18.592684,357.943878 18.592684,363.687134 
	C53.308575,363.687134 87.805267,363.687134 122.156685,363.687134 
	C122.156685,358.066864 122.156685,352.757050 122.564560,347.218842 
	C128.545471,346.990448 134.118500,346.990448 139.570648,346.990448 
	C139.570648,340.432190 139.570648,334.720795 139.570648,328.788574 
	C133.574249,328.788574 127.933365,328.788574 122.354691,328.338989 
	C122.296974,322.571930 122.177048,317.254517 122.024155,311.984070 
	C121.991180,312.031036 121.923851,312.124023 121.923851,312.124023 
z"/>
<path fill="#030303" opacity="1.000000" stroke="none" 
	d="
M329.035583,190.954895 
	C340.544525,190.878662 351.977905,190.878662 363.770203,190.878662 
	C363.770203,196.530502 363.770203,201.933533 363.770203,207.668442 
	C369.338257,207.668442 374.563538,207.668442 380.324036,207.668442 
	C380.324036,196.668243 380.324036,185.499237 380.324036,173.754669 
	C386.259857,173.754669 391.681763,173.754669 397.653931,174.282837 
	C398.204193,180.079727 398.204193,185.348434 398.204193,191.094421 
	C404.303864,191.094421 409.864349,191.094421 415.865295,191.094421 
	C415.865295,214.265900 415.865295,236.949615 415.865295,259.705750 
	C421.423248,259.705750 426.510162,259.705750 432.107697,259.705750 
	C432.107697,253.948273 432.107697,248.384674 432.107697,242.563507 
	C438.083069,242.563507 443.545380,242.563507 449.560425,242.563507 
	C449.560425,230.928177 449.560425,219.554550 449.560425,208.000000 
	C467.078644,208.000000 484.039307,208.000000 501.000000,208.000000 
	C501.000000,213.688034 501.000000,219.376083 500.531342,225.530762 
	C489.169708,225.997406 478.276733,225.997406 467.445984,225.997406 
	C467.445984,231.922256 467.445984,237.158112 467.445984,243.000000 
	C478.813507,243.000000 489.906738,243.000000 501.000000,243.000000 
	C501.000000,248.354935 501.000000,253.709854 500.548462,259.667847 
	C477.827057,260.270935 455.557190,260.270935 433.219757,260.270935 
	C433.219757,266.132721 433.219757,271.390381 433.219757,277.037292 
	C438.847473,277.037292 444.265930,277.037292 450.210388,277.037292 
	C450.210388,288.878052 450.210388,300.329315 450.210388,311.780579 
	C450.210388,311.780579 449.956787,312.054230 449.379974,312.109497 
	C443.352448,312.164734 437.901764,312.164734 431.885498,312.164734 
	C431.885498,306.138184 431.885498,300.595245 431.885498,294.705841 
	C425.897980,294.705841 420.483368,294.705841 414.745636,294.705841 
	C414.745636,288.888702 414.745636,283.457611 414.745636,278.176880 
	C403.347290,278.176880 392.296509,278.176880 380.873779,278.176880 
	C380.873779,283.936707 380.873779,289.354736 380.873779,295.030060 
	C375.023499,295.030060 369.551880,295.030060 363.852264,294.930725 
	C363.332214,294.645538 363.131409,294.388397 363.047882,293.588165 
	C363.073853,282.190826 363.073853,271.265289 363.073853,259.885193 
	C369.051117,259.885193 374.611603,259.885193 380.229065,259.885193 
	C380.229065,254.037827 380.229065,248.653519 380.229065,242.817627 
	C374.346985,242.817627 368.786224,242.817627 362.840271,242.817627 
	C362.840271,236.964676 362.840271,231.570282 362.840271,226.010208 
	C357.298798,226.010208 352.162384,226.010208 346.799561,225.888794 
	C346.374695,225.493011 346.176239,225.218643 345.981323,224.480072 
	C345.984894,219.084885 345.984894,214.153900 345.984894,208.846130 
	C340.146118,208.846130 334.746124,208.846130 328.820587,208.846130 
	C328.820587,202.708145 328.820587,196.951279 328.820587,191.194397 
	C328.820587,191.194397 328.960022,191.031128 329.035583,190.954895 
M397.879150,216.521927 
	C397.879150,214.077866 397.879150,211.633789 397.879150,209.232788 
	C391.961151,209.232788 386.585846,209.232788 381.310364,209.232788 
	C381.310364,214.688995 381.310364,219.783356 381.310364,224.801819 
	C386.946442,224.801819 392.316986,224.801819 397.879150,224.801819 
	C397.879150,222.114899 397.879150,219.800018 397.879150,216.521927 
z"/>
<path fill="#FBFBFB" opacity="1.000000" stroke="none" 
	d="
M329.094360,347.223724 
	C334.534607,347.223724 339.974823,347.223724 345.704742,347.223724 
	C345.704742,357.991089 345.704742,369.028229 345.704742,380.453796 
	C340.238953,380.453796 334.823669,380.453796 328.891327,380.453796 
	C328.891327,386.266998 328.891327,391.702972 328.942444,397.579163 
	C328.993561,398.019409 329.062653,397.924469 328.590881,397.899292 
	C322.712921,397.874146 317.306702,397.874146 311.845917,397.874146 
	C311.845917,403.814850 311.845917,409.232758 311.397583,414.754883 
	C305.390289,414.859039 299.831299,414.859039 293.880798,414.859039 
	C293.880798,421.103210 293.880798,426.489075 293.880798,432.221313 
	C288.069550,432.221313 282.662842,432.221313 277.365295,432.221313 
	C277.365295,444.090607 277.365295,455.593506 277.365295,467.067810 
	C289.180359,467.067810 300.628662,467.067810 312.048859,467.026733 
	C312.020782,466.985657 311.939453,466.928436 311.798004,467.382843 
	C311.656555,473.338470 311.656555,478.839661 311.656555,485.055511 
	C317.891357,485.055511 323.435242,485.055511 328.979126,485.055511 
	C328.956360,490.060455 328.933594,495.065399 328.955414,500.535156 
	C317.979095,501.000000 306.958221,501.000000 295.466248,500.531830 
	C294.995148,494.821625 294.995148,489.579590 294.995148,484.320648 
	C288.744446,484.320648 282.925385,484.320648 277.000000,484.320648 
	C277.000000,490.109650 277.000000,495.554840 277.000000,501.000000 
	C271.645081,501.000000 266.290131,501.000000 260.603485,500.548584 
	C260.271759,489.110382 260.271759,478.123596 260.271759,467.028961 
	C254.128891,467.028961 248.546707,467.028961 243.033051,466.562439 
	C243.101562,460.830170 243.101562,455.564453 243.101562,449.962982 
	C249.055771,449.962982 254.491440,449.962982 260.406830,449.962982 
	C260.406830,438.403076 260.406830,427.181976 260.406830,415.492126 
	C266.478577,415.492126 272.060120,415.492126 277.555359,415.492126 
	C277.555359,409.406311 277.555359,403.809784 277.555359,397.749207 
	C271.727478,397.749207 266.154694,397.749207 260.216858,397.749207 
	C260.216858,391.862457 260.216858,386.434509 260.216858,380.790833 
	C248.430557,380.790833 237.031250,380.790833 225.152374,380.790833 
	C225.152374,392.195221 225.152374,403.424164 225.152374,414.657410 
	C219.445175,414.657410 214.224136,414.657410 208.828735,414.657410 
	C208.828735,391.867432 208.828735,369.401001 208.828735,346.934570 
	C213.935669,346.875977 219.042587,346.817322 224.657623,347.215271 
	C225.165726,352.952972 225.165726,358.234131 225.165726,363.970367 
	C242.587936,363.970367 259.612946,363.970367 277.182159,363.970367 
	C277.182159,369.951050 277.182159,375.488464 277.182159,380.871216 
	C283.346069,380.871216 288.957001,380.871216 295.113098,380.871216 
	C295.113098,375.172424 295.113098,369.642639 295.113098,363.841187 
	C306.751068,363.841187 317.839691,363.841187 329.094360,363.841187 
	C329.094360,358.108948 329.094360,352.666321 329.094360,347.223724 
z"/>
<path fill="#000000" opacity="1.000000" stroke="none" 
	d="
M121.531342,1.000000 
	C122.143402,2.139629 122.411507,3.279189 122.412148,4.418899 
	C122.433701,42.567188 122.429733,80.715500 122.429497,118.863800 
	C122.429489,119.834404 122.429497,120.805008 122.429497,122.377289 
	C82.020149,122.377289 41.945305,122.377289 1.435229,122.188644 
	C1.000000,81.739700 1.000000,41.479401 1.000000,1.000000 
	C41.020626,1.000000 81.041656,1.000000 121.531342,1.000000 
M19.020538,83.499847 
	C19.020538,90.452507 19.020538,97.405167 19.020538,104.501991 
	C47.834515,104.501991 76.201889,104.501991 104.569809,104.501991 
	C104.569809,75.959320 104.569809,47.709530 104.569809,19.309978 
	C75.976486,19.309978 47.608353,19.309978 19.020538,19.309978 
	C19.020538,40.565750 19.020538,61.532845 19.020538,83.499847 
z"/>
<path fill="#000000" opacity="1.000000" stroke="none" 
	d="
M1.000000,381.468658 
	C2.139273,380.855621 3.278476,380.585724 4.417831,380.585083 
	C42.567150,380.563354 80.716492,380.567352 118.865822,380.567566 
	C119.836449,380.567566 120.807076,380.567566 122.379967,380.567566 
	C122.379967,420.645111 122.379967,460.387817 122.189987,500.565247 
	C81.740005,501.000000 41.480011,501.000000 1.000000,501.000000 
	C1.000000,461.312714 1.000000,421.625000 1.000000,381.468658 
M84.499786,398.205719 
	C62.747078,398.205719 40.994373,398.205719 19.233509,398.205719 
	C19.233509,427.097015 19.233509,455.351959 19.233509,483.650177 
	C47.811523,483.650177 76.175316,483.650177 104.578583,483.650177 
	C104.578583,455.074860 104.578583,426.829437 104.578583,398.205719 
	C98.079811,398.205719 91.789650,398.205719 84.499786,398.205719 
z"/>
<path fill="#000000" opacity="1.000000" stroke="none" 
	d="
M501.000000,121.531342 
	C499.860687,122.144264 498.721436,122.413979 497.582062,122.414635 
	C459.766022,122.436363 421.949982,122.432327 384.133942,122.432106 
	C383.163361,122.432098 382.192810,122.432106 380.620331,122.432106 
	C380.620331,82.021133 380.620331,41.945362 380.810181,1.434795 
	C420.927277,1.000000 460.854523,1.000000 501.000000,1.000000 
	C501.000000,41.020630 501.000000,81.041656 501.000000,121.531342 
M427.499908,104.794273 
	C446.254150,104.794273 465.008362,104.794273 483.765015,104.794273 
	C483.765015,75.900047 483.765015,47.645039 483.765015,19.351425 
	C455.185516,19.351425 426.821777,19.351425 398.422852,19.351425 
	C398.422852,47.928223 398.422852,76.173592 398.422852,104.794273 
	C407.923279,104.794273 417.211578,104.794273 427.499908,104.794273 
z"/>
<path fill="#FDFDFD" opacity="1.000000" stroke="none" 
	d="
M501.000000,207.531342 
	C484.039307,208.000000 467.078644,208.000000 449.560425,208.000000 
	C449.560425,219.554550 449.560425,230.928177 449.560425,242.563507 
	C443.545380,242.563507 438.083069,242.563507 432.107697,242.563507 
	C432.107697,248.384674 432.107697,253.948273 432.107697,259.705750 
	C426.510162,259.705750 421.423248,259.705750 415.865295,259.705750 
	C415.865295,236.949615 415.865295,214.265900 415.865295,191.094421 
	C409.864349,191.094421 404.303864,191.094421 398.204193,191.094421 
	C398.204193,185.348434 398.204193,180.079727 398.122070,174.339325 
	C398.039978,173.867645 397.970764,173.964432 398.422363,174.060944 
	C410.129028,174.157440 421.384094,174.157440 433.184631,174.157440 
	C433.184631,168.135086 433.184631,162.591202 433.184631,157.224670 
	C438.859314,157.224670 443.981262,157.224670 449.497162,157.224670 
	C449.497162,162.843155 449.497162,168.263702 449.497162,174.155869 
	C455.442291,174.155869 461.008667,174.155869 467.060730,174.155869 
	C467.060730,180.178040 467.060730,185.731018 467.060730,191.031708 
	C473.151001,191.031708 478.726166,191.031708 484.709290,191.031708 
	C484.709290,185.289322 484.709290,179.874649 484.709290,174.000000 
	C490.415741,174.000000 495.707886,174.000000 501.000000,174.000000 
	C501.000000,185.020889 501.000000,196.041794 501.000000,207.531342 
z"/>
<path fill="#010101" opacity="1.000000" stroke="none" 
	d="
M242.964523,467.028961 
	C248.546707,467.028961 254.128891,467.028961 260.271759,467.028961 
	C260.271759,478.123596 260.271759,489.110382 260.135864,500.548584 
	C237.312439,501.000000 214.624878,501.000000 191.441055,500.532898 
	C190.944794,494.965149 190.944794,489.864532 190.944794,484.863098 
	C185.019409,484.863098 179.747162,484.863098 174.000000,484.863098 
	C174.000000,490.397522 174.000000,495.698761 174.000000,501.000000 
	C162.645767,501.000000 151.291550,501.000000 139.468658,501.000000 
	C139.006287,478.635925 139.012573,456.271881 139.273224,433.357849 
	C139.737076,432.654419 139.889954,432.457092 139.986221,432.215912 
	C145.017517,432.157928 150.048828,432.099945 155.672607,432.265137 
	C156.546692,432.672516 156.828293,432.856720 157.063507,433.504974 
	C157.017136,450.534729 157.017136,467.100403 157.017136,483.590637 
	C162.870712,483.590637 168.226776,483.590637 174.000580,483.590637 
	C174.000580,477.819733 174.000580,472.430786 174.000580,467.165588 
	C185.815720,467.165588 197.195602,467.165588 208.980225,467.165588 
	C208.980225,472.864746 208.980225,478.268616 208.980225,483.627258 
	C220.415192,483.627258 231.434647,483.627258 243.060471,483.627258 
	C243.060471,477.835632 243.060471,472.389282 243.035873,466.963776 
	C243.011276,466.984589 242.964523,467.028961 242.964523,467.028961 
z"/>
<path fill="#020202" opacity="1.000000" stroke="none" 
	d="
M501.000000,173.531342 
	C495.707886,174.000000 490.415741,174.000000 484.709290,174.000000 
	C484.709290,179.874649 484.709290,185.289322 484.709290,191.031708 
	C478.726166,191.031708 473.151001,191.031708 467.060730,191.031708 
	C467.060730,185.731018 467.060730,180.178040 467.060730,174.155869 
	C461.008667,174.155869 455.442291,174.155869 449.497162,174.155869 
	C449.497162,168.263702 449.497162,162.843155 449.497162,157.224670 
	C443.981262,157.224670 438.859314,157.224670 433.184631,157.224670 
	C433.184631,162.591202 433.184631,168.135086 433.184631,174.157440 
	C421.384094,174.157440 410.129028,174.157440 398.402374,174.116974 
	C397.930786,168.291260 397.930786,162.505997 397.930786,156.310745 
	C403.696381,156.310745 409.110840,156.310745 414.841278,156.310745 
	C414.841278,150.476318 414.841278,145.040665 414.841278,139.307434 
	C432.360565,139.307434 449.555450,139.307434 467.131073,139.307434 
	C467.131073,144.797516 467.131073,150.217117 467.131073,155.929260 
	C472.748657,155.929260 478.001099,155.929260 483.762085,155.929260 
	C483.762085,150.599915 483.762085,145.046066 483.762085,139.003708 
	C489.522064,139.003708 494.792877,139.003708 500.531830,139.001862 
	C501.000000,150.354233 501.000000,161.708450 501.000000,173.531342 
z"/>
<path fill="#FAFAFA" opacity="1.000000" stroke="none" 
	d="
M450.660706,311.719360 
	C450.210388,300.329315 450.210388,288.878052 450.210388,277.037292 
	C444.265930,277.037292 438.847473,277.037292 433.219757,277.037292 
	C433.219757,271.390381 433.219757,266.132721 433.219757,260.270935 
	C455.557190,260.270935 477.827057,260.270935 500.548462,260.135468 
	C501.000000,265.354919 501.000000,270.709869 500.531799,276.529877 
	C494.809418,276.994965 489.555237,276.994965 483.803925,276.994965 
	C483.803925,282.971283 483.803925,288.506195 483.803925,294.373291 
	C477.885895,294.373291 472.477264,294.373291 466.938568,294.373291 
	C466.938568,300.514587 466.938568,306.296265 466.952942,312.017670 
	C466.967285,311.957397 467.041534,311.858215 467.041534,311.858215 
	C461.731354,311.791534 456.421204,311.724823 450.660706,311.719360 
z"/>
<path fill="#FDFDFD" opacity="1.000000" stroke="none" 
	d="
M1.000000,209.468658 
	C6.627746,209.000000 12.255492,209.000000 18.291451,209.000000 
	C18.291451,220.318161 18.291451,231.393372 18.291451,242.964386 
	C24.244543,242.964386 29.805490,242.964386 35.585182,242.964386 
	C35.585182,254.391464 35.585182,265.319458 35.585182,276.993805 
	C24.419466,276.993805 13.178382,276.993805 1.468649,276.996887 
	C1.000000,254.645767 1.000000,232.291550 1.000000,209.468658 
z"/>
<path fill="#FBFBFB" opacity="1.000000" stroke="none" 
	d="
M501.000000,431.533142 
	C489.876862,432.000000 478.753754,432.000000 467.208557,432.000000 
	C467.208557,426.218079 467.208557,420.803406 467.208557,415.048096 
	C455.695831,415.048096 444.602081,415.048096 433.253784,415.048096 
	C433.253784,409.433167 433.253784,404.165771 433.253784,398.204376 
	C449.756012,398.204376 466.346649,398.204376 483.413086,398.631989 
	C483.888855,404.454712 483.888855,409.849792 483.888855,416.000000 
	C489.912048,416.000000 495.456024,416.000000 501.000000,416.000000 
	C501.000000,421.022095 501.000000,426.044189 501.000000,431.533142 
z"/>
<path fill="#FBFBFB" opacity="1.000000" stroke="none" 
	d="
M1.000000,174.467606 
	C18.107746,174.000000 35.215492,174.000000 52.644157,174.000000 
	C52.644157,179.673111 52.644157,185.050125 52.644157,190.807297 
	C47.260204,190.807297 41.846043,190.807297 36.011215,190.807297 
	C36.011215,196.553192 36.011215,201.947815 36.011215,207.668732 
	C30.220648,207.668732 24.852713,207.668732 19.094997,207.668732 
	C19.094997,202.248047 19.094997,196.837692 19.094997,190.944794 
	C13.128314,190.944794 7.531730,190.944794 1.467573,190.972397 
	C1.000000,185.645065 1.000000,180.290146 1.000000,174.467606 
z"/>
<path fill="#FDFDFD" opacity="1.000000" stroke="none" 
	d="
M501.000000,345.531342 
	C495.713959,346.000000 490.427917,346.000000 484.719055,346.000000 
	C484.719055,340.292236 484.719055,334.901764 484.719055,329.046082 
	C478.768707,329.046082 473.221039,329.046082 467.165344,329.046082 
	C467.165344,323.323639 467.165344,318.065826 467.103455,312.333130 
	C467.041534,311.858215 466.967285,311.957397 467.424347,312.042297 
	C473.330048,312.127167 478.778687,312.127167 484.657257,312.127167 
	C484.657257,306.179016 484.657257,300.764923 484.657257,295.000000 
	C490.392670,295.000000 495.696320,295.000000 501.000000,295.000000 
	C501.000000,311.687561 501.000000,328.375122 501.000000,345.531342 
z"/>
<path fill="#010101" opacity="1.000000" stroke="none" 
	d="
M311.531342,1.000000 
	C312.000000,12.584114 312.000000,24.168228 312.000000,35.944336 
	C306.032776,35.944336 300.433563,35.944336 294.266754,35.944336 
	C294.266754,30.475412 294.266754,24.939060 294.266754,19.068823 
	C288.302582,19.068823 282.888306,19.068823 277.000183,19.068823 
	C277.000183,13.128137 277.000183,7.532316 277.000092,1.468248 
	C288.354218,1.000000 299.708466,1.000000 311.531342,1.000000 
z"/>
<path fill="#000000" opacity="1.000000" stroke="none" 
	d="
M363.531342,1.000000 
	C364.000000,6.790726 364.000000,12.581451 364.000000,18.696615 
	C352.353546,18.696615 340.865845,18.696615 328.914276,18.696615 
	C328.914276,13.101177 328.914276,7.517179 328.957153,1.466590 
	C340.354218,1.000000 351.708466,1.000000 363.531342,1.000000 
z"/>
<path fill="#040404" opacity="1.000000" stroke="none" 
	d="
M501.000000,294.532043 
	C495.696320,295.000000 490.392670,295.000000 484.657257,295.000000 
	C484.657257,300.764923 484.657257,306.179016 484.657257,312.127167 
	C478.778687,312.127167 473.330048,312.127167 467.409973,312.102539 
	C466.938568,306.296265 466.938568,300.514587 466.938568,294.373291 
	C472.477264,294.373291 477.885895,294.373291 483.803925,294.373291 
	C483.803925,288.506195 483.803925,282.971283 483.803925,276.994965 
	C489.555237,276.994965 494.809418,276.994965 500.531799,276.997498 
	C501.000000,282.688049 501.000000,288.376068 501.000000,294.532043 
z"/>
<path fill="#F7F7F7" opacity="1.000000" stroke="none" 
	d="
M501.000000,242.532394 
	C489.906738,243.000000 478.813507,243.000000 467.445984,243.000000 
	C467.445984,237.158112 467.445984,231.922256 467.445984,225.997406 
	C478.276733,225.997406 489.169708,225.997406 500.531342,225.998703 
	C501.000000,231.354935 501.000000,236.709854 501.000000,242.532394 
z"/>
<path fill="#FDFDFD" opacity="1.000000" stroke="none" 
	d="
M485.471191,501.000000 
	C485.000000,489.929962 485.000000,478.859894 485.000000,467.161163 
	C489.919373,467.161163 494.998138,467.161163 500.538452,467.080566 
	C501.000000,478.232025 501.000000,489.464081 501.000000,501.000000 
	C495.984894,501.000000 490.963654,501.000000 485.471191,501.000000 
z"/>
<path fill="#000000" opacity="1.000000" stroke="none" 
	d="
M277.467957,501.000000 
	C277.000000,495.554840 277.000000,490.109650 277.000000,484.320648 
	C282.925385,484.320648 288.744446,484.320648 294.995148,484.320648 
	C294.995148,489.579590 294.995148,494.821625 294.997559,500.531830 
	C289.311951,501.000000 283.623932,501.000000 277.467957,501.000000 
z"/>
<path fill="#0A0A0A" opacity="1.000000" stroke="none" 
	d="
M501.000000,415.532043 
	C495.456024,416.000000 489.912048,416.000000 483.888855,416.000000 
	C483.888855,409.849792 483.888855,404.454712 483.871704,398.601013 
	C483.854553,398.142426 484.097626,397.854614 484.683411,397.814758 
	C490.512787,397.849945 495.756378,397.924957 501.000000,398.000000 
	C501.000000,403.688049 501.000000,409.376068 501.000000,415.532043 
z"/>
<path fill="#060606" opacity="1.000000" stroke="none" 
	d="
M18.929626,311.918579 
	C19.022408,317.624969 19.022408,323.227661 19.022408,329.240143 
	C13.076845,329.240143 7.493356,329.240143 1.454933,329.120056 
	C1.000000,323.645081 1.000000,318.290131 1.442684,312.303650 
	C7.462755,311.662567 13.040143,311.653046 18.617531,311.643555 
	C18.617531,311.643555 18.836845,311.814880 18.929626,311.918579 
z"/>
<path fill="#F9F9F9" opacity="1.000000" stroke="none" 
	d="
M18.505516,311.216980 
	C13.040143,311.653046 7.462755,311.662567 1.442684,311.836029 
	C1.000000,306.645081 1.000000,301.290131 1.000000,295.467590 
	C6.590805,295.000000 12.181610,295.000000 18.393501,295.000000 
	C18.393501,300.382355 18.393501,305.586395 18.505516,311.216980 
z"/>
<path fill="#FBFBFB" opacity="1.000000" stroke="none" 
	d="
M501.000000,397.532410 
	C495.756378,397.924957 490.512787,397.849945 484.833801,397.701416 
	C484.398438,392.244049 484.398438,386.860229 484.398438,381.042542 
	C489.952698,381.042542 495.008942,381.042542 500.532593,381.021271 
	C501.000000,386.354919 501.000000,391.709869 501.000000,397.532410 
z"/>
<path fill="#FBFBFB" opacity="1.000000" stroke="none" 
	d="
M174.467606,501.000000 
	C174.000000,495.698761 174.000000,490.397522 174.000000,484.863098 
	C179.747162,484.863098 185.019409,484.863098 190.944794,484.863098 
	C190.944794,489.864532 190.944794,494.965149 190.972397,500.532898 
	C185.645065,501.000000 180.290146,501.000000 174.467606,501.000000 
z"/>
<path fill="#FBFBFB" opacity="1.000000" stroke="none" 
	d="
M347.025970,226.010208 
	C352.162384,226.010208 357.298798,226.010208 362.840271,226.010208 
	C362.840271,231.570282 362.840271,236.964676 362.840271,242.817627 
	C368.786224,242.817627 374.346985,242.817627 380.229065,242.817627 
	C380.229065,248.653519 380.229065,254.037827 380.229065,259.885193 
	C374.611603,259.885193 369.051117,259.885193 363.073853,259.885193 
	C363.073853,271.265289 363.073853,282.190826 362.579437,293.620392 
	C356.817780,294.124420 351.550568,294.124420 346.293518,294.124420 
	C346.293518,300.420105 346.293518,306.150085 346.293518,311.753723 
	C352.331543,311.753723 358.063354,311.753723 364.080231,311.753723 
	C364.080231,305.976959 364.080231,300.503510 364.080231,295.030060 
	C369.551880,295.030060 375.023499,295.030060 380.873779,295.030060 
	C380.873779,289.354736 380.873779,283.936707 380.873779,278.176880 
	C392.296509,278.176880 403.347290,278.176880 414.745636,278.176880 
	C414.745636,283.457611 414.745636,288.888702 414.745636,294.705841 
	C420.483368,294.705841 425.897980,294.705841 431.885498,294.705841 
	C431.885498,300.595245 431.885498,306.138184 431.885498,312.164734 
	C437.901764,312.164734 443.352448,312.164734 449.245361,312.238617 
	C449.687531,329.413147 449.687531,346.513794 449.687531,363.926422 
	C455.355408,363.926422 460.799683,363.926422 466.547791,363.926422 
	C466.547791,369.475189 466.547791,374.720001 466.547791,380.265686 
	C455.569122,380.265686 444.507294,380.265686 433.044891,380.265686 
	C433.044891,368.907623 433.044891,357.669800 433.044891,346.060181 
	C409.931152,346.060181 387.211060,346.060181 364.111450,346.060181 
	C364.111450,340.284119 364.111450,334.866821 364.111450,328.847443 
	C352.487244,328.847443 341.237885,328.847443 329.614746,328.441589 
	C329.240997,322.615417 329.240997,317.195099 329.240997,311.417358 
	C323.140411,311.417358 317.715424,311.417358 312.335388,311.417358 
	C312.335388,305.781647 312.335388,300.535858 312.335388,294.941345 
	C318.024414,294.941345 323.454346,294.941345 329.064697,294.941345 
	C329.064697,288.862488 329.064697,283.138977 329.064697,276.973389 
	C317.607635,276.973389 306.336334,276.973389 295.065033,276.973389 
	C295.065033,271.647125 295.065033,266.320831 295.065033,260.581787 
	C300.597931,260.581787 306.018585,260.581787 311.750488,260.581787 
	C311.750488,248.742737 311.750488,237.309265 311.750488,225.321014 
	C300.687378,225.321014 289.471436,225.321014 278.045349,225.321014 
	C278.045349,213.833038 278.045349,202.895721 278.045349,191.346436 
	C294.697510,191.346436 311.308716,191.346436 328.370239,191.270416 
	C328.820587,196.951279 328.820587,202.708145 328.820587,208.846130 
	C334.746124,208.846130 340.146118,208.846130 345.984894,208.846130 
	C345.984894,214.153900 345.984894,219.084885 345.523438,224.576233 
	C339.794434,225.136612 334.526947,225.136612 329.245667,225.136612 
	C329.245667,237.189621 329.245667,248.702454 329.245667,260.047363 
	C335.195190,260.047363 340.785431,260.047363 347.025970,260.047363 
	C347.025970,248.523224 347.025970,237.266724 347.025970,226.010208 
M401.494812,329.261200 
	C406.099121,329.261200 410.703461,329.261200 415.419800,329.261200 
	C415.419800,323.119537 415.419800,317.542908 415.419800,311.927521 
	C403.730194,311.927521 392.324677,311.927521 380.838623,311.927521 
	C380.838623,317.783478 380.838623,323.339020 380.838623,329.261200 
	C387.577576,329.261200 394.036896,329.261200 401.494812,329.261200 
z"/>
<path fill="#FCFCFC" opacity="1.000000" stroke="none" 
	d="
M243.136978,311.961151 
	C237.672043,311.961151 232.207092,311.961151 226.337982,311.961151 
	C226.337982,300.183411 226.337982,288.951141 226.337982,277.175720 
	C220.417191,277.175720 214.864151,277.175720 208.914276,277.175720 
	C208.914276,271.238281 208.914276,265.826447 208.914276,260.085175 
	C197.247787,260.085175 185.989822,260.085175 174.417755,260.085175 
	C174.417755,248.692673 174.417755,237.639267 174.417755,226.064926 
	C179.933258,226.064926 185.504608,226.064926 191.448715,226.064926 
	C191.448715,220.126785 191.448715,214.698975 191.448715,208.986832 
	C197.285431,208.986832 202.736221,208.986832 208.655823,208.986832 
	C208.655823,203.130661 208.655823,197.551636 208.655823,191.672516 
	C214.351944,191.672516 219.580841,191.672516 224.993622,191.672516 
	C224.993622,202.798416 224.993622,213.728622 224.993622,225.061249 
	C219.440948,225.061249 214.022995,225.061249 208.308746,225.061249 
	C208.308746,231.177353 208.308746,236.897415 208.308746,243.005829 
	C213.755127,243.005829 219.175949,243.005829 225.017853,243.005829 
	C225.017853,248.776077 225.017853,254.188766 225.017853,259.948914 
	C231.148880,259.948914 236.855911,259.948914 242.824982,259.948914 
	C242.824982,254.431473 242.824982,248.847763 242.824982,242.811188 
	C237.398880,242.811188 231.995377,242.811188 226.305481,242.811188 
	C226.305481,237.128189 226.305481,231.881821 226.305481,226.318222 
	C242.899490,226.318222 259.630768,226.318222 276.679504,226.318222 
	C276.679504,237.222916 276.679504,248.281540 276.679504,259.744324 
	C271.332550,259.744324 265.918427,259.744324 260.215149,259.744324 
	C260.215149,265.863708 260.215149,271.587189 260.215149,277.826599 
	C271.224731,277.826599 282.166840,277.826599 293.612427,278.310822 
	C294.115845,301.068481 294.115845,323.341888 294.115845,345.629822 
	C282.625183,345.629822 271.587646,345.629822 260.036072,345.629822 
	C260.036072,339.809570 260.036072,334.340820 259.990356,328.910797 
	C259.944611,328.949524 259.928162,329.068237 260.391479,329.169586 
	C266.429047,329.270935 272.003296,329.270935 277.515991,329.270935 
	C277.515991,317.151337 277.515991,305.757080 277.515991,294.393616 
	C265.777252,294.393616 254.357605,294.393616 242.934937,294.393616 
	C242.934937,300.470276 242.934937,306.271790 242.995560,312.063477 
	C243.056183,312.053650 243.136978,311.961151 243.136978,311.961151 
z"/>
<path fill="#020202" opacity="1.000000" stroke="none" 
	d="
M157.109879,433.040924 
	C156.828293,432.856720 156.546692,432.672516 156.140610,432.265289 
	C156.016113,426.578339 156.016113,421.114441 156.016113,415.170837 
	C162.046249,415.170837 167.612213,415.170837 173.580048,415.170837 
	C173.580048,409.284821 173.580048,403.870148 173.580048,398.093445 
	C179.400970,398.093445 184.824188,398.093445 190.592499,398.093445 
	C190.592499,392.360291 190.592499,386.976807 190.592499,381.218750 
	C185.270142,381.218750 179.848679,381.218750 173.974579,381.218750 
	C173.974579,375.483978 173.974579,370.097961 173.974579,364.356262 
	C168.163177,364.356262 162.802399,364.356262 157.046967,364.356262 
	C157.046967,369.776276 157.046967,375.191345 157.046967,380.820099 
	C150.931442,380.820099 145.199875,380.820099 139.235260,380.820099 
	C139.235260,374.983246 139.235260,369.253601 139.235260,363.160675 
	C144.818634,363.160675 150.243362,363.160675 156.070312,363.160675 
	C156.070312,351.749054 156.070312,340.687134 156.070312,329.266235 
	C162.175598,329.266235 167.876694,329.266235 173.964661,329.266235 
	C173.964661,340.282776 173.964661,351.356903 173.964661,362.754578 
	C179.710556,362.754578 185.084808,362.754578 190.850815,362.754578 
	C190.850815,357.315430 190.850815,351.897369 190.850815,345.985626 
	C196.495605,345.985626 201.768555,345.985626 207.507263,345.957520 
	C208.049637,346.233734 208.204437,346.491058 208.633057,346.817993 
	C208.828735,369.401001 208.828735,391.867432 208.828735,414.657410 
	C214.224136,414.657410 219.445175,414.657410 225.152374,414.657410 
	C225.152374,403.424164 225.152374,392.195221 225.152374,380.790833 
	C237.031250,380.790833 248.430557,380.790833 260.216858,380.790833 
	C260.216858,386.434509 260.216858,391.862457 260.216858,397.749207 
	C266.154694,397.749207 271.727478,397.749207 277.555359,397.749207 
	C277.555359,403.809784 277.555359,409.406311 277.555359,415.492126 
	C272.060120,415.492126 266.478577,415.492126 260.406830,415.492126 
	C260.406830,427.181976 260.406830,438.403076 260.406830,449.962982 
	C254.491440,449.962982 249.055771,449.962982 243.101562,449.962982 
	C243.101562,455.564453 243.101562,460.830170 243.033051,466.562439 
	C242.964523,467.028961 243.011276,466.984589 242.579895,467.098907 
	C236.573334,467.213226 230.998184,467.213226 225.001434,467.213226 
	C225.001434,461.074493 225.001434,455.671570 225.001434,449.929138 
	C219.154907,449.929138 213.736710,449.929138 207.890442,449.929138 
	C207.890442,438.333893 207.890442,427.098389 207.890442,415.992920 
	C202.196060,415.992920 196.952362,415.992920 191.380859,415.992920 
	C191.380859,427.379913 191.380859,438.473877 191.380859,449.726135 
	C185.322556,449.726135 179.603226,449.726135 173.479248,449.726135 
	C173.479248,444.002716 173.479248,438.587494 173.479248,433.040924 
	C167.750198,433.040924 162.430038,433.040924 157.109879,433.040924 
M238.309067,432.045013 
	C239.717148,431.939209 241.125214,431.833435 242.439041,431.734711 
	C242.439041,426.169006 242.439041,421.075928 242.439041,415.884521 
	C236.920670,415.884521 231.667358,415.884521 226.245117,415.884521 
	C226.245117,421.299683 226.245117,426.518585 226.245117,432.045013 
	C230.106613,432.045013 233.729111,432.045013 238.309067,432.045013 
z"/>
<path fill="#030303" opacity="1.000000" stroke="none" 
	d="
M260.036072,328.872070 
	C260.036072,334.340820 260.036072,339.809570 260.036072,345.629822 
	C271.587646,345.629822 282.625183,345.629822 294.115845,345.629822 
	C294.115845,323.341888 294.115845,301.068481 294.084320,278.316895 
	C294.165985,277.538727 294.361023,277.307861 294.851440,277.059753 
	C306.336334,276.973389 317.607635,276.973389 329.064697,276.973389 
	C329.064697,283.138977 329.064697,288.862488 329.064697,294.941345 
	C323.454346,294.941345 318.024414,294.941345 312.335388,294.941345 
	C312.335388,300.535858 312.335388,305.781647 312.335388,311.417358 
	C317.715424,311.417358 323.140411,311.417358 329.240997,311.417358 
	C329.240997,317.195099 329.240997,322.615417 329.152344,328.491425 
	C329.063660,328.947113 329.045319,328.974152 328.573517,329.095306 
	C322.868713,329.216461 317.635712,329.216461 312.360321,329.216461 
	C312.360321,335.105957 312.360321,340.448120 312.360321,345.898041 
	C318.098755,345.898041 323.530090,345.898041 328.961456,345.898041 
	C328.984253,346.118927 329.007019,346.339813 329.062073,346.892212 
	C329.094360,352.666321 329.094360,358.108948 329.094360,363.841187 
	C317.839691,363.841187 306.751068,363.841187 295.113098,363.841187 
	C295.113098,369.642639 295.113098,375.172424 295.113098,380.871216 
	C288.957001,380.871216 283.346069,380.871216 277.182159,380.871216 
	C277.182159,375.488464 277.182159,369.951050 277.182159,363.970367 
	C259.612946,363.970367 242.587936,363.970367 225.165726,363.970367 
	C225.165726,358.234131 225.165726,352.952972 225.130066,347.185425 
	C225.207764,346.437347 225.392365,346.243500 226.307495,346.059204 
	C232.052979,346.000916 237.139160,346.000916 243.055893,346.000916 
	C243.055893,340.056671 243.055893,334.500763 243.055893,328.944855 
	C243.055893,328.944855 243.008224,329.005554 243.445190,328.963074 
	C249.266785,328.904388 254.651428,328.888245 260.036072,328.872070 
z"/>
<path fill="#FBFBFB" opacity="1.000000" stroke="none" 
	d="
M104.905548,278.231110 
	C104.905548,283.649872 104.905548,289.068665 104.905548,294.796082 
	C110.440475,294.796082 115.837715,294.796082 121.803131,294.796082 
	C121.803131,300.446014 121.803131,305.811035 121.863495,311.650024 
	C121.923851,312.124023 121.991180,312.031036 121.567963,311.852966 
	C115.778564,311.674896 110.412392,311.674896 105.024483,311.674896 
	C105.024483,317.866394 105.024483,323.445801 104.561935,328.942017 
	C98.763710,328.894287 93.428040,328.929749 88.092361,328.965210 
	C88.092361,317.522705 88.092361,306.080170 88.092361,294.161682 
	C70.643837,294.161682 53.612762,294.161682 36.366928,294.161682 
	C36.366928,288.603668 36.366928,283.521790 36.366928,277.913605 
	C41.999413,277.913605 47.559948,277.913605 53.562927,277.913605 
	C53.562927,271.814606 53.562927,266.229919 53.562927,260.283051 
	C64.621971,260.283051 75.229622,260.283051 86.476944,260.621399 
	C87.116631,266.537201 87.116631,272.114594 87.116631,278.231110 
	C93.638481,278.231110 99.272018,278.231110 104.905548,278.231110 
z"/>
<path fill="#020202" opacity="1.000000" stroke="none" 
	d="
M87.766037,328.990509 
	C93.428040,328.929749 98.763710,328.894287 104.537292,328.925781 
	C104.975204,328.992706 104.945679,328.941650 105.050552,329.404266 
	C105.155426,335.132355 105.155426,340.397827 105.155426,345.934052 
	C111.069077,345.934052 116.522949,345.934052 122.010391,346.313721 
	C122.081543,346.944641 122.119110,347.195923 122.156685,347.447235 
	C122.156685,352.757050 122.156685,358.066864 122.156685,363.687134 
	C87.805267,363.687134 53.308575,363.687134 18.592684,363.687134 
	C18.592684,357.943878 18.592684,352.342163 18.592684,346.229156 
	C24.134056,346.229156 29.682991,346.229156 35.632877,346.229156 
	C35.632877,340.323853 35.632877,334.913727 35.632877,329.203857 
	C41.752167,329.203857 47.469082,329.203857 53.585693,329.203857 
	C53.585693,334.785370 53.585693,340.213837 53.585693,345.810303 
	C64.905411,345.810303 75.829361,345.810303 87.164688,345.810303 
	C87.164688,340.441650 87.164688,335.190186 86.976440,329.509003 
	C87.005363,329.058136 87.222542,329.036957 87.766037,328.990509 
z"/>
<path fill="#FCFCFC" opacity="1.000000" stroke="none" 
	d="
M87.301544,214.991241 
	C87.301544,218.482819 87.301544,221.476288 87.301544,224.998230 
	C81.651192,224.998230 76.090874,224.998230 70.073257,224.998230 
	C70.073257,231.077240 70.073257,236.651825 70.073257,242.450989 
	C64.496315,242.450989 59.384041,242.450989 53.772278,242.450989 
	C53.772278,237.002884 53.772278,231.431702 53.772278,225.339050 
	C47.745079,225.339050 42.193779,225.339050 36.400017,225.339050 
	C36.400017,219.727951 36.400017,214.640472 36.400017,209.017349 
	C47.760963,209.017349 59.132168,209.017349 70.957199,209.017349 
	C70.957199,202.931915 70.957199,197.356918 70.957199,191.585587 
	C76.517700,191.585587 81.615089,191.585587 87.301537,191.585587 
	C87.301537,199.304398 87.301537,206.898773 87.301544,214.991241 
z"/>
<path fill="#F8F8F8" opacity="1.000000" stroke="none" 
	d="
M105.112488,260.139557 
	C121.913185,260.139557 138.713882,260.139557 155.878418,260.139557 
	C155.878418,265.791779 155.878418,271.030945 155.878418,276.781128 
	C150.621750,276.781128 145.066544,276.781128 139.152954,276.781128 
	C139.152954,282.688995 139.152954,288.110870 139.152954,293.830017 
	C133.549850,293.830017 128.310760,293.830017 122.676514,293.830017 
	C122.676514,288.468292 122.676514,283.038177 122.676514,276.945038 
	C116.864471,276.945038 111.426102,276.945038 105.556595,276.432922 
	C105.121124,270.660400 105.116806,265.399963 105.112488,260.139557 
z"/>
<path fill="#000000" opacity="1.000000" stroke="none" 
	d="
M191.008118,156.731369 
	C185.355133,157.071152 179.735016,157.071152 173.937286,157.071152 
	C173.937286,139.497559 173.937286,122.425140 173.937286,105.073395 
	C179.624054,105.073395 185.191803,105.073395 191.330383,105.073395 
	C191.330383,121.680199 191.330383,138.256882 191.232910,155.274490 
	C191.103943,155.940796 191.072449,156.166199 191.008118,156.731369 
z"/>
<path fill="#F9F9F9" opacity="1.000000" stroke="none" 
	d="
M277.002228,128.971802 
	C277.002228,132.440964 277.002228,135.415390 277.002228,138.698654 
	C271.465088,138.698654 266.105499,138.698654 260.521606,138.698654 
	C260.521606,121.854881 260.521606,105.158569 260.521606,88.237473 
	C265.984985,88.237473 271.226196,88.237473 277.002228,88.237473 
	C277.002228,101.680687 277.002228,115.078865 277.002228,128.971802 
z"/>
<path fill="#FBFBFB" opacity="1.000000" stroke="none" 
	d="
M192.006104,36.002201 
	C197.459732,36.002201 202.913376,36.002201 208.757233,36.002201 
	C208.757233,30.382317 208.757233,24.965240 208.757233,19.290916 
	C214.366364,19.290916 219.584076,19.290916 224.991211,19.290916 
	C224.991211,30.405851 224.991211,41.339546 224.991211,52.971161 
	C214.337158,52.971161 203.601456,52.971161 192.156219,52.584358 
	C191.633163,46.799103 191.819626,41.400654 192.006104,36.002201 
z"/>
<path fill="#F8F8F8" opacity="1.000000" stroke="none" 
	d="
M277.003662,170.008972 
	C277.003662,177.144394 277.003662,183.780991 277.003662,190.679626 
	C271.448029,190.679626 266.189240,190.679626 260.610046,190.679626 
	C260.610046,179.668259 260.610046,168.606552 260.610046,157.273438 
	C265.918915,157.273438 271.168823,157.273438 277.003662,157.273438 
	C277.003662,161.305511 277.003662,165.407822 277.003662,170.008972 
z"/>
<path fill="#0A0A0A" opacity="1.000000" stroke="none" 
	d="
M105.089401,260.075317 
	C105.116806,265.399963 105.121124,270.660400 105.095230,276.376648 
	C105.045052,277.066376 105.025093,277.300232 104.955338,277.882568 
	C99.272018,278.231110 93.638481,278.231110 87.116631,278.231110 
	C87.116631,272.114594 87.116631,266.537201 86.921303,260.535217 
	C86.950439,260.075897 87.174911,260.041168 88.201347,259.962952 
	C94.317009,259.929565 99.630699,259.939697 104.944389,259.949829 
	C104.944389,259.949799 105.066322,260.011108 105.089401,260.075317 
z"/>
<path fill="#0A0A0A" opacity="1.000000" stroke="none" 
	d="
M345.839722,105.053406 
	C340.549530,105.097435 335.259308,105.141472 329.511658,105.122536 
	C329.054199,105.059570 329.026428,105.041832 328.940613,104.565140 
	C328.891296,98.759491 328.927826,93.430542 328.964355,88.101593 
	C328.974945,87.879318 328.985535,87.657051 329.043945,87.104462 
	C334.833405,87.041077 340.575012,87.308029 346.904633,87.602318 
	C346.904633,93.164108 346.904633,98.594994 346.712189,104.518600 
	C346.293060,105.025360 346.066376,105.039383 345.839722,105.053406 
z"/>
<path fill="#060606" opacity="1.000000" stroke="none" 
	d="
M191.737839,35.984894 
	C191.819626,41.400654 191.633163,46.799103 191.683411,52.614754 
	C191.629654,53.148697 191.393677,53.334599 191.107330,53.791916 
	C185.432663,53.994164 179.862854,53.994164 174.016724,53.994164 
	C174.016724,47.619324 174.016724,42.065529 174.016724,35.830845 
	C179.243973,35.830845 184.629303,35.830845 190.473297,35.902565 
	C191.111176,35.972050 191.290375,35.969814 191.737839,35.984894 
z"/>
<path fill="#040404" opacity="1.000000" stroke="none" 
	d="
M122.022987,156.711609 
	C116.385498,157.069641 110.796242,157.069641 104.997871,157.069641 
	C104.997871,150.919006 104.997871,145.212296 104.997871,139.252197 
	C110.767807,139.252197 116.471298,139.252197 122.413544,139.252197 
	C122.413544,144.567169 122.413544,149.672089 122.293289,155.207642 
	C122.139091,155.876724 122.105156,156.115158 122.022987,156.711609 
z"/>
<path fill="#F6F6F6" opacity="1.000000" stroke="none" 
	d="
M328.499207,88.074577 
	C328.927826,93.430542 328.891296,98.759491 328.934204,104.551750 
	C323.649078,104.949852 318.284576,104.884644 312.487335,104.942284 
	C312.054596,105.065132 312.141998,105.123550 312.141998,105.123550 
	C312.141998,99.572853 312.141998,94.022156 312.141998,88.047562 
	C317.610199,88.047562 322.822113,88.047562 328.499207,88.074577 
z"/>
<path fill="#F6F6F6" opacity="1.000000" stroke="none" 
	d="
M104.880211,259.490234 
	C99.630699,259.939697 94.317009,259.929565 88.541626,259.945831 
	C88.079926,254.560898 88.079926,249.149612 88.079926,243.143387 
	C93.490364,243.143387 98.836670,243.143387 104.629196,243.103149 
	C105.075409,243.062927 104.988243,243.000107 104.988243,243.000107 
	C104.930840,248.343613 104.873436,253.687103 104.880211,259.490234 
z"/>
<path fill="#F7F7F7" opacity="1.000000" stroke="none" 
	d="
M259.990356,328.910828 
	C254.651428,328.888245 249.266785,328.904388 243.414612,328.986633 
	C242.989761,323.665863 243.032440,318.278961 243.106049,312.426636 
	C243.136978,311.961151 243.056183,312.053650 243.467590,312.061340 
	C249.092407,312.069061 254.305817,312.069061 259.928162,312.069061 
	C259.928162,317.990112 259.928162,323.529175 259.928162,329.068237 
	C259.928162,329.068237 259.944611,328.949524 259.990356,328.910828 
z"/>
<path fill="#F7F7F7" opacity="1.000000" stroke="none" 
	d="
M259.890625,35.970177 
	C259.853607,41.379147 259.853607,46.833958 259.853607,52.630898 
	C254.426208,52.630898 249.056473,52.630898 243.375977,52.630898 
	C243.375977,47.401203 243.375977,42.036686 243.375977,36.130215 
	C248.603668,36.130215 253.847794,36.130215 259.555603,36.110115 
	C260.019318,36.090019 259.927612,36.016022 259.890625,35.970177 
z"/>
<path fill="#F4F4F4" opacity="1.000000" stroke="none" 
	d="
M312.025269,105.021515 
	C311.995941,110.401299 311.995941,115.824715 311.995941,121.605789 
	C306.101410,121.605789 300.777802,121.605789 295.214294,121.605789 
	C295.214294,116.231590 295.214294,110.874283 295.214294,105.216049 
	C300.684875,105.216049 305.932770,105.216049 311.661346,105.169800 
	C312.141998,105.123550 312.054596,105.065132 312.025269,105.021515 
z"/>
<path fill="#F4F4F4" opacity="1.000000" stroke="none" 
	d="
M105.105957,243.107132 
	C105.136497,237.693451 105.136497,232.235580 105.136497,226.383423 
	C110.544731,226.383423 115.911659,226.383423 121.625397,226.383423 
	C121.625397,231.475250 121.625397,236.826843 121.625397,242.745956 
	C116.379318,242.745956 111.131966,242.745956 105.436432,242.873032 
	C104.988243,243.000107 105.075409,243.062927 105.105957,243.107132 
z"/>
<path fill="#F4F4F4" opacity="1.000000" stroke="none" 
	d="
M242.602875,329.085999 
	C243.055893,334.500763 243.055893,340.056671 243.055893,346.000916 
	C237.139160,346.000916 232.052979,346.000916 226.501266,345.994385 
	C226.035751,340.562500 226.035751,335.137177 226.035751,329.227173 
	C231.644028,329.227173 236.896942,329.227173 242.602875,329.085999 
z"/>
<path fill="#F4F4F4" opacity="1.000000" stroke="none" 
	d="
M122.021362,174.062622 
	C127.443405,174.093445 132.910385,174.093445 138.696671,174.093445 
	C138.696671,179.693207 138.696671,185.076202 138.696671,190.796173 
	C133.404404,190.796173 128.134781,190.796173 122.426392,190.886841 
	C121.987625,190.977509 122.057884,191.062180 122.211838,190.612335 
	C122.260208,184.749710 122.154610,179.336960 122.049026,173.924194 
	C122.049026,173.924194 122.066299,174.031799 122.021362,174.062622 
z"/>
<path fill="#F4F4F4" opacity="1.000000" stroke="none" 
	d="
M234.955612,174.082184 
	C237.719223,174.082184 240.002640,174.082184 242.498520,174.082184 
	C242.498520,179.783279 242.498520,185.037109 242.498520,190.623779 
	C237.217621,190.623779 231.977921,190.623779 226.361115,190.623779 
	C226.361115,185.485291 226.361115,180.099365 226.361115,174.082184 
	C228.955002,174.082184 231.715195,174.082184 234.955612,174.082184 
z"/>
<path fill="#F4F4F4" opacity="1.000000" stroke="none" 
	d="
M121.954697,190.933441 
	C121.921761,196.369873 121.921761,201.850388 121.921761,207.673370 
	C116.434319,207.673370 111.045242,207.673370 105.202751,207.673370 
	C105.202751,202.438568 105.202751,197.169540 105.150085,191.437241 
	C105.097420,190.973969 105.033226,191.064850 105.436378,191.183884 
	C111.245651,191.222672 116.651764,191.142426 122.057884,191.062180 
	C122.057884,191.062180 121.987625,190.977509 121.954697,190.933441 
z"/>
<path fill="#F9F9F9" opacity="1.000000" stroke="none" 
	d="
M151.828171,242.703552 
	C147.730148,242.703568 144.107422,242.703568 140.203644,242.703568 
	C140.203644,237.117096 140.203644,231.881180 140.203644,226.319214 
	C145.256256,226.319214 150.465805,226.319214 156.242004,226.319214 
	C156.242004,230.516357 156.023636,234.777512 156.312424,239.004028 
	C156.535797,242.273300 155.193466,243.153214 151.828171,242.703552 
z"/>
<path fill="#F9F9F9" opacity="1.000000" stroke="none" 
	d="
M310.590393,140.041809 
	C311.317444,145.362091 311.589630,150.571915 311.874146,156.018127 
	C305.968323,156.018127 300.735504,156.018127 295.246460,156.018127 
	C295.246460,150.762070 295.246460,145.552124 295.246460,139.931381 
	C300.288330,139.931381 305.211945,139.931381 310.590393,140.041809 
z"/>
<path fill="#F9F9F9" opacity="1.000000" stroke="none" 
	d="
M156.241287,204.915436 
	C155.438141,206.272568 154.675385,207.840179 153.826370,207.888367 
	C149.392593,208.140045 144.936905,208.005814 140.201675,208.005814 
	C140.201675,202.554413 140.201675,197.334717 140.201675,191.733124 
	C145.281479,191.733124 150.461639,191.733124 156.241898,191.733124 
	C156.241898,195.938797 156.241898,200.181854 156.241287,204.915436 
z"/>
<path fill="#F8F8F8" opacity="1.000000" stroke="none" 
	d="
M122.429192,214.168259 
	C122.429214,212.228424 122.429214,210.761810 122.429214,209.081223 
	C128.112534,209.081223 133.354523,209.081223 138.803833,209.081223 
	C138.803833,214.358002 138.803833,219.459106 138.803833,224.874115 
	C133.551132,224.874115 128.314667,224.874115 122.429169,224.874115 
	C122.429169,221.507507 122.429169,218.074493 122.429192,214.168259 
z"/>
<path fill="#FBFBFB" opacity="1.000000" stroke="none" 
	d="
M363.995178,396.999023 
	C363.995178,385.860413 363.995178,375.221497 363.995178,364.289429 
	C380.928253,364.289429 397.657562,364.289429 414.685852,364.289429 
	C414.685852,380.935272 414.685852,397.663849 414.685852,414.688629 
	C398.050903,414.688629 381.322937,414.688629 363.995178,414.688629 
	C363.995178,409.018646 363.995178,403.258667 363.995178,396.999023 
M381.491638,398.135223 
	C387.040314,398.135223 392.588959,398.135223 397.886810,398.135223 
	C397.886810,391.874420 397.886810,386.303986 397.886810,380.888000 
	C392.005981,380.888000 386.453644,380.888000 380.698792,380.888000 
	C380.698792,386.645599 380.698792,392.081390 381.491638,398.135223 
z"/>
<path fill="#FCFCFC" opacity="1.000000" stroke="none" 
	d="
M450.283417,466.883575 
	C438.994293,466.883575 427.705170,466.883575 415.844116,466.883575 
	C415.844116,461.081604 415.844116,455.530151 415.844116,449.727264 
	C409.669617,449.727264 404.059723,449.727264 397.983826,449.727264 
	C397.983826,455.236267 397.983826,460.821228 397.983826,466.625549 
	C386.596375,466.625549 375.668121,466.625549 364.367249,466.625549 
	C364.367249,461.326660 364.367249,455.948059 364.367249,450.162872 
	C369.687744,450.162872 375.103149,450.162872 380.915192,450.162872 
	C380.915192,444.375092 380.915192,438.962189 380.915192,433.277893 
	C398.047607,433.277893 414.776642,433.277893 431.910339,433.277893 
	C431.910339,438.659546 431.910339,444.071655 431.910339,449.927368 
	C437.866364,449.927368 443.443207,449.927368 449.553802,449.927368 
	C449.553802,455.670715 449.553802,460.967194 449.884033,466.618225 
	C450.214264,466.972748 450.283417,466.883575 450.283417,466.883575 
z"/>
<path fill="#FAFAFA" opacity="1.000000" stroke="none" 
	d="
M328.945465,398.053070 
	C334.369934,398.086731 339.842468,398.086731 345.652100,398.086731 
	C345.652100,409.484253 345.652100,420.524811 345.652100,431.966095 
	C340.255402,431.966095 334.838470,431.966095 328.882233,431.966095 
	C328.882233,443.618561 328.882233,454.880859 328.940033,466.583374 
	C328.997833,467.023529 329.062531,466.925903 328.592102,466.890137 
	C322.727570,466.879028 317.333527,466.903717 311.939453,466.928406 
	C311.939453,466.928436 312.020782,466.985657 312.059998,466.553894 
	C312.071533,449.429413 312.043884,432.736664 312.465210,415.905273 
	C318.205750,415.766571 323.497345,415.766571 329.062653,415.766571 
	C329.062653,409.479858 329.062653,403.702148 329.062653,397.924469 
	C329.062653,397.924469 328.993561,398.019409 328.945465,398.053070 
z"/>
<path fill="#F8F8F8" opacity="1.000000" stroke="none" 
	d="
M328.950287,467.057739 
	C340.041595,467.091919 351.180481,467.091919 362.704651,467.091919 
	C362.704651,472.705719 362.704651,478.075073 362.704651,483.888672 
	C351.878387,483.888672 340.948425,483.888672 329.631287,483.380859 
	C329.183594,477.557312 329.123047,472.241608 329.062531,466.925903 
	C329.062531,466.925903 328.997833,467.023529 328.950287,467.057739 
z"/>
<path fill="#060606" opacity="1.000000" stroke="none" 
	d="
M328.592102,466.890137 
	C329.123047,472.241608 329.183594,477.557312 329.172180,483.320435 
	C329.084320,483.982880 329.068451,484.197906 329.015839,484.734192 
	C323.435242,485.055511 317.891357,485.055511 311.656555,485.055511 
	C311.656555,478.839661 311.656555,473.338470 311.798004,467.382812 
	C317.333527,466.903717 322.727570,466.879028 328.592102,466.890137 
z"/>
<path fill="#F6F6F6" opacity="1.000000" stroke="none" 
	d="
M467.085327,467.035675 
	C467.085327,461.588928 467.085327,456.142181 467.085327,450.360229 
	C472.728699,450.360229 478.086945,450.360229 483.718872,450.360229 
	C483.718872,455.653198 483.718872,461.017334 483.718872,466.856110 
	C478.370056,466.856110 473.120148,466.856110 467.432495,466.910553 
	C466.994781,466.964996 467.085327,467.035675 467.085327,467.035675 
z"/>
<path fill="#F6F6F6" opacity="1.000000" stroke="none" 
	d="
M466.959900,466.919373 
	C466.924988,472.314148 466.924988,477.754547 466.924988,483.590576 
	C461.447052,483.590576 456.093079,483.590576 450.112305,483.590576 
	C450.112305,478.558960 450.112305,473.195496 450.197876,467.357788 
	C450.283417,466.883575 450.214264,466.972748 450.174774,467.005798 
	C455.472046,467.075195 460.808807,467.111511 466.615448,467.091736 
	C467.085327,467.035675 466.994781,466.964996 466.959900,466.919373 
z"/>
<path fill="#F6F6F6" opacity="1.000000" stroke="none" 
	d="
M328.940674,345.437378 
	C323.530090,345.898041 318.098755,345.898041 312.360321,345.898041 
	C312.360321,340.448120 312.360321,335.105957 312.360321,329.216461 
	C317.635712,329.216461 322.868713,329.216461 328.558899,329.099731 
	C328.984039,334.314209 328.951965,339.645447 328.940674,345.437378 
z"/>
<path fill="#000000" opacity="1.000000" stroke="none" 
	d="
M156.704712,121.863945 
	C150.819916,122.290131 145.191315,122.290131 139.286163,122.290131 
	C139.286163,116.580681 139.286163,110.873596 139.286163,104.980438 
	C145.151718,104.980438 150.860687,104.980438 156.960907,104.980438 
	C156.960907,110.583496 156.960907,116.010628 156.704712,121.863945 
z"/>
<path fill="#000000" opacity="1.000000" stroke="none" 
	d="
M122.211838,190.612335 
	C116.651764,191.142426 111.245651,191.222672 105.380997,191.178650 
	C104.922455,185.490219 104.922455,179.926071 104.922455,173.769852 
	C110.406029,173.769852 115.761604,173.769852 121.583099,173.847015 
	C122.154610,179.336960 122.260208,184.749710 122.211838,190.612335 
z"/>
<path fill="#010101" opacity="1.000000" stroke="none" 
	d="
M345.991943,67.815018 
	C345.991730,57.049709 345.991730,46.769489 345.991730,36.159256 
	C351.900085,36.159256 357.620972,36.159256 363.670227,36.159256 
	C363.670227,47.448040 363.670227,58.967052 363.670227,70.954613 
	C358.556183,70.954613 353.453247,71.073151 348.366882,70.835670 
	C347.537659,70.796951 346.781891,69.184952 345.991943,67.815018 
z"/>
<path fill="#000000" opacity="1.000000" stroke="none" 
	d="
M345.888794,105.516174 
	C346.066376,105.039383 346.293060,105.025360 346.856720,104.961411 
	C352.637329,104.911484 358.080933,104.911484 363.756470,104.911484 
	C363.756470,110.685738 363.756470,116.264481 363.756470,122.139755 
	C357.997772,122.139755 352.270172,122.139755 345.937866,122.139755 
	C345.937866,116.856201 345.937866,111.417572 345.888794,105.516174 
z"/>
<path fill="#060606" opacity="1.000000" stroke="none" 
	d="
M122.564560,347.218842 
	C122.119110,347.195923 122.081543,346.944641 121.999237,345.850647 
	C121.930679,339.715515 121.906837,334.423126 121.972656,329.029968 
	C122.062317,328.929230 122.292488,328.788574 122.292488,328.788574 
	C127.933365,328.788574 133.574249,328.788574 139.570648,328.788574 
	C139.570648,334.720795 139.570648,340.432190 139.570648,346.990448 
	C134.118500,346.990448 128.545471,346.990448 122.564560,347.218842 
z"/>
<path fill="#000000" opacity="1.000000" stroke="none" 
	d="
M104.999847,329.008942 
	C105.024483,323.445801 105.024483,317.866394 105.024483,311.674896 
	C110.412392,311.674896 115.778564,311.674896 121.600929,311.805969 
	C122.177048,317.254517 122.296974,322.571930 122.354691,328.338989 
	C122.292488,328.788574 122.062317,328.929230 121.515106,329.077026 
	C115.627159,329.130432 110.286423,329.036041 104.945679,328.941650 
	C104.945679,328.941650 104.975204,328.992706 104.999847,329.008942 
z"/>
<path fill="#020202" opacity="1.000000" stroke="none" 
	d="
M139.731506,432.158386 
	C139.889954,432.457092 139.737076,432.654419 139.359741,432.895142 
	C139.286865,432.688568 139.381836,432.394714 139.731506,432.158386 
z"/>
<path fill="#060606" opacity="1.000000" stroke="none" 
	d="
M346.799561,225.888794 
	C347.025970,237.266724 347.025970,248.523224 347.025970,260.047363 
	C340.785431,260.047363 335.195190,260.047363 329.245667,260.047363 
	C329.245667,248.702454 329.245667,237.189621 329.245667,225.136612 
	C334.526947,225.136612 339.794434,225.136612 345.519867,225.040436 
	C346.176239,225.218643 346.374695,225.493011 346.799561,225.888794 
z"/>
<path fill="#000000" opacity="1.000000" stroke="none" 
	d="
M363.852264,294.930725 
	C364.080231,300.503510 364.080231,305.976959 364.080231,311.753723 
	C358.063354,311.753723 352.331543,311.753723 346.293518,311.753723 
	C346.293518,306.150085 346.293518,300.420105 346.293518,294.124420 
	C351.550568,294.124420 356.817780,294.124420 362.553467,294.092194 
	C363.131409,294.388397 363.332214,294.645538 363.852264,294.930725 
z"/>
<path fill="#FBFBFB" opacity="1.000000" stroke="none" 
	d="
M397.879150,217.003540 
	C397.879150,219.800018 397.879150,222.114899 397.879150,224.801819 
	C392.316986,224.801819 386.946442,224.801819 381.310364,224.801819 
	C381.310364,219.783356 381.310364,214.688995 381.310364,209.232788 
	C386.585846,209.232788 391.961151,209.232788 397.879150,209.232788 
	C397.879150,211.633789 397.879150,214.077866 397.879150,217.003540 
z"/>
<path fill="#010101" opacity="1.000000" stroke="none" 
	d="
M312.016266,416.043945 
	C312.043884,432.736664 312.071533,449.429413 312.088074,466.594971 
	C300.628662,467.067810 289.180359,467.067810 277.365295,467.067810 
	C277.365295,455.593506 277.365295,444.090607 277.365295,432.221313 
	C282.662842,432.221313 288.069550,432.221313 293.880798,432.221313 
	C293.880798,426.489075 293.880798,421.103210 293.880798,414.859039 
	C299.831299,414.859039 305.390289,414.859039 311.437256,415.103516 
	C311.955597,415.579987 311.985931,415.811981 312.016266,416.043945 
z"/>
<path fill="#060606" opacity="1.000000" stroke="none" 
	d="
M312.465210,415.905273 
	C311.985931,415.811981 311.955597,415.579987 311.885590,414.999359 
	C311.845917,409.232758 311.845917,403.814850 311.845917,397.874146 
	C317.306702,397.874146 322.712921,397.874146 328.590881,397.899292 
	C329.062653,403.702148 329.062653,409.479858 329.062653,415.766571 
	C323.497345,415.766571 318.205750,415.766571 312.465210,415.905273 
z"/>
<path fill="#FAFAFA" opacity="1.000000" stroke="none" 
	d="
M19.020538,82.999893 
	C19.020538,61.532845 19.020538,40.565750 19.020538,19.309978 
	C47.608353,19.309978 75.976486,19.309978 104.569809,19.309978 
	C104.569809,47.709530 104.569809,75.959320 104.569809,104.501991 
	C76.201889,104.501991 47.834515,104.501991 19.020538,104.501991 
	C19.020538,97.405167 19.020538,90.452507 19.020538,82.999893 
M88.007576,86.297180 
	C88.007576,69.554123 88.007576,52.811062 88.007576,36.212345 
	C70.280777,36.212345 53.098648,36.212345 36.124733,36.212345 
	C36.124733,53.647739 36.124733,70.701874 36.124733,87.982094 
	C53.191845,87.982094 69.967400,87.987114 86.742874,87.952049 
	C87.146385,87.951210 87.548958,87.503120 88.007576,86.297180 
z"/>
<path fill="#FAFAFA" opacity="1.000000" stroke="none" 
	d="
M84.999634,398.205719 
	C91.789650,398.205719 98.079811,398.205719 104.578583,398.205719 
	C104.578583,426.829437 104.578583,455.074860 104.578583,483.650177 
	C76.175316,483.650177 47.811523,483.650177 19.233509,483.650177 
	C19.233509,455.351959 19.233509,427.097015 19.233509,398.205719 
	C40.994373,398.205719 62.747078,398.205719 84.999634,398.205719 
M56.500069,467.167999 
	C66.908569,467.167999 77.317070,467.167999 87.660408,467.167999 
	C87.660408,449.440643 87.660408,432.260712 87.660408,415.249359 
	C70.238159,415.249359 53.168304,415.249359 36.196075,415.249359 
	C36.196075,432.691956 36.196075,449.870880 36.196075,467.167999 
	C42.873234,467.167999 49.186729,467.167999 56.500069,467.167999 
z"/>
<path fill="#FAFAFA" opacity="1.000000" stroke="none" 
	d="
M426.999878,104.794273 
	C417.211578,104.794273 407.923279,104.794273 398.422852,104.794273 
	C398.422852,76.173592 398.422852,47.928223 398.422852,19.351425 
	C426.821777,19.351425 455.185516,19.351425 483.765015,19.351425 
	C483.765015,47.645039 483.765015,75.900047 483.765015,104.794273 
	C465.008362,104.794273 446.254150,104.794273 426.999878,104.794273 
M425.514893,35.831974 
	C422.089844,35.831974 418.664825,35.831974 415.350342,35.831974 
	C415.350342,53.582123 415.350342,70.761803 415.350342,87.740753 
	C432.784241,87.740753 449.855103,87.740753 466.792755,87.740753 
	C466.792755,70.287109 466.792755,53.107094 466.792755,35.831974 
	C453.115967,35.831974 439.814209,35.831974 425.514893,35.831974 
z"/>
<path fill="#FBFBFB" opacity="1.000000" stroke="none" 
	d="
M157.063507,433.504974 
	C162.430038,433.040924 167.750198,433.040924 173.479248,433.040924 
	C173.479248,438.587494 173.479248,444.002716 173.479248,449.726135 
	C179.603226,449.726135 185.322556,449.726135 191.380859,449.726135 
	C191.380859,438.473877 191.380859,427.379913 191.380859,415.992920 
	C196.952362,415.992920 202.196060,415.992920 207.890442,415.992920 
	C207.890442,427.098389 207.890442,438.333893 207.890442,449.929138 
	C213.736710,449.929138 219.154907,449.929138 225.001434,449.929138 
	C225.001434,455.671570 225.001434,461.074493 225.001434,467.213226 
	C230.998184,467.213226 236.573334,467.213226 242.604492,467.078094 
	C243.060471,472.389282 243.060471,477.835632 243.060471,483.627258 
	C231.434647,483.627258 220.415192,483.627258 208.980225,483.627258 
	C208.980225,478.268616 208.980225,472.864746 208.980225,467.165588 
	C197.195602,467.165588 185.815720,467.165588 174.000580,467.165588 
	C174.000580,472.430786 174.000580,477.819733 174.000580,483.590637 
	C168.226776,483.590637 162.870712,483.590637 157.017136,483.590637 
	C157.017136,467.100403 157.017136,450.534729 157.063507,433.504974 
z"/>
<path fill="#030303" opacity="1.000000" stroke="none" 
	d="
M400.995514,329.261200 
	C394.036896,329.261200 387.577576,329.261200 380.838623,329.261200 
	C380.838623,323.339020 380.838623,317.783478 380.838623,311.927521 
	C392.324677,311.927521 403.730194,311.927521 415.419800,311.927521 
	C415.419800,317.542908 415.419800,323.119537 415.419800,329.261200 
	C410.703461,329.261200 406.099121,329.261200 400.995514,329.261200 
z"/>
<path fill="#040404" opacity="1.000000" stroke="none" 
	d="
M260.391479,329.169586 
	C259.928162,323.529175 259.928162,317.990112 259.928162,312.069061 
	C254.305817,312.069061 249.092407,312.069061 243.406952,312.071167 
	C242.934937,306.271790 242.934937,300.470276 242.934937,294.393616 
	C254.357605,294.393616 265.777252,294.393616 277.515991,294.393616 
	C277.515991,305.757080 277.515991,317.151337 277.515991,329.270935 
	C272.003296,329.270935 266.429047,329.270935 260.391479,329.169586 
z"/>
<path fill="#F9F9F9" opacity="1.000000" stroke="none" 
	d="
M237.830322,432.045013 
	C233.729111,432.045013 230.106613,432.045013 226.245117,432.045013 
	C226.245117,426.518585 226.245117,421.299683 226.245117,415.884521 
	C231.667358,415.884521 236.920670,415.884521 242.439041,415.884521 
	C242.439041,421.075928 242.439041,426.169006 242.439041,431.734711 
	C241.125214,431.833435 239.717148,431.939209 237.830322,432.045013 
z"/>
<path fill="#F6F6F6" opacity="1.000000" stroke="none" 
	d="
M105.050552,329.404266 
	C110.286423,329.036041 115.627159,329.130432 121.425446,329.177765 
	C121.906837,334.423126 121.930679,339.715515 121.965668,345.471008 
	C116.522949,345.934052 111.069077,345.934052 105.155426,345.934052 
	C105.155426,340.397827 105.155426,335.132355 105.050552,329.404266 
z"/>
<path fill="#000000" opacity="1.000000" stroke="none" 
	d="
M381.095215,397.826202 
	C380.698792,392.081390 380.698792,386.645599 380.698792,380.888000 
	C386.453644,380.888000 392.005981,380.888000 397.886810,380.888000 
	C397.886810,386.303986 397.886810,391.874420 397.886810,398.135223 
	C392.588959,398.135223 387.040314,398.135223 381.095215,397.826202 
z"/>
<path fill="#000000" opacity="1.000000" stroke="none" 
	d="
M87.979767,86.780403 
	C87.548958,87.503120 87.146385,87.951210 86.742874,87.952049 
	C69.967400,87.987114 53.191845,87.982094 36.124733,87.982094 
	C36.124733,70.701874 36.124733,53.647739 36.124733,36.212345 
	C53.098648,36.212345 70.280777,36.212345 88.007576,36.212345 
	C88.007576,52.811062 88.007576,69.554123 87.979767,86.780403 
z"/>
<path fill="#000000" opacity="1.000000" stroke="none" 
	d="
M56.000149,467.167999 
	C49.186729,467.167999 42.873234,467.167999 36.196075,467.167999 
	C36.196075,449.870880 36.196075,432.691956 36.196075,415.249359 
	C53.168304,415.249359 70.238159,415.249359 87.660408,415.249359 
	C87.660408,432.260712 87.660408,449.440643 87.660408,467.167999 
	C77.317070,467.167999 66.908569,467.167999 56.000149,467.167999 
z"/>
<path fill="#000000" opacity="1.000000" stroke="none" 
	d="
M426.013672,35.831974 
	C439.814209,35.831974 453.115967,35.831974 466.792755,35.831974 
	C466.792755,53.107094 466.792755,70.287109 466.792755,87.740753 
	C449.855103,87.740753 432.784241,87.740753 415.350342,87.740753 
	C415.350342,70.761803 415.350342,53.582123 415.350342,35.831974 
	C418.664825,35.831974 422.089844,35.831974 426.013672,35.831974 
z"/>
</svg>