<svg xmlns="http://www.w3.org/2000/svg" width="80.1" height="80.098" viewBox="0 0 80.1 80.098">
  <path id="qrcode" d="M77.6,70.086a2.538,2.538,0,1,1,1.76-.743A2.406,2.406,0,0,1,77.6,70.086Zm0-20.024a2.538,2.538,0,0,1-2.5-2.5V42.552a2.5,2.5,0,0,1,5.006,0v5.006a2.538,2.538,0,0,1-2.5,2.5Zm0-20.024h-2.5v2.5a2.5,2.5,0,0,1-5.006,0v-2.5H60.075v2.5a2.538,2.538,0,0,1-2.5,2.5h-2.5v2.5a2.5,2.5,0,0,1-5.006,0V20.024H42.553a2.489,2.489,0,0,1-1.76-4.263,2.4,2.4,0,0,1,1.76-.743h7.509V5.006H45.056v2.5a2.4,2.4,0,0,1-.743,1.76,2.456,2.456,0,0,1-3.52,0,2.4,2.4,0,0,1-.743-1.76V2.5a2.4,2.4,0,0,1,.743-1.76A2.4,2.4,0,0,1,42.553,0H77.6a2.4,2.4,0,0,1,1.76.743A2.4,2.4,0,0,1,80.1,2.5V27.534a2.538,2.538,0,0,1-2.5,2.5Zm-2.5-22.528a2.4,2.4,0,0,0-.743-1.76,2.4,2.4,0,0,0-1.76-.743H57.572a2.4,2.4,0,0,0-1.76.743,2.4,2.4,0,0,0-.743,1.76V22.528a2.538,2.538,0,0,0,2.5,2.5H72.59a2.538,2.538,0,0,0,2.5-2.5ZM67.584,20.024H62.578a2.538,2.538,0,0,1-2.5-2.5V12.515a2.538,2.538,0,0,1,2.5-2.5h5.006a2.538,2.538,0,0,1,2.5,2.5v5.006a2.538,2.538,0,0,1-2.5,2.5ZM40.05,25.031h2.5a2.5,2.5,0,0,1,0,5.006H35.044v2.5a2.5,2.5,0,0,1-5.006,0v-2.5H15.02v5.006h5.006v-2.5a2.5,2.5,0,0,1,5.006,0v7.509h2.5a2.5,2.5,0,0,1,0,5.006H22.529a2.538,2.538,0,0,1-2.5-2.5v-2.5H12.517a2.551,2.551,0,0,1-1.76-.665,2.078,2.078,0,0,1-.743-1.6V30.037H5.007v2.737a2.078,2.078,0,0,1-.743,1.6,2.551,2.551,0,0,1-1.76.665,2.551,2.551,0,0,1-1.76-.665A2.078,2.078,0,0,1,0,32.773V28.081a.7.7,0,0,1,.078-.314.16.16,0,0,0-.04-.118A.16.16,0,0,1,0,27.531V2.5A2.4,2.4,0,0,1,.742.743,2.4,2.4,0,0,1,2.5,0H27.533a2.4,2.4,0,0,1,1.76.743,2.4,2.4,0,0,1,.743,1.76v2.5h2.5a2.4,2.4,0,0,1,1.76.743,2.456,2.456,0,0,1,0,3.52,2.4,2.4,0,0,1-1.76.743h-2.5v5.006h2.5a2.489,2.489,0,0,1,1.76,4.263,2.4,2.4,0,0,1-1.76.743h-2.5v5.006h5.006v-2.5a2.5,2.5,0,0,1,5.006,0v2.5ZM25.032,7.509a2.4,2.4,0,0,0-.743-1.76,2.4,2.4,0,0,0-1.76-.743H7.51a2.4,2.4,0,0,0-1.76.743,2.4,2.4,0,0,0-.743,1.76V22.528a2.4,2.4,0,0,0,.743,1.76,2.4,2.4,0,0,0,1.76.743H22.529a2.538,2.538,0,0,0,2.5-2.5ZM17.523,20.024H12.517a2.538,2.538,0,0,1-2.5-2.5V12.515a2.538,2.538,0,0,1,2.5-2.5h5.006a2.538,2.538,0,0,1,2.5,2.5v5.006a2.538,2.538,0,0,1-2.5,2.5ZM2.5,40.049a2.4,2.4,0,0,1,1.76.743,2.456,2.456,0,0,1,0,3.52,2.4,2.4,0,0,1-1.76.743,2.4,2.4,0,0,1-1.76-.743,2.456,2.456,0,0,1,0-3.52A2.4,2.4,0,0,1,2.5,40.049Zm35.043,5.006a2.538,2.538,0,1,1,1.76-.743A2.405,2.405,0,0,1,37.547,45.055Zm5.006-10.012a2.538,2.538,0,1,1-1.76.743A2.405,2.405,0,0,1,42.553,35.043Zm17.521,2.5a2.538,2.538,0,1,1,.743,1.76A2.405,2.405,0,0,1,60.075,37.546ZM2.5,50.061h7.509v-2.5a2.489,2.489,0,0,1,4.263-1.76,2.4,2.4,0,0,1,.743,1.76v2.5H27.535a2.538,2.538,0,0,1,2.5,2.5V47.558a2.5,2.5,0,0,1,5.006,0v5.006H45.056V47.558a2.538,2.538,0,0,1,2.5-2.5H65.081v-2.5a2.5,2.5,0,0,1,5.006,0V55.067h2.5a2.5,2.5,0,0,1,0,5.006h-2.5v7.509a2.538,2.538,0,0,1-2.5,2.5H60.075v7.509a2.5,2.5,0,0,1-5.006,0V70.086H50.062v2.5a2.5,2.5,0,0,1-5.006,0v-2.5h-2.5a2.5,2.5,0,0,1,0-5.006h2.5V57.57H30.038V70.086h2.5a2.5,2.5,0,0,1,0,5.006h-2.5v2.5a2.538,2.538,0,0,1-2.5,2.5H2.5a2.4,2.4,0,0,1-1.76-.743A2.4,2.4,0,0,1,0,77.595V52.564A2.4,2.4,0,0,1,.744,50.8,2.4,2.4,0,0,1,2.5,50.061ZM52.565,65.08H62.578a2.538,2.538,0,0,0,2.5-2.5V52.564a2.538,2.538,0,0,0-2.5-2.5H52.565a2.538,2.538,0,0,0-2.5,2.5V62.576a2.538,2.538,0,0,0,2.5,2.5ZM5.007,72.589a2.4,2.4,0,0,0,.743,1.76,2.4,2.4,0,0,0,1.76.743H22.529a2.538,2.538,0,0,0,2.5-2.5V57.57a2.538,2.538,0,0,0-2.5-2.5H7.51a2.4,2.4,0,0,0-1.76.743,2.4,2.4,0,0,0-.743,1.76Zm7.509-12.515h5.006a2.538,2.538,0,0,1,2.5,2.5v5.006a2.538,2.538,0,0,1-2.5,2.5H12.517a2.538,2.538,0,0,1-2.5-2.5V62.576a2.538,2.538,0,0,1,2.5-2.5Zm45.055-5.006a2.538,2.538,0,1,1-1.76.743A2.405,2.405,0,0,1,57.572,55.067ZM37.547,60.073a2.538,2.538,0,1,1-1.76.743A2.405,2.405,0,0,1,37.547,60.073Zm5.006,15.018a2.538,2.538,0,1,1-1.76.743A2.405,2.405,0,0,1,42.553,75.092Zm25.031,0h2.5v-2.5a2.5,2.5,0,0,1,5.006,0v2.5h2.5a2.5,2.5,0,0,1,0,5.006H67.584a2.5,2.5,0,0,1,0-5.006Z" transform="translate(0.001)" fill="#79b1bd"/>
</svg>
