<svg xmlns="http://www.w3.org/2000/svg" width="77.681" height="79" viewBox="0 0 77.681 79">
  <path id="Signed" d="M59,79H2a2,2,0,0,1-2-2V2A2,2,0,0,1,2,0H59a2,2,0,0,1,2,2V39.028c-4.827,11.115-10.578,24.4-10.56,24.576l.9,6.91c-3.967-2.527-7.971-4.867-10.4-4.867a1.323,1.323,0,0,0-1.143.6c-.478.751.1,2.036.568,3.068.317.7.59,1.3.422,1.525a.121.121,0,0,1-.1.041,7.779,7.779,0,0,1-2.1-1.251l0,0c-.642-.444-1.52-1.051-2.458-1.639C33.02,66.043,30.492,65.1,28.4,65.1a5.434,5.434,0,0,0-3.9,1.535,8.8,8.8,0,0,0-2.914-1.564.889.889,0,0,0-.12-.008.956.956,0,0,0-.9.794c-.13.578.855,1.108,1.724,1.575l.03.016a8.562,8.562,0,0,1,.861.5,3.531,3.531,0,0,0-.635,1.4,3.276,3.276,0,0,0,.9,2.712,5.091,5.091,0,0,0,3.988,1.925,3.96,3.96,0,0,0,.73-.061,1.541,1.541,0,0,0,1.35-1.595c-.04-1.03-1.337-2.715-3.469-4.507a4.74,4.74,0,0,1,2.627-.774c2.329,0,4.853,1.543,7.036,2.989q.279.185.554.369l0,0,.181.121c2,1.339,3.73,2.5,5.053,2.5a1.763,1.763,0,0,0,.78-.17c.4-.2,1.338-.652.105-3.528-.006-.012-.611-1.248-.794-1.751,2.741.368,7.348,3.39,9.563,4.842a10.077,10.077,0,0,0,1.345.828h.025a.93.93,0,0,0,.545-.175l4.059-2.858,3.139-2.3A14.982,14.982,0,0,0,61,66.434V77A2,2,0,0,1,59,79ZM9.471,58.341v1.823H48.008V58.341Zm0-4.862V55.3H48.008V53.479Zm0-8.8V46.5H48.008V44.679Zm0-4.861V41.64H48.008V39.818Zm0-8.8V32.84H48.008V31.018Zm0-4.862v1.823H48.008V26.156Zm0-8.8v1.823H48.008V17.356Zm0-4.861v1.822H48.008V12.495ZM52.75,72.215h-.064l-1.417-7.35c-.021-.212,18.064-41.58,18.247-42,.058-.131.484-.263,1.187-.263a9.755,9.755,0,0,1,3.6.81,5.823,5.823,0,0,1,3.3,2.622.619.619,0,0,1,.063.4c-.185.416-18.486,41.582-18.762,41.784l-2.442,1.788C53.329,72.215,52.893,72.215,52.75,72.215Zm-25.379-.068a3.679,3.679,0,0,1-2.843-1.532,1.4,1.4,0,0,1,.116-1.527,13.561,13.561,0,0,1,2.913,3.049A1.646,1.646,0,0,1,27.371,72.148Z" fill="#79b1bd"/>
</svg>
