<svg xmlns="http://www.w3.org/2000/svg" width="76.14" height="67.998" viewBox="0 0 76.14 67.998">
  <g id="View_agreement" data-name="View agreement" transform="translate(-976.896 -748.584)">
    <g id="View_agreement-2" data-name="View agreement" transform="translate(1019.554 792.027)">
      <path id="Path_31483" data-name="Path 31483" d="M22.429,17.964A4.464,4.464,0,1,1,17.964,13.5,4.464,4.464,0,0,1,22.429,17.964Z" transform="translate(-1.224 -5.687)" fill="#79b1bd"/>
      <path id="Path_31484" data-name="Path 31484" d="M34.542,17.522a18.628,18.628,0,0,0-16.675-11.9,18.628,18.628,0,0,0-16.674,11.9,1.116,1.116,0,0,0,0,.759,18.628,18.628,0,0,0,16.674,11.9,18.628,18.628,0,0,0,16.675-11.9,1.116,1.116,0,0,0,0-.759ZM17.867,25.158A7.255,7.255,0,1,1,25.122,17.9a7.255,7.255,0,0,1-7.255,7.255Z" transform="translate(-1.126 -5.625)" fill="#79b1bd"/>
    </g>
    <path id="Subtraction_85" data-name="Subtraction 85" d="M45.814,65.137H0V0H57.067V40.135a24.746,24.746,0,0,0-17.162,15.1,1.5,1.5,0,0,0,0,1.006,24.545,24.545,0,0,0,5.907,8.893ZM8.359,53.744h0v1.729H38.1V53.745H8.359Zm0-10.376h0V45.1H47.114V43.368Zm0-10.952h0v1.729H49.112V32.417Zm0-10.377h0V23.77H49.112V22.041H8.359Zm0-10.376h0v1.729H49.112V11.665H8.359Z" transform="translate(976.896 748.584)" fill="#79b1bd"/>
  </g>
</svg>
