<svg xmlns="http://www.w3.org/2000/svg" width="65.312" height="65.157" viewBox="0 0 65.312 65.157">
  <g id="Website" transform="translate(0 -0.069)">
    <path id="Path_31557" data-name="Path 31557" d="M29.975,29.57H43.468a39.373,39.373,0,0,0-3-14.062,41.557,41.557,0,0,1-10.491,1.623V29.57Z" transform="translate(3.808 1.961)" fill="#79b1bd"/>
    <path id="Path_31558" data-name="Path 31558" d="M41.633,14.707a39.245,39.245,0,0,0,9.386-4.7l.736-.564A32.581,32.581,0,0,0,31.137.069l-.584.474A41.706,41.706,0,0,1,41.633,14.707Z" transform="translate(3.882 0)" fill="#79b1bd"/>
    <path id="Path_31559" data-name="Path 31559" d="M29.975,2.628V16.513a39.418,39.418,0,0,0,9.549-1.446A39.419,39.419,0,0,0,29.975,2.628Z" transform="translate(3.808 0.325)" fill="#79b1bd"/>
    <path id="Path_31560" data-name="Path 31560" d="M41.531,43.754a41.546,41.546,0,0,1,10.014,5.228l.978.733a32.524,32.524,0,0,0,7.512-19.729H44.254A41.623,41.623,0,0,1,41.531,43.754Z" transform="translate(5.276 3.801)" fill="#79b1bd"/>
    <path id="Path_31561" data-name="Path 31561" d="M9.324,10.008a39.308,39.308,0,0,0,9.386,4.7A41.717,41.717,0,0,1,29.791.543L29.207.069A32.593,32.593,0,0,0,8.551,9.48Z" transform="translate(1.086)" fill="#79b1bd"/>
    <path id="Path_31562" data-name="Path 31562" d="M29.051,2.628A39.423,39.423,0,0,0,19.5,15.066a39.363,39.363,0,0,0,9.549,1.446Z" transform="translate(2.478 0.325)" fill="#79b1bd"/>
    <path id="Path_31563" data-name="Path 31563" d="M15.782,29.985H0A32.534,32.534,0,0,0,7.512,49.714L8.47,49a41.694,41.694,0,0,1,10.037-5.243A41.575,41.575,0,0,1,15.782,29.985Z" transform="translate(0 3.801)" fill="#79b1bd"/>
    <path id="Path_31564" data-name="Path 31564" d="M18.88,15.524a41.547,41.547,0,0,1-9.742-4.9L8.081,9.9A32.538,32.538,0,0,0,0,30.283H15.782A41.617,41.617,0,0,1,18.88,15.524Z" transform="translate(0 1.249)" fill="#79b1bd"/>
    <path id="Path_31565" data-name="Path 31565" d="M16,29.57H29.5V17.131A41.634,41.634,0,0,1,19,15.51,39.33,39.33,0,0,0,16,29.57Z" transform="translate(2.033 1.962)" fill="#79b1bd"/>
    <path id="Path_31566" data-name="Path 31566" d="M29.748,59.086a41.811,41.811,0,0,1-11.4-15.036,39.365,39.365,0,0,0-9.571,4.982l-.777.58A32.6,32.6,0,0,0,28.974,59.638Z" transform="translate(1.017 5.587)" fill="#79b1bd"/>
    <path id="Path_31567" data-name="Path 31567" d="M29.5,41.3V29.985H16A39.347,39.347,0,0,0,18.61,43.036,41.506,41.506,0,0,1,29.5,41.3Z" transform="translate(2.033 3.801)" fill="#79b1bd"/>
    <path id="Path_31568" data-name="Path 31568" d="M51.6,49.016a39.2,39.2,0,0,0-9.545-4.966,41.666,41.666,0,0,1-11.4,15.039l.772.549A32.6,32.6,0,0,0,52.4,49.613Z" transform="translate(3.894 5.587)" fill="#79b1bd"/>
    <path id="Path_31569" data-name="Path 31569" d="M50.989,10.59A41.789,41.789,0,0,1,41.2,15.527a41.637,41.637,0,0,1,3.1,14.762H60.078A32.539,32.539,0,0,0,51.954,9.852Z" transform="translate(5.234 1.243)" fill="#79b1bd"/>
    <path id="Path_31570" data-name="Path 31570" d="M29.1,57.034V42.023A39.271,39.271,0,0,0,19.093,43.6,39.379,39.379,0,0,0,29.1,57.034Z" transform="translate(2.426 5.33)" fill="#79b1bd"/>
    <path id="Path_31571" data-name="Path 31571" d="M43.468,29.985H29.975V41.3a41.532,41.532,0,0,1,10.889,1.738A39.475,39.475,0,0,0,43.468,29.985Z" transform="translate(3.808 3.801)" fill="#79b1bd"/>
    <path id="Path_31572" data-name="Path 31572" d="M39.989,43.6a39.338,39.338,0,0,0-10.014-1.578V57.039A39.256,39.256,0,0,0,39.989,43.6Z" transform="translate(3.808 5.33)" fill="#79b1bd"/>
  </g>
</svg>
