<svg xmlns="http://www.w3.org/2000/svg" width="57.244" height="68" viewBox="0 0 57.244 68">
  <g id="Werkpostfiches" transform="translate(5602.461 -19284.986)">
    <path id="Subtraction_263" data-name="Subtraction 263" d="M-10706.187,17868.826h0l-29.027-16.666v-34.131l29.028-17.2,28.216,17.2v34.131l-28.215,16.666Zm-15.055-45.953h0v31.342h22.866v-6h6.377v-31.023h-23.687v5.682Zm20.467,28.943h-18.067v-26.545h18.067v26.545Zm-15.906-8.311h0v2.4h13.243v-2.4h-13.243Zm0-6h0v2.4l13.243-.006v-2.4h-13.243Zm0-6h0v2.4l13.243,0v-2.395h-13.243Zm22.283,14.311h-3.978v-22.947h-14.911v-3.283h18.889v26.23Z" transform="translate(5132.755 1484.16)" fill="#79b1bd"/>
    <path id="Subtraction_58" data-name="Subtraction 58" transform="translate(-5587.29 19308.23)" fill="#79b1bd"/>
  </g>
</svg>
