<svg xmlns="http://www.w3.org/2000/svg" width="62.402" height="70.606" viewBox="0 0 62.402 70.606">
  <path id="Employer" d="M11144,9743.605s1.358-12.161,2.413-19.315c3.313-5.423,8.985-8.78,16-10.471h1.442l8.328,8.876.6-6.693,2.41-1.384,2.413,1.384.6,6.7,8.342-8.879H11188c7,1.69,12.69,5.048,15.989,10.468h0c1.052,7.157,2.413,19.318,2.41,19.318Zm20.973-39.908a17.075,17.075,0,0,1-4.1-11.02v-6.7a12.993,12.993,0,0,1,12.977-12.977h2.694a13,13,0,0,1,12.979,12.977v6.708a13.713,13.713,0,0,1-24.555,11.014Z" transform="translate(-11144 -9672.999)" fill="#7761a7"/>
</svg>
