<svg xmlns="http://www.w3.org/2000/svg" width="311.049" height="46.7" viewBox="0 0 311.049 46.7">
  <g id="Layer_2" data-name="Layer 2" transform="translate(0.049 0)">
    <g id="Layer_1" data-name="Layer 1">
      <path id="Path_1" data-name="Path 1" d="M58.62,23.44c.05,5.16,3.6,10.88,11,10.88a10.5,10.5,0,0,0,10.1-7.15,10.73,10.73,0,0,0,.65-4,10.21,10.21,0,0,0-.78-4,10.92,10.92,0,0,0-21,4.25ZM81.46,34.88H80.25V28.94a11.54,11.54,0,0,1-10.75,6.5,11.8,11.8,0,0,1-12.09-12,11.81,11.81,0,0,1,12.09-12c5.55,0,9.53,3.42,10.75,6.63V11.91h1.21Z" fill="#7761a7"/>
      <path id="Path_2" data-name="Path 2" d="M111.05,23.35a10.88,10.88,0,1,0-21.75,0,10.65,10.65,0,0,0,10.75,10.92C107.46,34.27,111.05,28.55,111.05,23.35ZM88.22,2.81h1.21V18a11.56,11.56,0,0,1,10.74-6.63,11.82,11.82,0,0,1,12.1,12,11.81,11.81,0,0,1-12.1,12,11.52,11.52,0,0,1-10.74-6.5v5.94H88.22Z" fill="#7761a7"/>
      <path id="Path_3" data-name="Path 3" d="M128,17.33a4.48,4.48,0,0,0-4.85-4.85c-3.08,0-5.16,2.08-5,4.81s1.78,3.81,5,4.72c3,.82,6.46,1.65,6.72,6.54a6.56,6.56,0,0,1-6.72,6.89c-3.81,0-7.32-2.73-7.06-6.93h1.21a5.49,5.49,0,0,0,5.85,5.81,5.32,5.32,0,0,0,5.5-5.59c-.08-3.17-1.82-4.68-5.54-5.51-3.47-1-6.07-2-6.2-5.93s2.82-5.94,6.24-5.94,6.07,2,6.07,6Z" fill="#7761a7"/>
      <path id="Path_4" data-name="Path 4" d="M135.48,23.44a10.88,10.88,0,1,0,10.88-10.88,10.88,10.88,0,0,0-10.88,10.88Zm-1.21-.09a12.09,12.09,0,1,1,12.09,12.09A12.09,12.09,0,0,1,134.27,23.35Z" fill="#7761a7"/>
      <rect id="Rectangle_5" data-name="Rectangle 5" width="1.21" height="32.07" transform="translate(163.64 2.81)" fill="#7761a7"/>
      <path id="Path_5" data-name="Path 5" d="M192.59,34.88h-1.21v-5c-1.56,4-5.55,5.63-9.62,5.54-6.85-.17-10.27-4.29-10.27-11.18V11.91h1.21V24.26c0,6.2,3,10.14,9.32,10.06,5.46-.09,9.32-3.17,9.32-9.19V11.91h1.21Z" fill="#7761a7"/>
      <path id="Path_6" data-name="Path 6" d="M201.34,13.04h-5.07V11.91h5.07V2.81h1.21v9.1h5.89v1.13h-5.89V34.88h-1.21Z" fill="#7761a7"/>
      <path id="Path_7" data-name="Path 7" d="M231.54,22.4a10.74,10.74,0,0,0-10.79-9.92,10.61,10.61,0,0,0-10.84,9.92Zm-21.67,1.13a10.77,10.77,0,0,0,10.88,10.79,10.5,10.5,0,0,0,9.79-6.07h1.34a11.78,11.78,0,0,1-4.63,5.46,12.66,12.66,0,0,1-6.55,1.73c-8.66,0-12.09-6.89-12.09-12a11.89,11.89,0,0,1,12.14-12.09A12.24,12.24,0,0,1,229,14.43a11.5,11.5,0,0,1,3.77,9.1Z" fill="#7761a7"/>
      <path id="Path_8" data-name="Path 8" d="M240.59,42.9l3.51-8.5-9.58-23.53h4.86l7.06,18.64,7.23-18.64h4.86L245.27,42.9Z" fill="#7761a7"/>
      <path id="Path_9" data-name="Path 9" d="M272.65,14.34a8.44,8.44,0,1,0,6,2.458,8.52,8.52,0,0,0-6-2.458m-.13,21.15c-6.76,0-12.78-5.77-12.78-12.53,0-7.32,5.76-12.74,13.13-12.74a12.67,12.67,0,0,1,12.78,12.83,12.89,12.89,0,0,1-13.13,12.44" fill="#7761a7"/>
      <path id="Path_10" data-name="Path 10" d="M306.92,34.88v-2.6h-.09c-1.17,2-3.89,3.21-7.06,3.21-5.16,0-10-2.78-10-11.23V10.87h4.51V23.92c0,5,1.86,7.45,6,7.45s6.28-2.9,6.28-7.54v-13H311v24Z" fill="#7761a7"/>
      <path id="Path_11" data-name="Path 11" d="M30.42,26.14l2.95,11.54-9.31-7.24-9.31,7.24L17.7,26.14,9,20l10.26-1.49A6,6,0,1,1,30,15a5.92,5.92,0,0,1-1.15,3.5L39.13,20ZM23.35,0A23.35,23.35,0,1,0,35.1,43.5v3.2H46.7V23.35A23.35,23.35,0,0,0,23.35,0" fill="#7761a7"/>
    </g>
  </g>
</svg>
