<svg xmlns="http://www.w3.org/2000/svg" width="31.024" height="32.316" viewBox="0 0 31.024 32.316">
  <g id="notification-solid-badged" transform="translate(-3.05 -1)">
    <path id="Path_31487" data-name="Path 31487" d="M17.922,34.214A2.593,2.593,0,0,0,20.428,32H15.32a2.593,2.593,0,0,0,2.6,2.214Z" transform="translate(-0.355 -0.898)" fill="#7761a7"/>
    <path id="Path_31488" data-name="Path 31488" d="M31.987,27.366l-.33-.291a13.954,13.954,0,0,1-2.437-2.845,12.264,12.264,0,0,1-1.311-4.671v-4.8a10.6,10.6,0,0,0-.155-1.738,7.283,7.283,0,0,1-5.816-7.147V5.266a10.264,10.264,0,0,0-3.224-.971V3.071a1.3,1.3,0,1,0-2.593,0V4.343A10.5,10.5,0,0,0,7.089,14.762v4.8A12.264,12.264,0,0,1,5.779,24.23a13.983,13.983,0,0,1-2.4,2.845l-.33.291V30.1H31.987Z" transform="translate(0 -0.022)" fill="#7761a7"/>
    <path id="Path_31489" data-name="Path 31489" d="M34.71,5.855A4.855,4.855,0,1,1,29.855,1,4.855,4.855,0,0,1,34.71,5.855Z" transform="translate(-0.636 0)" fill="#7761a7"/>
  </g>
</svg>
