<svg xmlns="http://www.w3.org/2000/svg" width="80" height="80" viewBox="0 0 80 80">
  <g id="Profile" transform="translate(-98 -28)">
    <path id="Path_32872" data-name="Path 32872" d="M138,28a40,40,0,1,0,40,40A39.946,39.946,0,0,0,138,28Zm-8.356,21.689a9.6,9.6,0,1,1,0,9.6A9.669,9.669,0,0,1,129.644,49.689Zm28.8,37.156a4.287,4.287,0,0,1-4.356,4.267H121.911a4.345,4.345,0,0,1-4.356-4.267v-3.2a14.443,14.443,0,0,1,7.111-12.356l.178-.089a26.258,26.258,0,0,1,26.311,0l.178.089a14.444,14.444,0,0,1,7.111,12.356Z" transform="translate(0 0)" fill="#7761a7"/>
  </g>
</svg>
